  0
SECTION
  2
HEADER
  9
$ACADVER
  1
AC1032
  9
$ACADMAINTVER
 90
4
  9
$DWGCODEPAGE
  3
ANSI_1252
  9
$LASTSAVEDBY
  1
ezdxf
  9
$REQUIREDVERSIONS
160
0
  9
$INSBASE
 10
0.0
 20
0.0
 30
0.0
  9
$EXTMIN
 10
1e+20
 20
1e+20
 30
1e+20
  9
$EXTMAX
 10
-1e+20
 20
-1e+20
 30
-1e+20
  9
$LIMMIN
 10
0.0
 20
0.0
  9
$LIMMAX
 10
420.0
 20
297.0
  9
$ORTHOMODE
 70
0
  9
$REGENMODE
 70
1
  9
$FILLMODE
 70
1
  9
$QTEXTMODE
 70
0
  9
$MIRRTEXT
 70
1
  9
$LTSCALE
 40
1.0
  9
$ATTMODE
 70
1
  9
$TEXTSIZE
 40
0.1
  9
$TRACEWID
 40
1.0
  9
$TEXTSTYLE
  7
LAVA
  9
$CLAYER
  8
0
  9
$CELTYPE
  6
ByLayer
  9
$CECOLOR
 62
256
  9
$CELTSCALE
 40
1.0
  9
$DISPSILH
 70
0
  9
$DIMSCALE
 40
1.0
  9
$DIMASZ
 40
2.5
  9
$DIMEXO
 40
0.625
  9
$DIMDLI
 40
3.75
  9
$DIMRND
 40
0.0
  9
$DIMDLE
 40
0.0
  9
$DIMEXE
 40
1.25
  9
$DIMTP
 40
0.0
  9
$DIMTM
 40
0.0
  9
$DIMTXT
 40
2.5
  9
$DIMCEN
 40
2.5
  9
$DIMTSZ
 40
0.0
  9
$DIMTOL
 70
0
  9
$DIMLIM
 70
0
  9
$DIMTIH
 70
0
  9
$DIMTOH
 70
0
  9
$DIMSE1
 70
0
  9
$DIMSE2
 70
0
  9
$DIMTAD
 70
1
  9
$DIMZIN
 70
8
  9
$DIMBLK
  1

  9
$DIMASO
 70
1
  9
$DIMSHO
 70
1
  9
$DIMPOST
  1

  9
$DIMAPOST
  1

  9
$DIMALT
 70
0
  9
$DIMALTD
 70
3
  9
$DIMALTF
 40
0.03937007874
  9
$DIMLFAC
 40
1.0
  9
$DIMTOFL
 70
1
  9
$DIMTVP
 40
0.0
  9
$DIMTIX
 70
0
  9
$DIMSOXD
 70
0
  9
$DIMSAH
 70
0
  9
$DIMBLK1
  1

  9
$DIMBLK2
  1

  9
$DIMSTYLE
  2
LAVA-50
  9
$DIMCLRD
 70
0
  9
$DIMCLRE
 70
0
  9
$DIMCLRT
 70
0
  9
$DIMTFAC
 40
1.0
  9
$DIMGAP
 40
0.625
  9
$DIMJUST
 70
0
  9
$DIMSD1
 70
0
  9
$DIMSD2
 70
0
  9
$DIMTOLJ
 70
0
  9
$DIMTZIN
 70
8
  9
$DIMALTZ
 70
0
  9
$DIMALTTZ
 70
0
  9
$DIMUPT
 70
0
  9
$DIMDEC
 70
2
  9
$DIMTDEC
 70
2
  9
$DIMALTU
 70
2
  9
$DIMALTTD
 70
3
  9
$DIMTXSTY
  7
Standard
  9
$DIMAUNIT
 70
0
  9
$DIMADEC
 70
0
  9
$DIMALTRND
 40
0.0
  9
$DIMAZIN
 70
0
  9
$DIMDSEP
 70
44
  9
$DIMATFIT
 70
3
  9
$DIMFRAC
 70
0
  9
$DIMLDRBLK
  1

  9
$DIMLUNIT
 70
2
  9
$DIMLWD
 70
-2
  9
$DIMLWE
 70
-2
  9
$DIMTMOVE
 70
0
  9
$DIMFXL
 40
1.0
  9
$DIMFXLON
 70
0
  9
$DIMJOGANG
 40
0.785398163397
  9
$DIMTFILL
 70
0
  9
$DIMTFILLCLR
 70
0
  9
$DIMARCSYM
 70
0
  9
$DIMLTYPE
  6

  9
$DIMLTEX1
  6

  9
$DIMLTEX2
  6

  9
$DIMTXTDIRECTION
 70
0
  9
$LUNITS
 70
2
  9
$LUPREC
 70
3
  9
$SKETCHINC
 40
1.0
  9
$FILLETRAD
 40
10.0
  9
$AUNITS
 70
0
  9
$AUPREC
 70
1
  9
$MENU
  1
.
  9
$ELEVATION
 40
0.0
  9
$PELEVATION
 40
0.0
  9
$THICKNESS
 40
0.0
  9
$LIMCHECK
 70
0
  9
$CHAMFERA
 40
0.0
  9
$CHAMFERB
 40
0.0
  9
$CHAMFERC
 40
0.0
  9
$CHAMFERD
 40
0.0
  9
$SKPOLY
 70
0
  9
$TDCREATE
 40
2461309.9797800924
  9
$TDUCREATE
 40
2458532.153996898
  9
$TDUPDATE
 40
2461309.979791667
  9
$TDUUPDATE
 40
2458532.1544311
  9
$TDINDWG
 40
0.0
  9
$TDUSRTIMER
 40
0.0
  9
$USRTIMER
 70
1
  9
$ANGBASE
 50
0.0
  9
$ANGDIR
 70
0
  9
$PDMODE
 70
0
  9
$PDSIZE
 40
0.0
  9
$PLINEWID
 40
0.0
  9
$SPLFRAME
 70
0
  9
$SPLINETYPE
 70
6
  9
$SPLINESEGS
 70
8
  9
$HANDSEED
  5
2E6
  9
$SURFTAB1
 70
6
  9
$SURFTAB2
 70
6
  9
$SURFTYPE
 70
6
  9
$SURFU
 70
6
  9
$SURFV
 70
6
  9
$UCSBASE
  2

  9
$UCSNAME
  2

  9
$UCSORG
 10
0.0
 20
0.0
 30
0.0
  9
$UCSXDIR
 10
1.0
 20
0.0
 30
0.0
  9
$UCSYDIR
 10
0.0
 20
1.0
 30
0.0
  9
$UCSORTHOREF
  2

  9
$UCSORTHOVIEW
 70
0
  9
$UCSORGTOP
 10
0.0
 20
0.0
 30
0.0
  9
$UCSORGBOTTOM
 10
0.0
 20
0.0
 30
0.0
  9
$UCSORGLEFT
 10
0.0
 20
0.0
 30
0.0
  9
$UCSORGRIGHT
 10
0.0
 20
0.0
 30
0.0
  9
$UCSORGFRONT
 10
0.0
 20
0.0
 30
0.0
  9
$UCSORGBACK
 10
0.0
 20
0.0
 30
0.0
  9
$PUCSBASE
  2

  9
$PUCSNAME
  2

  9
$PUCSORG
 10
0.0
 20
0.0
 30
0.0
  9
$PUCSXDIR
 10
1.0
 20
0.0
 30
0.0
  9
$PUCSYDIR
 10
0.0
 20
1.0
 30
0.0
  9
$PUCSORTHOREF
  2

  9
$PUCSORTHOVIEW
 70
0
  9
$PUCSORGTOP
 10
0.0
 20
0.0
 30
0.0
  9
$PUCSORGBOTTOM
 10
0.0
 20
0.0
 30
0.0
  9
$PUCSORGLEFT
 10
0.0
 20
0.0
 30
0.0
  9
$PUCSORGRIGHT
 10
0.0
 20
0.0
 30
0.0
  9
$PUCSORGFRONT
 10
0.0
 20
0.0
 30
0.0
  9
$PUCSORGBACK
 10
0.0
 20
0.0
 30
0.0
  9
$USERI1
 70
0
  9
$USERI2
 70
0
  9
$USERI3
 70
0
  9
$USERI4
 70
0
  9
$USERI5
 70
0
  9
$USERR1
 40
0.0
  9
$USERR2
 40
0.0
  9
$USERR3
 40
0.0
  9
$USERR4
 40
0.0
  9
$USERR5
 40
0.0
  9
$WORLDVIEW
 70
1
  9
$SHADEDGE
 70
3
  9
$SHADEDIF
 70
70
  9
$TILEMODE
 70
1
  9
$MAXACTVP
 70
64
  9
$PINSBASE
 10
0.0
 20
0.0
 30
0.0
  9
$PLIMCHECK
 70
0
  9
$PEXTMIN
 10
1e+20
 20
1e+20
 30
1e+20
  9
$PEXTMAX
 10
-1e+20
 20
-1e+20
 30
-1e+20
  9
$PLIMMIN
 10
0.0
 20
0.0
  9
$PLIMMAX
 10
420.0
 20
297.0
  9
$UNITMODE
 70
0
  9
$VISRETAIN
 70
1
  9
$PLINEGEN
 70
0
  9
$PSLTSCALE
 70
0
  9
$TREEDEPTH
 70
3020
  9
$CMLSTYLE
  2
Standard
  9
$CMLJUST
 70
0
  9
$CMLSCALE
 40
20.0
  9
$PROXYGRAPHICS
 70
1
  9
$MEASUREMENT
 70
1
  9
$CELWEIGHT
370
-1
  9
$ENDCAPS
280
0
  9
$JOINSTYLE
280
0
  9
$LWDISPLAY
290
1
  9
$INSUNITS
 70
6
  9
$HYPERLINKBASE
  1

  9
$STYLESHEET
  1

  9
$XEDIT
290
1
  9
$CEPSNTYPE
380
0
  9
$PSTYLEMODE
290
1
  9
$FINGERPRINTGUID
  2
{E2993C8B-70E9-453E-B010-03E87840E180}
  9
$VERSIONGUID
  2
{76FCC889-073B-481A-9EF1-974F559231E7}
  9
$EXTNAMES
290
1
  9
$PSVPSCALE
 40
0.0
  9
$OLESTARTUP
290
0
  9
$SORTENTS
280
127
  9
$INDEXCTL
280
0
  9
$HIDETEXT
280
1
  9
$XCLIPFRAME
280
1
  9
$HALOGAP
280
0
  9
$OBSCOLOR
 70
257
  9
$OBSLTYPE
280
0
  9
$INTERSECTIONDISPLAY
280
0
  9
$INTERSECTIONCOLOR
 70
257
  9
$DIMASSOC
280
2
  9
$PROJECTNAME
  1

  9
$CAMERADISPLAY
290
0
  9
$LENSLENGTH
 40
50.0
  9
$CAMERAHEIGHT
 40
0.0
  9
$STEPSPERSEC
 40
24.0
  9
$STEPSIZE
 40
100.0
  9
$3DDWFPREC
 40
2.0
  9
$PSOLWIDTH
 40
0.005
  9
$PSOLHEIGHT
 40
0.08
  9
$LOFTANG1
 40
1.570796326795
  9
$LOFTANG2
 40
1.570796326795
  9
$LOFTMAG1
 40
0.0
  9
$LOFTMAG2
 40
0.0
  9
$LOFTPARAM
 70
7
  9
$LOFTNORMALS
280
1
  9
$LATITUDE
 40
37.795
  9
$LONGITUDE
 40
-122.394
  9
$NORTHDIRECTION
 40
0.0
  9
$TIMEZONE
 70
-8000
  9
$LIGHTGLYPHDISPLAY
280
1
  9
$TILEMODELIGHTSYNCH
280
1
  9
$CMATERIAL
347
20
  9
$SOLIDHIST
280
0
  9
$SHOWHIST
280
1
  9
$DWFFRAME
280
2
  9
$DGNFRAME
280
2
  9
$REALWORLDSCALE
290
1
  9
$INTERFERECOLOR
 62
256
  9
$CSHADOW
280
0
  9
$SHADOWPLANELOCATION
 40
0.0
  0
ENDSEC
  0
SECTION
  2
CLASSES
  0
CLASS
  1
ACDBDICTIONARYWDFLT
  2
AcDbDictionaryWithDefault
  3
ObjectDBX Classes
 90
0
 91
0
280
0
281
0
  0
CLASS
  1
SUN
  2
AcDbSun
  3
SCENEOE
 90
1153
 91
0
280
0
281
0
  0
CLASS
  1
VISUALSTYLE
  2
AcDbVisualStyle
  3
ObjectDBX Classes
 90
4095
 91
0
280
0
281
0
  0
CLASS
  1
MATERIAL
  2
AcDbMaterial
  3
ObjectDBX Classes
 90
1153
 91
0
280
0
281
0
  0
CLASS
  1
SCALE
  2
AcDbScale
  3
ObjectDBX Classes
 90
1153
 91
0
280
0
281
0
  0
CLASS
  1
TABLESTYLE
  2
AcDbTableStyle
  3
ObjectDBX Classes
 90
4095
 91
0
280
0
281
0
  0
CLASS
  1
MLEADERSTYLE
  2
AcDbMLeaderStyle
  3
ACDB_MLEADERSTYLE_CLASS
 90
4095
 91
0
280
0
281
0
  0
CLASS
  1
DICTIONARYVAR
  2
AcDbDictionaryVar
  3
ObjectDBX Classes
 90
0
 91
0
280
0
281
0
  0
CLASS
  1
CELLSTYLEMAP
  2
AcDbCellStyleMap
  3
ObjectDBX Classes
 90
1152
 91
0
280
0
281
0
  0
CLASS
  1
MENTALRAYRENDERSETTINGS
  2
AcDbMentalRayRenderSettings
  3
SCENEOE
 90
1024
 91
0
280
0
281
0
  0
CLASS
  1
ACDBDETAILVIEWSTYLE
  2
AcDbDetailViewStyle
  3
ObjectDBX Classes
 90
1025
 91
0
280
0
281
0
  0
CLASS
  1
ACDBSECTIONVIEWSTYLE
  2
AcDbSectionViewStyle
  3
ObjectDBX Classes
 90
1025
 91
0
280
0
281
0
  0
CLASS
  1
RASTERVARIABLES
  2
AcDbRasterVariables
  3
ISM
 90
0
 91
0
280
0
281
0
  0
CLASS
  1
LAYOUT
  2
AcDbLayout
  3
ObjectDBX Classes
 90
0
 91
0
280
0
281
0
  0
CLASS
  1
ACDBPLACEHOLDER
  2
AcDbPlaceHolder
  3
ObjectDBX Classes
 90
0
 91
0
280
0
281
0
  0
ENDSEC
  0
SECTION
  2
TABLES
  0
TABLE
  2
VPORT
  5
8
330
0
100
AcDbSymbolTable
 70
1
  0
VPORT
  5
2E2
330
8
100
AcDbSymbolTableRecord
100
AcDbViewportTableRecord
  2
*Active
 70
0
 10
0.0
 20
0.0
 11
1.0
 21
1.0
 12
16.761999999999997
 22
-7.450499999999993
 13
0.0
 23
0.0
 14
0.5
 24
0.5
 15
0.5
 25
0.5
 16
0.0
 26
0.0
 36
1.0
 17
0.0
 27
0.0
 37
0.0
 40
20.666219999999985
 41
1.34
 42
50.0
 43
0.0
 44
0.0
 50
0.0
 51
0.0
 71
0
 72
1000
 73
1
 74
3
 75
0
 76
0
 77
0
 78
0
281
0
 65
1
110
0.0
120
0.0
130
0.0
111
1.0
121
0.0
131
0.0
112
0.0
122
1.0
132
0.0
 79
0
146
0.0
  0
ENDTAB
  0
TABLE
  2
LTYPE
  5
2
330
0
100
AcDbSymbolTable
 70
9
  0
LTYPE
  5
24
330
2
100
AcDbSymbolTableRecord
100
AcDbLinetypeTableRecord
  2
ByBlock
 70
0
  3

 72
65
 73
0
 40
0.0
  0
LTYPE
  5
25
330
2
100
AcDbSymbolTableRecord
100
AcDbLinetypeTableRecord
  2
ByLayer
 70
0
  3

 72
65
 73
0
 40
0.0
  0
LTYPE
  5
26
330
2
100
AcDbSymbolTableRecord
100
AcDbLinetypeTableRecord
  2
Continuous
 70
0
  3

 72
65
 73
0
 40
0.0
  0
LTYPE
  5
2F
330
2
100
AcDbSymbolTableRecord
100
AcDbLinetypeTableRecord
  2
LAVA_EJE
 70
0
  3
Eje  ____ _ ____ _
 72
65
 73
4
 40
0.9
 49
0.6
 74
0
 49
-0.1
 74
0
 49
0.1
 74
0
 49
-0.1
 74
0
  0
LTYPE
  5
30
330
2
100
AcDbSymbolTableRecord
100
AcDbLinetypeTableRecord
  2
LAVA_DEMOL
 70
0
  3
Demolición __ __ __
 72
65
 73
2
 40
0.18
 49
0.12
 74
0
 49
-0.06
 74
0
  0
LTYPE
  5
31
330
2
100
AcDbSymbolTableRecord
100
AcDbLinetypeTableRecord
  2
LAVA_OCULTO
 70
0
  3
Proyección / en altura ___ ___
 72
65
 73
2
 40
0.21
 49
0.15
 74
0
 49
-0.06
 74
0
  0
LTYPE
  5
32
330
2
100
AcDbSymbolTableRecord
100
AcDbLinetypeTableRecord
  2
LAVA_FINO
 70
0
  3
Fino _ _ _ _
 72
65
 73
2
 40
0.09
 49
0.06
 74
0
 49
-0.03
 74
0
  0
LTYPE
  5
33
330
2
100
AcDbSymbolTableRecord
100
AcDbLinetypeTableRecord
  2
LAVA_GAS
 70
0
  3
Gas ____ . ____ .
 72
65
 73
4
 40
0.4
 49
0.28
 74
0
 49
-0.05
 74
0
 49
0.02
 74
0
 49
-0.05
 74
0
  0
LTYPE
  5
34
330
2
100
AcDbSymbolTableRecord
100
AcDbLinetypeTableRecord
  2
LAVA_COND
 70
0
  3
Condicional ___ . ___ .
 72
65
 73
4
 40
0.24
 49
0.14
 74
0
 49
-0.04
 74
0
 49
0.02
 74
0
 49
-0.04
 74
0
  0
ENDTAB
  0
TABLE
  2
LAYER
  5
1
330
0
100
AcDbSymbolTable
 70
18
  0
LAYER
  5
27
330
1
100
AcDbSymbolTableRecord
100
AcDbLayerTableRecord
  2
0
 70
0
 62
7
  6
Continuous
370
-3
390
13
347
21
  0
LAYER
  5
28
330
1
100
AcDbSymbolTableRecord
100
AcDbLayerTableRecord
  2
Defpoints
 70
0
 62
7
  6
Continuous
290
0
370
-3
390
13
347
21
  0
LAYER
  5
94
330
1
100
AcDbSymbolTableRecord
100
AcDbLayerTableRecord
  2
A-EJE
 70
0
 62
8
  6
LAVA_EJE
370
13
390
13
347
21
1001
AcAecLayerStandard
1000

1000
Ejes de columnas A-B-C / 1-2
  0
LAYER
  5
AA
330
1
100
AcDbSymbolTableRecord
100
AcDbLayerTableRecord
  2
A-COTA
 70
0
 62
7
  6
Continuous
370
13
390
13
347
21
1001
AcAecLayerStandard
1000

1000
Cotas (entidades DIMENSION, estilo LAVA-50)
  0
LAYER
  5
C9
330
1
100
AcDbSymbolTableRecord
100
AcDbLayerTableRecord
  2
A-ESCALERA
 70
0
 62
8
  6
Continuous
370
18
390
13
347
21
1001
AcAecLayerStandard
1000

1000
Escalera del edificio (fuera del local)
  0
LAYER
  5
DF
330
1
100
AcDbSymbolTableRecord
100
AcDbLayerTableRecord
  2
A-DUCTO
 70
0
 62
8
  6
Continuous
370
18
390
13
347
21
1001
AcAecLayerStandard
1000

1000
Ductos existentes (shafts)
  0
LAYER
  5
F1
330
1
100
AcDbSymbolTableRecord
100
AcDbLayerTableRecord
  2
A-MURO-EXIST-TRAMA
 70
0
 62
253
  6
Continuous
370
5
390
13
347
21
1001
AcAecLayerStandard
1000

1000
Trama de muro existente
  0
LAYER
  5
F3
330
1
100
AcDbSymbolTableRecord
100
AcDbLayerTableRecord
  2
A-MURO-EXIST
 70
0
 62
8
  6
Continuous
370
35
390
13
347
21
1001
AcAecLayerStandard
1000

1000
EXISTING WALL: muros existentes (IP-KB sin trama = división liviana)
  0
LAYER
  5
FC
330
1
100
AcDbSymbolTableRecord
100
AcDbLayerTableRecord
  2
A-COLUMNA-TRAMA
 70
0
 62
8
  6
Continuous
370
5
390
13
347
21
1001
AcAecLayerStandard
1000

1000
Relleno de columnas
  0
LAYER
  5
FE
330
1
100
AcDbSymbolTableRecord
100
AcDbLayerTableRecord
  2
A-COLUMNA
 70
0
 62
7
  6
Continuous
370
50
390
13
347
21
1001
AcAecLayerStandard
1000

1000
Columnas (contorno)
  0
LAYER
  5
10A
330
1
100
AcDbSymbolTableRecord
100
AcDbLayerTableRecord
  2
A-VIDRIO
 70
0
 62
4
  6
Continuous
370
25
390
13
347
21
1001
AcAecLayerStandard
1000

1000
Vidrio existente: vitrinas de fachada y ventana sur del ala
  0
LAYER
  5
111
330
1
100
AcDbSymbolTableRecord
100
AcDbLayerTableRecord
  2
A-PUERTA
 70
0
 62
150
  6
Continuous
370
25
390
13
347
21
1001
AcAecLayerStandard
1000

1000
Puerta principal existente (giro de hojas) y vanos existentes
  0
LAYER
  5
11E
330
1
100
AcDbSymbolTableRecord
100
AcDbLayerTableRecord
  2
A-CONTEXTO
 70
0
 62
9
  6
LAVA_FINO
370
13
390
13
347
21
1001
AcAecLayerStandard
1000

1000
Contexto fuera del local (puertas vecinas, terraza)
  0
LAYER
  5
124
330
1
100
AcDbSymbolTableRecord
100
AcDbLayerTableRecord
  2
A-EQUIPO-ALTO
 70
0
 62
30
  6
LAVA_OCULTO
370
35
390
13
347
21
1001
AcAecLayerStandard
1000

1000
Equipo existente en altura: campana de Marna’s (a retirar según propuesta)
  0
LAYER
  5
128
330
1
100
AcDbSymbolTableRecord
100
AcDbLayerTableRecord
  2
M-EXTRACCION
 70
0
 62
6
  6
Continuous
370
35
390
13
347
21
1001
AcAecLayerStandard
1000

1000
Collarín / ducto existente de la campana de Marna’s (VERIFY ON SITE)
  0
LAYER
  5
12E
330
1
100
AcDbSymbolTableRecord
100
AcDbLayerTableRecord
  2
P-SANITARIO
 70
0
 62
5
  6
Continuous
370
25
390
13
347
21
1001
AcAecLayerStandard
1000

1000
Puntos húmedos existentes WP1–WP6 (drenajes: VERIFY ON SITE)
  0
LAYER
  5
144
330
1
100
AcDbSymbolTableRecord
100
AcDbLayerTableRecord
  2
S-SEGURIDAD
 70
0
 62
1
  6
Continuous
370
25
390
13
347
21
1001
AcAecLayerStandard
1000

1000
Barrido de la puerta principal: área libre de egreso
  0
LAYER
  5
221
330
1
100
AcDbSymbolTableRecord
100
AcDbLayerTableRecord
  2
A-TEXTO
 70
0
 62
7
  6
Continuous
370
18
390
13
347
21
1001
AcAecLayerStandard
1000

1000
Textos, rótulo, notas y cuadros
  0
ENDTAB
  0
TABLE
  2
STYLE
  5
5
330
0
100
AcDbSymbolTable
 70
3
  0
STYLE
  5
29
330
5
100
AcDbSymbolTableRecord
100
AcDbTextStyleTableRecord
  2
Standard
 70
0
 40
0.0
 41
1.0
 50
0.0
 71
0
 42
2.5
  3
txt
  4

  0
STYLE
  5
35
330
5
100
AcDbSymbolTableRecord
100
AcDbTextStyleTableRecord
  2
LAVA
 70
0
 40
0.0
 41
1.0
 50
0.0
 71
0
 42
2.5
  3
arial.ttf
  4

  0
STYLE
  5
36
330
5
100
AcDbSymbolTableRecord
100
AcDbTextStyleTableRecord
  2
LAVA-B
 70
0
 40
0.0
 41
1.0
 50
0.0
 71
0
 42
2.5
  3
arialbd.ttf
  4

  0
ENDTAB
  0
TABLE
  2
VIEW
  5
7
330
0
100
AcDbSymbolTable
 70
0
  0
ENDTAB
  0
TABLE
  2
UCS
  5
6
330
0
100
AcDbSymbolTable
 70
1
  0
UCS
  5
40
330
6
100
AcDbSymbolTableRecord
100
AcDbUCSTableRecord
  2
LAVA-DATOS
 70
0
 10
0.0
 20
0.0
 30
0.0
 11
1.0
 21
0.0
 31
0.0
 12
0.0
 22
-1.0
 32
0.0
  0
ENDTAB
  0
TABLE
  2
APPID
  5
3
330
0
100
AcDbSymbolTable
 70
4
  0
APPID
  5
2A
330
3
100
AcDbSymbolTableRecord
100
AcDbRegAppTableRecord
  2
ACAD
 70
0
  0
APPID
  5
95
330
3
100
AcDbSymbolTableRecord
100
AcDbRegAppTableRecord
  2
AcAecLayerStandard
 70
0
  0
APPID
  5
2E3
330
3
100
AcDbSymbolTableRecord
100
AcDbRegAppTableRecord
  2
HATCHBACKGROUNDCOLOR
 70
0
  0
APPID
  5
2E4
330
3
100
AcDbSymbolTableRecord
100
AcDbRegAppTableRecord
  2
EZDXF
 70
0
  0
ENDTAB
  0
TABLE
  2
DIMSTYLE
  5
4
330
0
100
AcDbSymbolTable
 70
2
100
AcDbDimStyleTable
  0
DIMSTYLE
105
2B
330
4
100
AcDbSymbolTableRecord
100
AcDbDimStyleTableRecord
  2
Standard
 70
0
 40
1.0
 41
2.5
 42
0.625
 43
3.75
 44
1.25
 45
0.0
 46
0.0
 47
0.0
 48
0.0
 49
2.5
140
2.5
141
2.5
142
0.0
143
0.03937007874
144
1.0
145
0.0
146
1.0
147
0.625
148
0.0
 69
0
 70
0
 71
0
 72
0
 73
0
 74
0
 75
0
 76
0
 77
1
 78
8
 79
3
170
0
171
3
172
1
173
0
174
0
175
0
176
0
177
0
178
0
179
2
271
2
272
2
273
2
274
3
275
0
276
0
277
2
278
44
279
0
280
0
281
0
282
0
283
0
284
8
285
0
286
0
288
0
289
3
290
0
371
-2
372
-2
  0
DIMSTYLE
105
37
330
4
100
AcDbSymbolTableRecord
100
AcDbDimStyleTableRecord
  2
LAVA-50
 70
0
 40
1.0
 41
0.06
 42
0.03
 43
3.75
 44
0.06
 45
0.0
 46
0.05
 47
0.0
 48
0.0
 49
2.5
140
0.075
141
2.5
142
0.0
143
0.03937007874
144
1.0
145
0.0
146
1.0
147
0.025
148
0.0
 69
0
 70
0
 71
0
 72
0
 73
0
 74
0
 75
0
 76
0
 77
1
 78
0
 79
3
170
0
171
3
172
1
173
0
174
0
175
0
176
256
177
256
178
256
179
2
271
2
272
2
273
2
274
3
275
0
276
0
277
2
278
46
279
0
280
0
281
0
282
0
283
0
284
8
285
0
286
0
288
0
289
3
290
0
340
35
342
38
371
-2
372
-2
  0
ENDTAB
  0
TABLE
  2
BLOCK_RECORD
  5
9
330
0
100
AcDbSymbolTable
 70
30
  0
BLOCK_RECORD
  5
17
330
9
100
AcDbSymbolTableRecord
100
AcDbBlockTableRecord
  2
*Model_Space
340
1A
 70
0
280
1
281
0
  0
BLOCK_RECORD
  5
1B
330
9
100
AcDbSymbolTableRecord
100
AcDbBlockTableRecord
  2
*Paper_Space
340
1E
 70
0
280
1
281
0
  0
BLOCK_RECORD
  5
38
330
9
100
AcDbSymbolTableRecord
100
AcDbBlockTableRecord
  2
_ARCHTICK
340
0
 70
0
280
1
281
0
  0
BLOCK_RECORD
  5
3C
330
9
100
AcDbSymbolTableRecord
100
AcDbBlockTableRecord
  2
_CLOSEDFILLED
340
0
 70
0
280
1
281
0
  0
BLOCK_RECORD
  5
41
330
9
100
AcDbSymbolTableRecord
100
AcDbBlockTableRecord
  2
LAVA-SALIDA
340
0
 70
6
280
1
281
0
  0
BLOCK_RECORD
  5
46
330
9
100
AcDbSymbolTableRecord
100
AcDbBlockTableRecord
  2
LAVA-LUZ-EMERG
340
0
 70
6
280
1
281
0
  0
BLOCK_RECORD
  5
4C
330
9
100
AcDbSymbolTableRecord
100
AcDbBlockTableRecord
  2
LAVA-EXTINTOR
340
0
 70
6
280
1
281
0
  0
BLOCK_RECORD
  5
52
330
9
100
AcDbSymbolTableRecord
100
AcDbBlockTableRecord
  2
LAVA-DETECTOR
340
0
 70
6
280
1
281
0
  0
BLOCK_RECORD
  5
57
330
9
100
AcDbSymbolTableRecord
100
AcDbBlockTableRecord
  2
LAVA-PULSADOR
340
0
 70
6
280
1
281
0
  0
BLOCK_RECORD
  5
5C
330
9
100
AcDbSymbolTableRecord
100
AcDbBlockTableRecord
  2
LAVA-VALVULA
340
0
 70
6
280
1
281
0
  0
BLOCK_RECORD
  5
60
330
9
100
AcDbSymbolTableRecord
100
AcDbBlockTableRecord
  2
LAVA-SOLENOIDE
340
0
 70
6
280
1
281
0
  0
BLOCK_RECORD
  5
66
330
9
100
AcDbSymbolTableRecord
100
AcDbBlockTableRecord
  2
LAVA-DIFUSOR
340
0
 70
6
280
1
281
0
  0
BLOCK_RECORD
  5
6D
330
9
100
AcDbSymbolTableRecord
100
AcDbBlockTableRecord
  2
LAVA-DUCTO-V
340
0
 70
6
280
1
281
0
  0
BLOCK_RECORD
  5
73
330
9
100
AcDbSymbolTableRecord
100
AcDbBlockTableRecord
  2
LAVA-DESAGUE
340
0
 70
6
280
1
281
0
  0
BLOCK_RECORD
  5
79
330
9
100
AcDbSymbolTableRecord
100
AcDbBlockTableRecord
  2
LAVA-EJE
340
0
 70
6
280
1
281
0
  0
BLOCK_RECORD
  5
7E
330
9
100
AcDbSymbolTableRecord
100
AcDbBlockTableRecord
  2
LAVA-ROTULO
340
0
 70
6
280
1
281
0
  0
BLOCK_RECORD
  5
AC
330
9
100
AcDbSymbolTableRecord
100
AcDbBlockTableRecord
  2
*D1
340
0
 70
0
280
1
281
0
  0
BLOCK_RECORD
  5
BB
330
9
100
AcDbSymbolTableRecord
100
AcDbBlockTableRecord
  2
*D2
340
0
 70
0
280
1
281
0
  0
BLOCK_RECORD
  5
147
330
9
100
AcDbSymbolTableRecord
100
AcDbBlockTableRecord
  2
*D3
340
0
 70
0
280
1
281
0
  0
BLOCK_RECORD
  5
156
330
9
100
AcDbSymbolTableRecord
100
AcDbBlockTableRecord
  2
*D4
340
0
 70
0
280
1
281
0
  0
BLOCK_RECORD
  5
165
330
9
100
AcDbSymbolTableRecord
100
AcDbBlockTableRecord
  2
*D5
340
0
 70
0
280
1
281
0
  0
BLOCK_RECORD
  5
174
330
9
100
AcDbSymbolTableRecord
100
AcDbBlockTableRecord
  2
*D6
340
0
 70
0
280
1
281
0
  0
BLOCK_RECORD
  5
183
330
9
100
AcDbSymbolTableRecord
100
AcDbBlockTableRecord
  2
*D7
340
0
 70
0
280
1
281
0
  0
BLOCK_RECORD
  5
192
330
9
100
AcDbSymbolTableRecord
100
AcDbBlockTableRecord
  2
*D8
340
0
 70
0
280
1
281
0
  0
BLOCK_RECORD
  5
1A1
330
9
100
AcDbSymbolTableRecord
100
AcDbBlockTableRecord
  2
*D9
340
0
 70
0
280
1
281
0
  0
BLOCK_RECORD
  5
1B0
330
9
100
AcDbSymbolTableRecord
100
AcDbBlockTableRecord
  2
*D10
340
0
 70
0
280
1
281
0
  0
BLOCK_RECORD
  5
1BF
330
9
100
AcDbSymbolTableRecord
100
AcDbBlockTableRecord
  2
*D11
340
0
 70
0
280
1
281
0
  0
BLOCK_RECORD
  5
1CE
330
9
100
AcDbSymbolTableRecord
100
AcDbBlockTableRecord
  2
*D12
340
0
 70
0
280
1
281
0
  0
BLOCK_RECORD
  5
1DD
330
9
100
AcDbSymbolTableRecord
100
AcDbBlockTableRecord
  2
*D13
340
0
 70
0
280
1
281
0
  0
BLOCK_RECORD
  5
1EC
330
9
100
AcDbSymbolTableRecord
100
AcDbBlockTableRecord
  2
*D14
340
0
 70
0
280
1
281
0
  0
ENDTAB
  0
ENDSEC
  0
SECTION
  2
BLOCKS
  0
BLOCK
  5
18
330
17
100
AcDbEntity
  8
0
100
AcDbBlockBegin
  2
*Model_Space
 70
0
 10
0.0
 20
0.0
 30
0.0
  3
*Model_Space
  1

  0
ENDBLK
  5
19
330
17
100
AcDbEntity
  8
0
100
AcDbBlockEnd
  0
BLOCK
  5
1C
330
1B
100
AcDbEntity
  8
0
100
AcDbBlockBegin
  2
*Paper_Space
 70
0
 10
0.0
 20
0.0
 30
0.0
  3
*Paper_Space
  1

  0
ENDBLK
  5
1D
330
1B
100
AcDbEntity
  8
0
100
AcDbBlockEnd
  0
BLOCK
  5
39
330
38
100
AcDbEntity
  8
0
100
AcDbBlockBegin
  2
_ARCHTICK
 70
0
 10
0.0
 20
0.0
 30
0.0
  3
_ARCHTICK
  1

  0
LWPOLYLINE
  5
3B
330
38
100
AcDbEntity
  8
0
  6
BYBLOCK
 62
0
100
AcDbPolyline
 90
2
 70
0
 43
0.15
 10
-0.5
 20
-0.5
 10
0.5
 20
0.5
  0
ENDBLK
  5
3A
330
38
100
AcDbEntity
  8
0
100
AcDbBlockEnd
  0
BLOCK
  5
3D
330
3C
100
AcDbEntity
  8
0
100
AcDbBlockBegin
  2
_CLOSEDFILLED
 70
0
 10
0.0
 20
0.0
 30
0.0
  3
_CLOSEDFILLED
  1

  0
SOLID
  5
3F
330
3C
100
AcDbEntity
  8
0
  6
BYBLOCK
 62
0
100
AcDbTrace
 10
-1.0
 20
0.16439898372402537
 30
0.0
 11
0.0
 21
0.0
 31
0.0
 12
-1.0
 22
-0.16439898372402537
 32
0.0
 13
-1.0
 23
-0.16439898372402537
 33
0.0
  0
ENDBLK
  5
3E
330
3C
100
AcDbEntity
  8
0
100
AcDbBlockEnd
  0
BLOCK
  5
42
330
41
100
AcDbEntity
  8
0
100
AcDbBlockBegin
  2
LAVA-SALIDA
 70
0
 10
0.0
 20
0.0
 30
0.0
  3
LAVA-SALIDA
  1

  0
LWPOLYLINE
  5
44
330
41
100
AcDbEntity
  8
0
100
AcDbPolyline
 90
4
 70
1
 10
-0.19
 20
-0.075
 10
0.19
 20
-0.075
 10
0.19
 20
0.075
 10
-0.19
 20
0.075
  0
TEXT
  5
45
330
41
100
AcDbEntity
  8
0
100
AcDbText
 10
0.0
 20
0.0
 30
0.0
 40
0.06
  1
SALIDA
  7
LAVA-B
 72
1
 11
0.0
 21
0.0
 31
0.0
100
AcDbText
 73
2
  0
ENDBLK
  5
43
330
41
100
AcDbEntity
  8
0
100
AcDbBlockEnd
  0
BLOCK
  5
47
330
46
100
AcDbEntity
  8
0
100
AcDbBlockBegin
  2
LAVA-LUZ-EMERG
 70
0
 10
0.0
 20
0.0
 30
0.0
  3
LAVA-LUZ-EMERG
  1

  0
LWPOLYLINE
  5
49
330
46
100
AcDbEntity
  8
0
100
AcDbPolyline
 90
4
 70
1
 10
-0.13
 20
-0.045
 10
0.13
 20
-0.045
 10
0.13
 20
0.045
 10
-0.13
 20
0.045
  0
CIRCLE
  5
4A
330
46
100
AcDbEntity
  8
0
100
AcDbCircle
 10
-0.07
 20
0.0
 30
0.0
 40
0.03
  0
CIRCLE
  5
4B
330
46
100
AcDbEntity
  8
0
100
AcDbCircle
 10
0.07
 20
0.0
 30
0.0
 40
0.03
  0
ENDBLK
  5
48
330
46
100
AcDbEntity
  8
0
100
AcDbBlockEnd
  0
BLOCK
  5
4D
330
4C
100
AcDbEntity
  8
0
100
AcDbBlockBegin
  2
LAVA-EXTINTOR
 70
2
 10
0.0
 20
0.0
 30
0.0
  3
LAVA-EXTINTOR
  1

  0
CIRCLE
  5
4F
330
4C
100
AcDbEntity
  8
0
100
AcDbCircle
 10
0.0
 20
0.0
 30
0.0
 40
0.12
  0
LWPOLYLINE
  5
50
330
4C
100
AcDbEntity
  8
0
100
AcDbPolyline
 90
2
 70
0
 10
-0.085
 20
-0.085
 10
0.085
 20
-0.085
  0
ATTDEF
  5
51
330
4C
100
AcDbEntity
  8
0
100
AcDbText
 10
0.0
 20
0.01
 30
0.0
 40
0.055
  1
ABC
  7
LAVA-B
 72
1
 11
0.0
 21
0.01
 31
0.0
100
AcDbAttributeDefinition
  3

  2
CLASE
 70
0
 74
2
 71
1
 72
0
 11
0.0
 21
0.01
 31
0.0
  0
ENDBLK
  5
4E
330
4C
100
AcDbEntity
  8
0
100
AcDbBlockEnd
  0
BLOCK
  5
53
330
52
100
AcDbEntity
  8
0
100
AcDbBlockBegin
  2
LAVA-DETECTOR
 70
2
 10
0.0
 20
0.0
 30
0.0
  3
LAVA-DETECTOR
  1

  0
CIRCLE
  5
55
330
52
100
AcDbEntity
  8
0
100
AcDbCircle
 10
0.0
 20
0.0
 30
0.0
 40
0.1
  0
ATTDEF
  5
56
330
52
100
AcDbEntity
  8
0
100
AcDbText
 10
0.0
 20
0.0
 30
0.0
 40
0.05
  1
DH
  7
LAVA-B
 72
1
 11
0.0
 21
0.0
 31
0.0
100
AcDbAttributeDefinition
  3

  2
TIPO
 70
0
 74
2
 71
1
 72
0
 11
0.0
 21
0.0
 31
0.0
  0
ENDBLK
  5
54
330
52
100
AcDbEntity
  8
0
100
AcDbBlockEnd
  0
BLOCK
  5
58
330
57
100
AcDbEntity
  8
0
100
AcDbBlockBegin
  2
LAVA-PULSADOR
 70
0
 10
0.0
 20
0.0
 30
0.0
  3
LAVA-PULSADOR
  1

  0
LWPOLYLINE
  5
5A
330
57
100
AcDbEntity
  8
0
100
AcDbPolyline
 90
4
 70
1
 10
-0.09
 20
-0.09
 10
0.09
 20
-0.09
 10
0.09
 20
0.09
 10
-0.09
 20
0.09
  0
TEXT
  5
5B
330
57
100
AcDbEntity
  8
0
100
AcDbText
 10
0.0
 20
0.0
 30
0.0
 40
0.06
  1
PM
  7
LAVA-B
 72
1
 11
0.0
 21
0.0
 31
0.0
100
AcDbText
 73
2
  0
ENDBLK
  5
59
330
57
100
AcDbEntity
  8
0
100
AcDbBlockEnd
  0
BLOCK
  5
5D
330
5C
100
AcDbEntity
  8
0
100
AcDbBlockBegin
  2
LAVA-VALVULA
 70
0
 10
0.0
 20
0.0
 30
0.0
  3
LAVA-VALVULA
  1

  0
LWPOLYLINE
  5
5F
330
5C
100
AcDbEntity
  8
0
100
AcDbPolyline
 90
4
 70
1
 10
-0.08
 20
-0.05
 10
0.08
 20
0.05
 10
0.08
 20
-0.05
 10
-0.08
 20
0.05
  0
ENDBLK
  5
5E
330
5C
100
AcDbEntity
  8
0
100
AcDbBlockEnd
  0
BLOCK
  5
61
330
60
100
AcDbEntity
  8
0
100
AcDbBlockBegin
  2
LAVA-SOLENOIDE
 70
0
 10
0.0
 20
0.0
 30
0.0
  3
LAVA-SOLENOIDE
  1

  0
LWPOLYLINE
  5
63
330
60
100
AcDbEntity
  8
0
100
AcDbPolyline
 90
4
 70
1
 10
-0.08
 20
-0.05
 10
0.08
 20
0.05
 10
0.08
 20
-0.05
 10
-0.08
 20
0.05
  0
LINE
  5
64
330
60
100
AcDbEntity
  8
0
100
AcDbLine
 10
0.0
 20
0.0
 30
0.0
 11
0.0
 21
0.1
 31
0.0
  0
LWPOLYLINE
  5
65
330
60
100
AcDbEntity
  8
0
100
AcDbPolyline
 90
4
 70
1
 10
-0.045
 20
0.1
 10
0.045
 20
0.1
 10
0.045
 20
0.17
 10
-0.045
 20
0.17
  0
ENDBLK
  5
62
330
60
100
AcDbEntity
  8
0
100
AcDbBlockEnd
  0
BLOCK
  5
67
330
66
100
AcDbEntity
  8
0
100
AcDbBlockBegin
  2
LAVA-DIFUSOR
 70
0
 10
0.0
 20
0.0
 30
0.0
  3
LAVA-DIFUSOR
  1

  0
LWPOLYLINE
  5
69
330
66
100
AcDbEntity
  8
0
100
AcDbPolyline
 90
4
 70
1
 10
-0.2
 20
-0.2
 10
0.2
 20
-0.2
 10
0.2
 20
0.2
 10
-0.2
 20
0.2
  0
LWPOLYLINE
  5
6A
330
66
100
AcDbEntity
  8
0
100
AcDbPolyline
 90
4
 70
1
 10
-0.11
 20
-0.11
 10
0.11
 20
-0.11
 10
0.11
 20
0.11
 10
-0.11
 20
0.11
  0
LINE
  5
6B
330
66
100
AcDbEntity
  8
0
100
AcDbLine
 10
-0.2
 20
0.2
 30
0.0
 11
0.2
 21
-0.2
 31
0.0
  0
LINE
  5
6C
330
66
100
AcDbEntity
  8
0
100
AcDbLine
 10
-0.2
 20
-0.2
 30
0.0
 11
0.2
 21
0.2
 31
0.0
  0
ENDBLK
  5
68
330
66
100
AcDbEntity
  8
0
100
AcDbBlockEnd
  0
BLOCK
  5
6E
330
6D
100
AcDbEntity
  8
0
100
AcDbBlockBegin
  2
LAVA-DUCTO-V
 70
0
 10
0.0
 20
0.0
 30
0.0
  3
LAVA-DUCTO-V
  1

  0
CIRCLE
  5
70
330
6D
100
AcDbEntity
  8
0
100
AcDbCircle
 10
0.0
 20
0.0
 30
0.0
 40
0.13
  0
LINE
  5
71
330
6D
100
AcDbEntity
  8
0
100
AcDbLine
 10
-0.092
 20
0.092
 30
0.0
 11
0.092
 21
-0.092
 31
0.0
  0
LINE
  5
72
330
6D
100
AcDbEntity
  8
0
100
AcDbLine
 10
-0.092
 20
-0.092
 30
0.0
 11
0.092
 21
0.092
 31
0.0
  0
ENDBLK
  5
6F
330
6D
100
AcDbEntity
  8
0
100
AcDbBlockEnd
  0
BLOCK
  5
74
330
73
100
AcDbEntity
  8
0
100
AcDbBlockBegin
  2
LAVA-DESAGUE
 70
0
 10
0.0
 20
0.0
 30
0.0
  3
LAVA-DESAGUE
  1

  0
CIRCLE
  5
76
330
73
100
AcDbEntity
  8
0
100
AcDbCircle
 10
0.0
 20
0.0
 30
0.0
 40
0.07
  0
LINE
  5
77
330
73
100
AcDbEntity
  8
0
100
AcDbLine
 10
-0.07
 20
0.0
 30
0.0
 11
0.07
 21
0.0
 31
0.0
  0
LINE
  5
78
330
73
100
AcDbEntity
  8
0
100
AcDbLine
 10
0.0
 20
-0.07
 30
0.0
 11
0.0
 21
0.07
 31
0.0
  0
ENDBLK
  5
75
330
73
100
AcDbEntity
  8
0
100
AcDbBlockEnd
  0
BLOCK
  5
7A
330
79
100
AcDbEntity
  8
0
100
AcDbBlockBegin
  2
LAVA-EJE
 70
2
 10
0.0
 20
0.0
 30
0.0
  3
LAVA-EJE
  1

  0
CIRCLE
  5
7C
330
79
100
AcDbEntity
  8
0
100
AcDbCircle
 10
0.0
 20
0.0
 30
0.0
 40
0.2
  0
ATTDEF
  5
7D
330
79
100
AcDbEntity
  8
0
100
AcDbText
 10
0.0
 20
0.0
 30
0.0
 40
0.17
  1
A
  7
LAVA-B
 72
1
 11
0.0
 21
0.0
 31
0.0
100
AcDbAttributeDefinition
  3

  2
EJE
 70
0
 74
2
 71
1
 72
0
 11
0.0
 21
0.0
 31
0.0
  0
ENDBLK
  5
7B
330
79
100
AcDbEntity
  8
0
100
AcDbBlockEnd
  0
BLOCK
  5
7F
330
7E
100
AcDbEntity
  8
0
100
AcDbBlockBegin
  2
LAVA-ROTULO
 70
2
 10
0.0
 20
0.0
 30
0.0
  3
LAVA-ROTULO
  1

  0
LWPOLYLINE
  5
81
330
7E
100
AcDbEntity
  8
0
370
50
100
AcDbPolyline
 90
4
 70
1
 10
0.0
 20
0.0
 10
10.0
 20
0.0
 10
10.0
 20
-3.6
 10
0.0
 20
-3.6
  0
LINE
  5
82
330
7E
100
AcDbEntity
  8
0
100
AcDbLine
 10
7.0
 20
0.0
 30
0.0
 11
7.0
 21
-3.6
 31
0.0
  0
LINE
  5
83
330
7E
100
AcDbEntity
  8
0
100
AcDbLine
 10
0.0
 20
-2.55
 30
0.0
 11
7.0
 21
-2.55
 31
0.0
  0
TEXT
  5
84
330
7E
100
AcDbEntity
  8
0
100
AcDbText
 10
0.25
 20
-0.62
 30
0.0
 40
0.42
  1
LAVA
  7
LAVA-B
 11
0.25
 21
-0.62
 31
0.0
100
AcDbText
  0
TEXT
  5
85
330
7E
100
AcDbEntity
  8
0
100
AcDbText
 10
1.95
 20
-0.62
 30
0.0
 40
0.11
  1
CONTEMPORARY FIRE & BBQ
  7
LAVA-B
 11
1.95
 21
-0.62
 31
0.0
100
AcDbText
  0
ATTDEF
  5
86
330
7E
100
AcDbEntity
  8
0
100
AcDbText
 10
0.25
 20
-0.98
 30
0.0
 40
0.1
  1

  7
LAVA-B
 11
0.25
 21
-0.98
 31
0.0
100
AcDbAttributeDefinition
  3

  2
PROYECTO
 70
0
 71
1
 72
0
 11
0.25
 21
-0.98
 31
0.0
  0
ATTDEF
  5
87
330
7E
100
AcDbEntity
  8
0
100
AcDbText
 10
0.25
 20
-1.24
 30
0.0
 40
0.08
  1

  7
LAVA
 11
0.25
 21
-1.24
 31
0.0
100
AcDbAttributeDefinition
  3

  2
UBICACION
 70
0
 71
1
 72
0
 11
0.25
 21
-1.24
 31
0.0
  0
ATTDEF
  5
88
330
7E
100
AcDbEntity
  8
0
100
AcDbText
 10
0.25
 20
-1.62
 30
0.0
 40
0.15
  1

  7
LAVA-B
 11
0.25
 21
-1.62
 31
0.0
100
AcDbAttributeDefinition
  3

  2
DOCUMENTO
 70
0
 71
1
 72
0
 11
0.25
 21
-1.62
 31
0.0
  0
ATTDEF
  5
89
330
7E
100
AcDbEntity
  8
0
100
AcDbText
 10
0.25
 20
-1.95
 30
0.0
 40
0.085
  1

  7
LAVA-B
 11
0.25
 21
-1.95
 31
0.0
100
AcDbAttributeDefinition
  3

  2
ESTADO
 70
0
 71
1
 72
0
 11
0.25
 21
-1.95
 31
0.0
  0
ATTDEF
  5
8A
330
7E
100
AcDbEntity
  8
0
100
AcDbText
 10
0.25
 20
-2.2
 30
0.0
 40
0.075
  1

  7
LAVA
 11
0.25
 21
-2.2
 31
0.0
100
AcDbAttributeDefinition
  3

  2
NOTA
 70
0
 71
1
 72
0
 11
0.25
 21
-2.2
 31
0.0
  0
ATTDEF
  5
8B
330
7E
100
AcDbEntity
  8
0
100
AcDbText
 10
0.25
 20
-2.85
 30
0.0
 40
0.075
  1

  7
LAVA
 11
0.25
 21
-2.85
 31
0.0
100
AcDbAttributeDefinition
  3

  2
ESCALA
 70
0
 71
1
 72
0
 11
0.25
 21
-2.85
 31
0.0
  0
ATTDEF
  5
8C
330
7E
100
AcDbEntity
  8
0
100
AcDbText
 10
0.25
 20
-3.1
 30
0.0
 40
0.075
  1

  7
LAVA
 11
0.25
 21
-3.1
 31
0.0
100
AcDbAttributeDefinition
  3

  2
VERSION
 70
0
 71
1
 72
0
 11
0.25
 21
-3.1
 31
0.0
  0
ATTDEF
  5
8D
330
7E
100
AcDbEntity
  8
0
100
AcDbText
 10
0.25
 20
-3.35
 30
0.0
 40
0.075
  1

  7
LAVA
 11
0.25
 21
-3.35
 31
0.0
100
AcDbAttributeDefinition
  3

  2
ARCHIVO
 70
0
 71
1
 72
0
 11
0.25
 21
-3.35
 31
0.0
  0
TEXT
  5
8E
330
7E
100
AcDbEntity
  8
0
100
AcDbText
 10
7.2
 20
-0.35
 30
0.0
 40
0.08
  1
PROFESIONAL RESPONSABLE (CFIA)
  7
LAVA-B
 11
7.2
 21
-0.35
 31
0.0
100
AcDbText
  0
ATTDEF
  5
8F
330
7E
100
AcDbEntity
  8
0
100
AcDbText
 10
7.2
 20
-0.75
 30
0.0
 40
0.075
  1
Nombre: ________________
  7
LAVA
 11
7.2
 21
-0.75
 31
0.0
100
AcDbAttributeDefinition
  3

  2
PROFESIONAL
 70
0
 71
1
 72
0
 11
7.2
 21
-0.75
 31
0.0
  0
ATTDEF
  5
90
330
7E
100
AcDbEntity
  8
0
100
AcDbText
 10
7.2
 20
-1.05
 30
0.0
 40
0.075
  1
Carné CFIA: __________
  7
LAVA
 11
7.2
 21
-1.05
 31
0.0
100
AcDbAttributeDefinition
  3

  2
CARNE_CFIA
 70
0
 71
1
 72
0
 11
7.2
 21
-1.05
 31
0.0
  0
ATTDEF
  5
91
330
7E
100
AcDbEntity
  8
0
100
AcDbText
 10
7.2
 20
-1.35
 30
0.0
 40
0.075
  1
Disciplina: arquitectura
  7
LAVA
 11
7.2
 21
-1.35
 31
0.0
100
AcDbAttributeDefinition
  3

  2
DISCIPLINA
 70
0
 71
1
 72
0
 11
7.2
 21
-1.35
 31
0.0
  0
TEXT
  5
92
330
7E
100
AcDbEntity
  8
0
100
AcDbText
 10
7.2
 20
-1.75
 30
0.0
 40
0.075
  1
Firma / sello:
  7
LAVA
 11
7.2
 21
-1.75
 31
0.0
100
AcDbText
  0
LWPOLYLINE
  5
93
330
7E
100
AcDbEntity
  8
0
  6
LAVA_FINO
100
AcDbPolyline
 90
4
 70
1
 10
7.2
 20
-1.9
 10
9.8
 20
-1.9
 10
9.8
 20
-3.35
 10
7.2
 20
-3.35
  0
ENDBLK
  5
80
330
7E
100
AcDbEntity
  8
0
100
AcDbBlockEnd
  0
BLOCK
  5
AD
330
AC
100
AcDbEntity
  8
0
100
AcDbBlockBegin
  2
*D1
 70
1
 10
0.0
 20
0.0
 30
0.0
  3
*D1
  1

  0
LINE
  5
AF
330
AC
100
AcDbEntity
  8
0
100
AcDbLine
 10
0.0
 20
2.25
 30
0.0
 11
0.0
 21
1.9199999999999997
 31
0.0
  0
LINE
  5
B0
330
AC
100
AcDbEntity
  8
0
100
AcDbLine
 10
7.8
 20
2.25
 30
0.0
 11
7.8
 21
1.9199999999999997
 31
0.0
  0
INSERT
  5
B1
330
AC
100
AcDbEntity
  8
A-COTA
100
AcDbBlockReference
  2
_ARCHTICK
 10
0.0
 20
1.9799999999999998
 30
0.0
 41
0.06
 42
0.06
 50
180.0
  0
INSERT
  5
B3
330
AC
100
AcDbEntity
  8
A-COTA
100
AcDbBlockReference
  2
_ARCHTICK
 10
7.8
 20
1.9799999999999998
 30
0.0
 41
0.06
 42
0.06
  0
LINE
  5
B5
330
AC
100
AcDbEntity
  8
0
100
AcDbLine
 10
-0.05
 20
1.9799999999999998
 30
0.0
 11
7.85
 21
1.9799999999999998
 31
0.0
  0
MTEXT
  5
B6
330
AC
100
AcDbEntity
  8
A-COTA
100
AcDbMText
 10
3.9
 20
2.0424999999999995
 30
0.0
 40
0.075
 71
5
  1
7.80
  7
LAVA
  0
POINT
  5
B7
330
AC
100
AcDbEntity
  8
Defpoints
100
AcDbPoint
 10
0.0
 20
1.9799999999999998
 30
0.0
  0
POINT
  5
B8
330
AC
100
AcDbEntity
  8
Defpoints
100
AcDbPoint
 10
0.0
 20
2.28
 30
0.0
  0
POINT
  5
B9
330
AC
100
AcDbEntity
  8
Defpoints
100
AcDbPoint
 10
7.8
 20
2.28
 30
0.0
  0
ENDBLK
  5
AE
330
AC
100
AcDbEntity
  8
0
100
AcDbBlockEnd
  0
BLOCK
  5
BC
330
BB
100
AcDbEntity
  8
0
100
AcDbBlockBegin
  2
*D2
 70
1
 10
0.0
 20
0.0
 30
0.0
  3
*D2
  1

  0
LINE
  5
BE
330
BB
100
AcDbEntity
  8
0
100
AcDbLine
 10
7.8
 20
2.25
 30
0.0
 11
7.8
 21
1.9199999999999997
 31
0.0
  0
LINE
  5
BF
330
BB
100
AcDbEntity
  8
0
100
AcDbLine
 10
16.3
 20
2.25
 30
0.0
 11
16.3
 21
1.9199999999999997
 31
0.0
  0
INSERT
  5
C0
330
BB
100
AcDbEntity
  8
A-COTA
100
AcDbBlockReference
  2
_ARCHTICK
 10
7.8
 20
1.9799999999999998
 30
0.0
 41
0.06
 42
0.06
 50
180.0
  0
INSERT
  5
C2
330
BB
100
AcDbEntity
  8
A-COTA
100
AcDbBlockReference
  2
_ARCHTICK
 10
16.3
 20
1.9799999999999998
 30
0.0
 41
0.06
 42
0.06
  0
LINE
  5
C4
330
BB
100
AcDbEntity
  8
0
100
AcDbLine
 10
7.75
 20
1.9799999999999998
 30
0.0
 11
16.35
 21
1.9799999999999998
 31
0.0
  0
MTEXT
  5
C5
330
BB
100
AcDbEntity
  8
A-COTA
100
AcDbMText
 10
12.05
 20
2.0424999999999995
 30
0.0
 40
0.075
 71
5
  1
8.50
  7
LAVA
  0
POINT
  5
C6
330
BB
100
AcDbEntity
  8
Defpoints
100
AcDbPoint
 10
7.8
 20
1.9799999999999998
 30
0.0
  0
POINT
  5
C7
330
BB
100
AcDbEntity
  8
Defpoints
100
AcDbPoint
 10
7.8
 20
2.28
 30
0.0
  0
POINT
  5
C8
330
BB
100
AcDbEntity
  8
Defpoints
100
AcDbPoint
 10
16.3
 20
2.28
 30
0.0
  0
ENDBLK
  5
BD
330
BB
100
AcDbEntity
  8
0
100
AcDbBlockEnd
  0
BLOCK
  5
148
330
147
100
AcDbEntity
  8
0
100
AcDbBlockBegin
  2
*D3
 70
1
 10
0.0
 20
0.0
 30
0.0
  3
*D3
  1

  0
LINE
  5
14A
330
147
100
AcDbEntity
  8
0
100
AcDbLine
 10
-0.085
 20
-0.08600000000000001
 30
0.0
 11
-0.085
 21
1.78
 31
0.0
  0
LINE
  5
14B
330
147
100
AcDbEntity
  8
0
100
AcDbLine
 10
16.285
 20
-0.08600000000000001
 30
0.0
 11
16.285
 21
1.78
 31
0.0
  0
INSERT
  5
14C
330
147
100
AcDbEntity
  8
A-COTA
100
AcDbBlockReference
  2
_ARCHTICK
 10
-0.085
 20
1.72
 30
0.0
 41
0.06
 42
0.06
 50
180.0
  0
INSERT
  5
14E
330
147
100
AcDbEntity
  8
A-COTA
100
AcDbBlockReference
  2
_ARCHTICK
 10
16.285
 20
1.72
 30
0.0
 41
0.06
 42
0.06
  0
LINE
  5
150
330
147
100
AcDbEntity
  8
0
100
AcDbLine
 10
-0.135
 20
1.72
 30
0.0
 11
16.335
 21
1.72
 31
0.0
  0
MTEXT
  5
151
330
147
100
AcDbEntity
  8
A-COTA
100
AcDbMText
 10
8.1
 20
1.7825
 30
0.0
 40
0.075
 71
5
  1
16.37 interior
  7
LAVA
  0
POINT
  5
152
330
147
100
AcDbEntity
  8
Defpoints
100
AcDbPoint
 10
-0.085
 20
1.72
 30
0.0
  0
POINT
  5
153
330
147
100
AcDbEntity
  8
Defpoints
100
AcDbPoint
 10
-0.085
 20
-0.116
 30
0.0
  0
POINT
  5
154
330
147
100
AcDbEntity
  8
Defpoints
100
AcDbPoint
 10
16.285
 20
-0.116
 30
0.0
  0
ENDBLK
  5
149
330
147
100
AcDbEntity
  8
0
100
AcDbBlockEnd
  0
BLOCK
  5
157
330
156
100
AcDbEntity
  8
0
100
AcDbBlockBegin
  2
*D4
 70
1
 10
0.0
 20
0.0
 30
0.0
  3
*D4
  1

  0
LINE
  5
159
330
156
100
AcDbEntity
  8
0
100
AcDbLine
 10
-0.085
 20
0.594
 30
0.0
 11
-0.085
 21
1.51
 31
0.0
  0
LINE
  5
15A
330
156
100
AcDbEntity
  8
0
100
AcDbLine
 10
6.298
 20
0.03
 30
0.0
 11
6.298
 21
1.51
 31
0.0
  0
INSERT
  5
15B
330
156
100
AcDbEntity
  8
A-COTA
100
AcDbBlockReference
  2
_ARCHTICK
 10
-0.085
 20
1.45
 30
0.0
 41
0.06
 42
0.06
 50
180.0
  0
INSERT
  5
15D
330
156
100
AcDbEntity
  8
A-COTA
100
AcDbBlockReference
  2
_ARCHTICK
 10
6.298
 20
1.45
 30
0.0
 41
0.06
 42
0.06
  0
LINE
  5
15F
330
156
100
AcDbEntity
  8
0
100
AcDbLine
 10
-0.135
 20
1.45
 30
0.0
 11
6.348
 21
1.45
 31
0.0
  0
MTEXT
  5
160
330
156
100
AcDbEntity
  8
A-COTA
100
AcDbMText
 10
3.1065
 20
1.5125
 30
0.0
 40
0.075
 71
5
  1
6.38 cocina Marna’s
  7
LAVA
  0
POINT
  5
161
330
156
100
AcDbEntity
  8
Defpoints
100
AcDbPoint
 10
-0.085
 20
1.45
 30
0.0
  0
POINT
  5
162
330
156
100
AcDbEntity
  8
Defpoints
100
AcDbPoint
 10
-0.085
 20
0.564
 30
0.0
  0
POINT
  5
163
330
156
100
AcDbEntity
  8
Defpoints
100
AcDbPoint
 10
6.298
 20
-0.0
 30
0.0
  0
ENDBLK
  5
158
330
156
100
AcDbEntity
  8
0
100
AcDbBlockEnd
  0
BLOCK
  5
166
330
165
100
AcDbEntity
  8
0
100
AcDbBlockBegin
  2
*D5
 70
1
 10
0.0
 20
0.0
 30
0.0
  3
*D5
  1

  0
LINE
  5
168
330
165
100
AcDbEntity
  8
0
100
AcDbLine
 10
6.398
 20
0.03
 30
0.0
 11
6.398
 21
1.51
 31
0.0
  0
LINE
  5
169
330
165
100
AcDbEntity
  8
0
100
AcDbLine
 10
16.285
 20
-0.27
 30
0.0
 11
16.285
 21
1.51
 31
0.0
  0
INSERT
  5
16A
330
165
100
AcDbEntity
  8
A-COTA
100
AcDbBlockReference
  2
_ARCHTICK
 10
6.398
 20
1.45
 30
0.0
 41
0.06
 42
0.06
 50
180.0
  0
INSERT
  5
16C
330
165
100
AcDbEntity
  8
A-COTA
100
AcDbBlockReference
  2
_ARCHTICK
 10
16.285
 20
1.45
 30
0.0
 41
0.06
 42
0.06
  0
LINE
  5
16E
330
165
100
AcDbEntity
  8
0
100
AcDbLine
 10
6.348
 20
1.45
 30
0.0
 11
16.335
 21
1.45
 31
0.0
  0
MTEXT
  5
16F
330
165
100
AcDbEntity
  8
A-COTA
100
AcDbMText
 10
11.3415
 20
1.5125
 30
0.0
 40
0.075
 71
5
  1
9.89 salón Marna’s
  7
LAVA
  0
POINT
  5
170
330
165
100
AcDbEntity
  8
Defpoints
100
AcDbPoint
 10
6.398
 20
1.45
 30
0.0
  0
POINT
  5
171
330
165
100
AcDbEntity
  8
Defpoints
100
AcDbPoint
 10
6.398
 20
-0.0
 30
0.0
  0
POINT
  5
172
330
165
100
AcDbEntity
  8
Defpoints
100
AcDbPoint
 10
16.285
 20
-0.3
 30
0.0
  0
ENDBLK
  5
167
330
165
100
AcDbEntity
  8
0
100
AcDbBlockEnd
  0
BLOCK
  5
175
330
174
100
AcDbEntity
  8
0
100
AcDbBlockBegin
  2
*D6
 70
1
 10
0.0
 20
0.0
 30
0.0
  3
*D6
  1

  0
LINE
  5
177
330
174
100
AcDbEntity
  8
0
100
AcDbLine
 10
16.315
 20
-0.3
 30
0.0
 11
17.009999999999998
 21
-0.3
 31
0.0
  0
LINE
  5
178
330
174
100
AcDbEntity
  8
0
100
AcDbLine
 10
16.315
 20
-1.643
 30
0.0
 11
17.009999999999998
 21
-1.643
 31
0.0
  0
INSERT
  5
179
330
174
100
AcDbEntity
  8
A-COTA
100
AcDbBlockReference
  2
_ARCHTICK
 10
16.95
 20
-0.3
 30
0.0
 41
0.06
 42
0.06
 50
270.0
  0
INSERT
  5
17B
330
174
100
AcDbEntity
  8
A-COTA
100
AcDbBlockReference
  2
_ARCHTICK
 10
16.95
 20
-1.643
 30
0.0
 41
0.06
 42
0.06
 50
90.0
  0
LINE
  5
17D
330
174
100
AcDbEntity
  8
0
100
AcDbLine
 10
16.95
 20
-0.25
 30
0.0
 11
16.95
 21
-1.693
 31
0.0
  0
MTEXT
  5
17E
330
174
100
AcDbEntity
  8
A-COTA
100
AcDbMText
 10
17.0125
 20
-0.9715
 30
0.0
 40
0.075
 71
5
  1
1.34
  7
LAVA
 50
90.0
  0
POINT
  5
17F
330
174
100
AcDbEntity
  8
Defpoints
100
AcDbPoint
 10
16.95
 20
-0.3
 30
0.0
  0
POINT
  5
180
330
174
100
AcDbEntity
  8
Defpoints
100
AcDbPoint
 10
16.285
 20
-0.3
 30
0.0
  0
POINT
  5
181
330
174
100
AcDbEntity
  8
Defpoints
100
AcDbPoint
 10
16.285
 20
-1.643
 30
0.0
  0
ENDBLK
  5
176
330
174
100
AcDbEntity
  8
0
100
AcDbBlockEnd
  0
BLOCK
  5
184
330
183
100
AcDbEntity
  8
0
100
AcDbBlockBegin
  2
*D7
 70
1
 10
0.0
 20
0.0
 30
0.0
  3
*D7
  1

  0
LINE
  5
186
330
183
100
AcDbEntity
  8
0
100
AcDbLine
 10
16.315
 20
-1.643
 30
0.0
 11
17.009999999999998
 21
-1.643
 31
0.0
  0
LINE
  5
187
330
183
100
AcDbEntity
  8
0
100
AcDbLine
 10
16.315
 20
-3.643
 30
0.0
 11
17.009999999999998
 21
-3.643
 31
0.0
  0
INSERT
  5
188
330
183
100
AcDbEntity
  8
A-COTA
100
AcDbBlockReference
  2
_ARCHTICK
 10
16.95
 20
-1.643
 30
0.0
 41
0.06
 42
0.06
 50
270.0
  0
INSERT
  5
18A
330
183
100
AcDbEntity
  8
A-COTA
100
AcDbBlockReference
  2
_ARCHTICK
 10
16.95
 20
-3.643
 30
0.0
 41
0.06
 42
0.06
 50
90.0
  0
LINE
  5
18C
330
183
100
AcDbEntity
  8
0
100
AcDbLine
 10
16.95
 20
-1.593
 30
0.0
 11
16.95
 21
-3.6929999999999996
 31
0.0
  0
MTEXT
  5
18D
330
183
100
AcDbEntity
  8
A-COTA
100
AcDbMText
 10
17.0125
 20
-2.643
 30
0.0
 40
0.075
 71
5
  1
2.00
  7
LAVA
 50
90.0
  0
POINT
  5
18E
330
183
100
AcDbEntity
  8
Defpoints
100
AcDbPoint
 10
16.95
 20
-1.643
 30
0.0
  0
POINT
  5
18F
330
183
100
AcDbEntity
  8
Defpoints
100
AcDbPoint
 10
16.285
 20
-1.643
 30
0.0
  0
POINT
  5
190
330
183
100
AcDbEntity
  8
Defpoints
100
AcDbPoint
 10
16.285
 20
-3.643
 30
0.0
  0
ENDBLK
  5
185
330
183
100
AcDbEntity
  8
0
100
AcDbBlockEnd
  0
BLOCK
  5
193
330
192
100
AcDbEntity
  8
0
100
AcDbBlockBegin
  2
*D8
 70
1
 10
0.0
 20
0.0
 30
0.0
  3
*D8
  1

  0
LINE
  5
195
330
192
100
AcDbEntity
  8
0
100
AcDbLine
 10
16.315
 20
-3.643
 30
0.0
 11
17.009999999999998
 21
-3.643
 31
0.0
  0
LINE
  5
196
330
192
100
AcDbEntity
  8
0
100
AcDbLine
 10
16.315
 20
-4.986
 30
0.0
 11
17.009999999999998
 21
-4.986
 31
0.0
  0
INSERT
  5
197
330
192
100
AcDbEntity
  8
A-COTA
100
AcDbBlockReference
  2
_ARCHTICK
 10
16.95
 20
-3.643
 30
0.0
 41
0.06
 42
0.06
 50
270.0
  0
INSERT
  5
199
330
192
100
AcDbEntity
  8
A-COTA
100
AcDbBlockReference
  2
_ARCHTICK
 10
16.95
 20
-4.986
 30
0.0
 41
0.06
 42
0.06
 50
90.0
  0
LINE
  5
19B
330
192
100
AcDbEntity
  8
0
100
AcDbLine
 10
16.95
 20
-3.593
 30
0.0
 11
16.95
 21
-5.036
 31
0.0
  0
MTEXT
  5
19C
330
192
100
AcDbEntity
  8
A-COTA
100
AcDbMText
 10
17.0125
 20
-4.3145
 30
0.0
 40
0.075
 71
5
  1
1.34
  7
LAVA
 50
90.0
  0
POINT
  5
19D
330
192
100
AcDbEntity
  8
Defpoints
100
AcDbPoint
 10
16.95
 20
-3.643
 30
0.0
  0
POINT
  5
19E
330
192
100
AcDbEntity
  8
Defpoints
100
AcDbPoint
 10
16.285
 20
-3.643
 30
0.0
  0
POINT
  5
19F
330
192
100
AcDbEntity
  8
Defpoints
100
AcDbPoint
 10
16.285
 20
-4.986
 30
0.0
  0
ENDBLK
  5
194
330
192
100
AcDbEntity
  8
0
100
AcDbBlockEnd
  0
BLOCK
  5
1A2
330
1A1
100
AcDbEntity
  8
0
100
AcDbBlockBegin
  2
*D9
 70
1
 10
0.0
 20
0.0
 30
0.0
  3
*D9
  1

  0
LINE
  5
1A4
330
1A1
100
AcDbEntity
  8
0
100
AcDbLine
 10
16.315
 20
-0.116
 30
0.0
 11
17.38
 21
-0.116
 31
0.0
  0
LINE
  5
1A5
330
1A1
100
AcDbEntity
  8
0
100
AcDbLine
 10
16.315
 20
-4.986
 30
0.0
 11
17.38
 21
-4.986
 31
0.0
  0
INSERT
  5
1A6
330
1A1
100
AcDbEntity
  8
A-COTA
100
AcDbBlockReference
  2
_ARCHTICK
 10
17.32
 20
-0.116
 30
0.0
 41
0.06
 42
0.06
 50
270.0
  0
INSERT
  5
1A8
330
1A1
100
AcDbEntity
  8
A-COTA
100
AcDbBlockReference
  2
_ARCHTICK
 10
17.32
 20
-4.986
 30
0.0
 41
0.06
 42
0.06
 50
90.0
  0
LINE
  5
1AA
330
1A1
100
AcDbEntity
  8
0
100
AcDbLine
 10
17.32
 20
-0.066
 30
0.0
 11
17.32
 21
-5.036
 31
0.0
  0
MTEXT
  5
1AB
330
1A1
100
AcDbEntity
  8
A-COTA
100
AcDbMText
 10
17.3825
 20
-2.551
 30
0.0
 40
0.075
 71
5
  1
4.87 interior
  7
LAVA
 50
90.0
  0
POINT
  5
1AC
330
1A1
100
AcDbEntity
  8
Defpoints
100
AcDbPoint
 10
17.32
 20
-0.116
 30
0.0
  0
POINT
  5
1AD
330
1A1
100
AcDbEntity
  8
Defpoints
100
AcDbPoint
 10
16.285
 20
-0.116
 30
0.0
  0
POINT
  5
1AE
330
1A1
100
AcDbEntity
  8
Defpoints
100
AcDbPoint
 10
16.285
 20
-4.986
 30
0.0
  0
ENDBLK
  5
1A3
330
1A1
100
AcDbEntity
  8
0
100
AcDbBlockEnd
  0
BLOCK
  5
1B1
330
1B0
100
AcDbEntity
  8
0
100
AcDbBlockBegin
  2
*D10
 70
1
 10
0.0
 20
0.0
 30
0.0
  3
*D10
  1

  0
LINE
  5
1B3
330
1B0
100
AcDbEntity
  8
0
100
AcDbLine
 10
0.0
 20
-11.645999999999999
 30
0.0
 11
0.0
 21
-12.14
 31
0.0
  0
LINE
  5
1B4
330
1B0
100
AcDbEntity
  8
0
100
AcDbLine
 10
1.365
 20
-11.645999999999999
 30
0.0
 11
1.365
 21
-12.14
 31
0.0
  0
INSERT
  5
1B5
330
1B0
100
AcDbEntity
  8
A-COTA
100
AcDbBlockReference
  2
_ARCHTICK
 10
0.0
 20
-12.08
 30
0.0
 41
0.06
 42
0.06
 50
180.0
  0
INSERT
  5
1B7
330
1B0
100
AcDbEntity
  8
A-COTA
100
AcDbBlockReference
  2
_ARCHTICK
 10
1.365
 20
-12.08
 30
0.0
 41
0.06
 42
0.06
  0
LINE
  5
1B9
330
1B0
100
AcDbEntity
  8
0
100
AcDbLine
 10
-0.049999999999999996
 20
-12.08
 30
0.0
 11
1.415
 21
-12.08
 31
0.0
  0
MTEXT
  5
1BA
330
1B0
100
AcDbEntity
  8
A-COTA
100
AcDbMText
 10
0.6825
 20
-12.0175
 30
0.0
 40
0.075
 71
5
  1
1.36
  7
LAVA
  0
POINT
  5
1BB
330
1B0
100
AcDbEntity
  8
Defpoints
100
AcDbPoint
 10
0.0
 20
-12.08
 30
0.0
  0
POINT
  5
1BC
330
1B0
100
AcDbEntity
  8
Defpoints
100
AcDbPoint
 10
0.0
 20
-11.616
 30
0.0
  0
POINT
  5
1BD
330
1B0
100
AcDbEntity
  8
Defpoints
100
AcDbPoint
 10
1.365
 20
-11.616
 30
0.0
  0
ENDBLK
  5
1B2
330
1B0
100
AcDbEntity
  8
0
100
AcDbBlockEnd
  0
BLOCK
  5
1C0
330
1BF
100
AcDbEntity
  8
0
100
AcDbBlockBegin
  2
*D11
 70
1
 10
0.0
 20
0.0
 30
0.0
  3
*D11
  1

  0
LINE
  5
1C2
330
1BF
100
AcDbEntity
  8
0
100
AcDbLine
 10
1.365
 20
-11.645999999999999
 30
0.0
 11
1.365
 21
-12.14
 31
0.0
  0
LINE
  5
1C3
330
1BF
100
AcDbEntity
  8
0
100
AcDbLine
 10
3.365
 20
-11.645999999999999
 30
0.0
 11
3.365
 21
-12.14
 31
0.0
  0
INSERT
  5
1C4
330
1BF
100
AcDbEntity
  8
A-COTA
100
AcDbBlockReference
  2
_ARCHTICK
 10
1.365
 20
-12.08
 30
0.0
 41
0.06
 42
0.06
 50
180.0
  0
INSERT
  5
1C6
330
1BF
100
AcDbEntity
  8
A-COTA
100
AcDbBlockReference
  2
_ARCHTICK
 10
3.365
 20
-12.08
 30
0.0
 41
0.06
 42
0.06
  0
LINE
  5
1C8
330
1BF
100
AcDbEntity
  8
0
100
AcDbLine
 10
1.315
 20
-12.08
 30
0.0
 11
3.415
 21
-12.08
 31
0.0
  0
MTEXT
  5
1C9
330
1BF
100
AcDbEntity
  8
A-COTA
100
AcDbMText
 10
2.365
 20
-12.0175
 30
0.0
 40
0.075
 71
5
  1
2.00
  7
LAVA
  0
POINT
  5
1CA
330
1BF
100
AcDbEntity
  8
Defpoints
100
AcDbPoint
 10
1.365
 20
-12.08
 30
0.0
  0
POINT
  5
1CB
330
1BF
100
AcDbEntity
  8
Defpoints
100
AcDbPoint
 10
1.365
 20
-11.616
 30
0.0
  0
POINT
  5
1CC
330
1BF
100
AcDbEntity
  8
Defpoints
100
AcDbPoint
 10
3.365
 20
-11.616
 30
0.0
  0
ENDBLK
  5
1C1
330
1BF
100
AcDbEntity
  8
0
100
AcDbBlockEnd
  0
BLOCK
  5
1CF
330
1CE
100
AcDbEntity
  8
0
100
AcDbBlockBegin
  2
*D12
 70
1
 10
0.0
 20
0.0
 30
0.0
  3
*D12
  1

  0
LINE
  5
1D1
330
1CE
100
AcDbEntity
  8
0
100
AcDbLine
 10
3.365
 20
-11.645999999999999
 30
0.0
 11
3.365
 21
-12.14
 31
0.0
  0
LINE
  5
1D2
330
1CE
100
AcDbEntity
  8
0
100
AcDbLine
 10
4.51
 20
-11.645999999999999
 30
0.0
 11
4.51
 21
-12.14
 31
0.0
  0
INSERT
  5
1D3
330
1CE
100
AcDbEntity
  8
A-COTA
100
AcDbBlockReference
  2
_ARCHTICK
 10
3.365
 20
-12.08
 30
0.0
 41
0.06
 42
0.06
 50
180.0
  0
INSERT
  5
1D5
330
1CE
100
AcDbEntity
  8
A-COTA
100
AcDbBlockReference
  2
_ARCHTICK
 10
4.51
 20
-12.08
 30
0.0
 41
0.06
 42
0.06
  0
LINE
  5
1D7
330
1CE
100
AcDbEntity
  8
0
100
AcDbLine
 10
3.3150000000000004
 20
-12.08
 30
0.0
 11
4.56
 21
-12.08
 31
0.0
  0
MTEXT
  5
1D8
330
1CE
100
AcDbEntity
  8
A-COTA
100
AcDbMText
 10
3.9375
 20
-12.0175
 30
0.0
 40
0.075
 71
5
  1
1.14
  7
LAVA
  0
POINT
  5
1D9
330
1CE
100
AcDbEntity
  8
Defpoints
100
AcDbPoint
 10
3.365
 20
-12.08
 30
0.0
  0
POINT
  5
1DA
330
1CE
100
AcDbEntity
  8
Defpoints
100
AcDbPoint
 10
3.365
 20
-11.616
 30
0.0
  0
POINT
  5
1DB
330
1CE
100
AcDbEntity
  8
Defpoints
100
AcDbPoint
 10
4.51
 20
-11.616
 30
0.0
  0
ENDBLK
  5
1D0
330
1CE
100
AcDbEntity
  8
0
100
AcDbBlockEnd
  0
BLOCK
  5
1DE
330
1DD
100
AcDbEntity
  8
0
100
AcDbBlockBegin
  2
*D13
 70
1
 10
0.0
 20
0.0
 30
0.0
  3
*D13
  1

  0
LINE
  5
1E0
330
1DD
100
AcDbEntity
  8
0
100
AcDbLine
 10
0.0
 20
-11.645999999999999
 30
0.0
 11
0.0
 21
-12.48
 31
0.0
  0
LINE
  5
1E1
330
1DD
100
AcDbEntity
  8
0
100
AcDbLine
 10
4.51
 20
-11.645999999999999
 30
0.0
 11
4.51
 21
-12.48
 31
0.0
  0
INSERT
  5
1E2
330
1DD
100
AcDbEntity
  8
A-COTA
100
AcDbBlockReference
  2
_ARCHTICK
 10
0.0
 20
-12.42
 30
0.0
 41
0.06
 42
0.06
 50
180.0
  0
INSERT
  5
1E4
330
1DD
100
AcDbEntity
  8
A-COTA
100
AcDbBlockReference
  2
_ARCHTICK
 10
4.51
 20
-12.42
 30
0.0
 41
0.06
 42
0.06
  0
LINE
  5
1E6
330
1DD
100
AcDbEntity
  8
0
100
AcDbLine
 10
-0.05
 20
-12.42
 30
0.0
 11
4.56
 21
-12.42
 31
0.0
  0
MTEXT
  5
1E7
330
1DD
100
AcDbEntity
  8
A-COTA
100
AcDbMText
 10
2.255
 20
-12.3575
 30
0.0
 40
0.075
 71
5
  1
4.51 ancho ala
  7
LAVA
  0
POINT
  5
1E8
330
1DD
100
AcDbEntity
  8
Defpoints
100
AcDbPoint
 10
0.0
 20
-12.42
 30
0.0
  0
POINT
  5
1E9
330
1DD
100
AcDbEntity
  8
Defpoints
100
AcDbPoint
 10
0.0
 20
-11.616
 30
0.0
  0
POINT
  5
1EA
330
1DD
100
AcDbEntity
  8
Defpoints
100
AcDbPoint
 10
4.51
 20
-11.616
 30
0.0
  0
ENDBLK
  5
1DF
330
1DD
100
AcDbEntity
  8
0
100
AcDbBlockEnd
  0
BLOCK
  5
1ED
330
1EC
100
AcDbEntity
  8
0
100
AcDbBlockBegin
  2
*D14
 70
1
 10
0.0
 20
0.0
 30
0.0
  3
*D14
  1

  0
LINE
  5
1EF
330
1EC
100
AcDbEntity
  8
0
100
AcDbLine
 10
-0.115
 20
-4.986
 30
0.0
 11
-1.26
 21
-4.986
 31
0.0
  0
LINE
  5
1F0
330
1EC
100
AcDbEntity
  8
0
100
AcDbLine
 10
-0.115
 20
-11.486
 30
0.0
 11
-1.26
 21
-11.486
 31
0.0
  0
INSERT
  5
1F1
330
1EC
100
AcDbEntity
  8
A-COTA
100
AcDbBlockReference
  2
_ARCHTICK
 10
-1.2
 20
-4.986
 30
0.0
 41
0.06
 42
0.06
 50
270.0
  0
INSERT
  5
1F3
330
1EC
100
AcDbEntity
  8
A-COTA
100
AcDbBlockReference
  2
_ARCHTICK
 10
-1.2
 20
-11.486
 30
0.0
 41
0.06
 42
0.06
 50
90.0
  0
LINE
  5
1F5
330
1EC
100
AcDbEntity
  8
0
100
AcDbLine
 10
-1.2
 20
-4.936
 30
0.0
 11
-1.2
 21
-11.536000000000001
 31
0.0
  0
MTEXT
  5
1F6
330
1EC
100
AcDbEntity
  8
A-COTA
100
AcDbMText
 10
-1.1375
 20
-8.236
 30
0.0
 40
0.075
 71
5
  1
6.50 ala servicio
  7
LAVA
 50
90.0
  0
POINT
  5
1F7
330
1EC
100
AcDbEntity
  8
Defpoints
100
AcDbPoint
 10
-1.2
 20
-4.986
 30
0.0
  0
POINT
  5
1F8
330
1EC
100
AcDbEntity
  8
Defpoints
100
AcDbPoint
 10
-0.085
 20
-4.986
 30
0.0
  0
POINT
  5
1F9
330
1EC
100
AcDbEntity
  8
Defpoints
100
AcDbPoint
 10
-0.085
 20
-11.486
 30
0.0
  0
ENDBLK
  5
1EE
330
1EC
100
AcDbEntity
  8
0
100
AcDbBlockEnd
  0
ENDSEC
  0
SECTION
  2
ENTITIES
  0
LINE
  5
96
330
17
100
AcDbEntity
  8
A-EJE
100
AcDbLine
 10
0.0
 20
2.28
 30
0.0
 11
0.0
 21
-12.815
 31
0.0
  0
INSERT
  5
97
330
17
100
AcDbEntity
  8
A-EJE
100
AcDbBlockReference
 66
1
  2
LAVA-EJE
 10
0.0
 20
2.48
 30
0.0
  0
ATTRIB
  5
99
330
17
100
AcDbEntity
  8
A-EJE
100
AcDbText
 10
0.0
 20
2.48
 30
0.0
 40
0.17
  1
A
  7
LAVA-B
 72
1
 11
0.0
 21
2.48
 31
0.0
100
AcDbAttribute
  2
EJE
 70
0
 74
2
 71
1
 72
0
 11
0.0
 21
2.48
 31
0.0
  0
SEQEND
  5
98
330
97
100
AcDbEntity
  8
A-EJE
  0
LINE
  5
9A
330
17
100
AcDbEntity
  8
A-EJE
100
AcDbLine
 10
7.8
 20
2.28
 30
0.0
 11
7.8
 21
-12.815
 31
0.0
  0
INSERT
  5
9B
330
17
100
AcDbEntity
  8
A-EJE
100
AcDbBlockReference
 66
1
  2
LAVA-EJE
 10
7.8
 20
2.48
 30
0.0
  0
ATTRIB
  5
9D
330
17
100
AcDbEntity
  8
A-EJE
100
AcDbText
 10
7.8
 20
2.48
 30
0.0
 40
0.17
  1
B
  7
LAVA-B
 72
1
 11
7.8
 21
2.48
 31
0.0
100
AcDbAttribute
  2
EJE
 70
0
 74
2
 71
1
 72
0
 11
7.8
 21
2.48
 31
0.0
  0
SEQEND
  5
9C
330
9B
100
AcDbEntity
  8
A-EJE
  0
LINE
  5
9E
330
17
100
AcDbEntity
  8
A-EJE
100
AcDbLine
 10
16.3
 20
2.28
 30
0.0
 11
16.3
 21
-12.815
 31
0.0
  0
INSERT
  5
9F
330
17
100
AcDbEntity
  8
A-EJE
100
AcDbBlockReference
 66
1
  2
LAVA-EJE
 10
16.3
 20
2.48
 30
0.0
  0
ATTRIB
  5
A1
330
17
100
AcDbEntity
  8
A-EJE
100
AcDbText
 10
16.3
 20
2.48
 30
0.0
 40
0.17
  1
C
  7
LAVA-B
 72
1
 11
16.3
 21
2.48
 31
0.0
100
AcDbAttribute
  2
EJE
 70
0
 74
2
 71
1
 72
0
 11
16.3
 21
2.48
 31
0.0
  0
SEQEND
  5
A0
330
9F
100
AcDbEntity
  8
A-EJE
  0
LINE
  5
A2
330
17
100
AcDbEntity
  8
A-EJE
100
AcDbLine
 10
-2.0149999999999997
 20
-0.0
 30
0.0
 11
16.85
 21
-0.0
 31
0.0
  0
INSERT
  5
A3
330
17
100
AcDbEntity
  8
A-EJE
100
AcDbBlockReference
 66
1
  2
LAVA-EJE
 10
-2.215
 20
-0.0
 30
0.0
  0
ATTRIB
  5
A5
330
17
100
AcDbEntity
  8
A-EJE
100
AcDbText
 10
-2.215
 20
0.0
 30
0.0
 40
0.17
  1
1
  7
LAVA-B
 72
1
 11
-2.215
 21
0.0
 31
0.0
100
AcDbAttribute
  2
EJE
 70
0
 74
2
 71
1
 72
0
 11
-2.215
 21
0.0
 31
0.0
  0
SEQEND
  5
A4
330
A3
100
AcDbEntity
  8
A-EJE
  0
LINE
  5
A6
330
17
100
AcDbEntity
  8
A-EJE
100
AcDbLine
 10
-2.0149999999999997
 20
-8.5
 30
0.0
 11
16.85
 21
-8.5
 31
0.0
  0
INSERT
  5
A7
330
17
100
AcDbEntity
  8
A-EJE
100
AcDbBlockReference
 66
1
  2
LAVA-EJE
 10
-2.215
 20
-8.5
 30
0.0
  0
ATTRIB
  5
A9
330
17
100
AcDbEntity
  8
A-EJE
100
AcDbText
 10
-2.215
 20
-8.5
 30
0.0
 40
0.17
  1
2
  7
LAVA-B
 72
1
 11
-2.215
 21
-8.5
 31
0.0
100
AcDbAttribute
  2
EJE
 70
0
 74
2
 71
1
 72
0
 11
-2.215
 21
-8.5
 31
0.0
  0
SEQEND
  5
A8
330
A7
100
AcDbEntity
  8
A-EJE
  0
DIMENSION
  5
AB
330
17
100
AcDbEntity
  8
A-COTA
100
AcDbDimension
280
0
  2
*D1
  3
LAVA-50
 10
0.0
 20
1.9799999999999998
 30
0.0
 11
3.9
 21
2.0424999999999995
 31
0.0
 70
32
 71
5
  1
<>
100
AcDbAlignedDimension
 13
0.0
 23
2.28
 33
0.0
 14
7.8
 24
2.28
 34
0.0
 50
0.0
100
AcDbRotatedDimension
  0
DIMENSION
  5
BA
330
17
100
AcDbEntity
  8
A-COTA
100
AcDbDimension
280
0
  2
*D2
  3
LAVA-50
 10
7.8
 20
1.9799999999999998
 30
0.0
 11
12.05
 21
2.0424999999999995
 31
0.0
 70
32
 71
5
  1
<>
100
AcDbAlignedDimension
 13
7.8
 23
2.28
 33
0.0
 14
16.3
 24
2.28
 34
0.0
 50
0.0
100
AcDbRotatedDimension
  0
LWPOLYLINE
  5
CA
330
17
100
AcDbEntity
  8
A-ESCALERA
100
AcDbPolyline
 90
4
 70
1
 10
4.74
 20
-5.216
 10
7.81
 20
-5.216
 10
7.81
 20
-12.565
 10
4.74
 20
-12.565
  0
LINE
  5
CB
330
17
100
AcDbEntity
  8
A-ESCALERA
370
9
100
AcDbLine
 10
4.725
 20
-7.316
 30
0.0
 11
6.175
 21
-7.316
 31
0.0
  0
LINE
  5
CC
330
17
100
AcDbEntity
  8
A-ESCALERA
370
9
100
AcDbLine
 10
4.725
 20
-7.616
 30
0.0
 11
6.175
 21
-7.616
 31
0.0
  0
LINE
  5
CD
330
17
100
AcDbEntity
  8
A-ESCALERA
370
9
100
AcDbLine
 10
4.725
 20
-7.9159999999999995
 30
0.0
 11
6.175
 21
-7.9159999999999995
 31
0.0
  0
LINE
  5
CE
330
17
100
AcDbEntity
  8
A-ESCALERA
370
9
100
AcDbLine
 10
4.725
 20
-8.216
 30
0.0
 11
6.175
 21
-8.216
 31
0.0
  0
LINE
  5
CF
330
17
100
AcDbEntity
  8
A-ESCALERA
370
9
100
AcDbLine
 10
4.725
 20
-8.516
 30
0.0
 11
6.175
 21
-8.516
 31
0.0
  0
LINE
  5
D0
330
17
100
AcDbEntity
  8
A-ESCALERA
370
9
100
AcDbLine
 10
4.725
 20
-8.815999999999999
 30
0.0
 11
6.175
 21
-8.815999999999999
 31
0.0
  0
LINE
  5
D1
330
17
100
AcDbEntity
  8
A-ESCALERA
370
9
100
AcDbLine
 10
4.725
 20
-9.116
 30
0.0
 11
6.175
 21
-9.116
 31
0.0
  0
LINE
  5
D2
330
17
100
AcDbEntity
  8
A-ESCALERA
370
9
100
AcDbLine
 10
4.725
 20
-9.416
 30
0.0
 11
6.175
 21
-9.416
 31
0.0
  0
LINE
  5
D3
330
17
100
AcDbEntity
  8
A-ESCALERA
370
9
100
AcDbLine
 10
4.725
 20
-9.716
 30
0.0
 11
6.175
 21
-9.716
 31
0.0
  0
LINE
  5
D4
330
17
100
AcDbEntity
  8
A-ESCALERA
370
9
100
AcDbLine
 10
6.19
 20
-7.316
 30
0.0
 11
7.625
 21
-7.316
 31
0.0
  0
LINE
  5
D5
330
17
100
AcDbEntity
  8
A-ESCALERA
370
9
100
AcDbLine
 10
6.19
 20
-7.616
 30
0.0
 11
7.625
 21
-7.616
 31
0.0
  0
LINE
  5
D6
330
17
100
AcDbEntity
  8
A-ESCALERA
370
9
100
AcDbLine
 10
6.19
 20
-7.9159999999999995
 30
0.0
 11
7.625
 21
-7.9159999999999995
 31
0.0
  0
LINE
  5
D7
330
17
100
AcDbEntity
  8
A-ESCALERA
370
9
100
AcDbLine
 10
6.19
 20
-8.216
 30
0.0
 11
7.625
 21
-8.216
 31
0.0
  0
LINE
  5
D8
330
17
100
AcDbEntity
  8
A-ESCALERA
370
9
100
AcDbLine
 10
6.19
 20
-8.516
 30
0.0
 11
7.625
 21
-8.516
 31
0.0
  0
LINE
  5
D9
330
17
100
AcDbEntity
  8
A-ESCALERA
370
9
100
AcDbLine
 10
6.19
 20
-8.815999999999999
 30
0.0
 11
7.625
 21
-8.815999999999999
 31
0.0
  0
LINE
  5
DA
330
17
100
AcDbEntity
  8
A-ESCALERA
370
9
100
AcDbLine
 10
6.19
 20
-9.116
 30
0.0
 11
7.625
 21
-9.116
 31
0.0
  0
LINE
  5
DB
330
17
100
AcDbEntity
  8
A-ESCALERA
370
9
100
AcDbLine
 10
6.19
 20
-9.416
 30
0.0
 11
7.625
 21
-9.416
 31
0.0
  0
LINE
  5
DC
330
17
100
AcDbEntity
  8
A-ESCALERA
370
9
100
AcDbLine
 10
6.19
 20
-9.716
 30
0.0
 11
7.625
 21
-9.716
 31
0.0
  0
TEXT
  5
DD
330
17
100
AcDbEntity
  8
A-ESCALERA
100
AcDbText
 10
6.275
 20
-11.0525
 30
0.0
 40
0.11
  1
ESCALERA EXISTENTE
  7
LAVA-B
 72
1
 11
6.275
 21
-11.0525
 31
0.0
100
AcDbText
 73
2
  0
TEXT
  5
DE
330
17
100
AcDbEntity
  8
A-ESCALERA
100
AcDbText
 10
6.275
 20
-11.228499999999999
 30
0.0
 40
0.11
  1
(edificio, fuera del local)
  7
LAVA
 72
1
 11
6.275
 21
-11.228499999999999
 31
0.0
100
AcDbText
 73
2
  0
LWPOLYLINE
  5
E0
330
17
100
AcDbEntity
  8
A-DUCTO
100
AcDbPolyline
 90
4
 70
1
 10
8.013
 20
0.701
 10
9.225
 20
0.701
 10
9.225
 20
0.013
 10
8.013
 20
0.013
  0
LINE
  5
E1
330
17
100
AcDbEntity
  8
A-DUCTO
370
9
100
AcDbLine
 10
8.013
 20
0.701
 30
0.0
 11
9.225
 21
0.013
 31
0.0
  0
LINE
  5
E2
330
17
100
AcDbEntity
  8
A-DUCTO
370
9
100
AcDbLine
 10
8.1
 20
0.06238613861386125
 30
0.0
 11
9.225
 21
0.701
 31
0.0
  0
LWPOLYLINE
  5
E3
330
17
100
AcDbEntity
  8
A-DUCTO
100
AcDbPolyline
 90
4
 70
1
 10
8.04
 20
-5.116
 10
9.225
 20
-5.116
 10
9.225
 20
-5.701
 10
8.04
 20
-5.701
  0
LINE
  5
E4
330
17
100
AcDbEntity
  8
A-DUCTO
370
9
100
AcDbLine
 10
8.04
 20
-5.116
 30
0.0
 11
9.225
 21
-5.701
 31
0.0
  0
LINE
  5
E5
330
17
100
AcDbEntity
  8
A-DUCTO
370
9
100
AcDbLine
 10
8.04
 20
-5.701
 30
0.0
 11
9.225
 21
-5.116
 31
0.0
  0
LWPOLYLINE
  5
E6
330
17
100
AcDbEntity
  8
A-DUCTO
100
AcDbPolyline
 90
4
 70
1
 10
4.24
 20
-5.116
 10
4.51
 20
-5.116
 10
4.51
 20
-6.326
 10
4.24
 20
-6.326
  0
LINE
  5
E7
330
17
100
AcDbEntity
  8
A-DUCTO
370
9
100
AcDbLine
 10
4.24
 20
-5.116
 30
0.0
 11
4.51
 21
-6.326
 31
0.0
  0
LINE
  5
E8
330
17
100
AcDbEntity
  8
A-DUCTO
370
9
100
AcDbLine
 10
4.24
 20
-6.326
 30
0.0
 11
4.51
 21
-5.116
 31
0.0
  0
LWPOLYLINE
  5
E9
330
17
100
AcDbEntity
  8
A-DUCTO
100
AcDbPolyline
 90
4
 70
1
 10
8.025
 20
-9.406
 10
8.615
 20
-9.406
 10
8.615
 20
-10.406
 10
8.025
 20
-10.406
  0
LINE
  5
EA
330
17
100
AcDbEntity
  8
A-DUCTO
370
9
100
AcDbLine
 10
8.025
 20
-9.406
 30
0.0
 11
8.615
 21
-10.406
 31
0.0
  0
LINE
  5
EB
330
17
100
AcDbEntity
  8
A-DUCTO
370
9
100
AcDbLine
 10
8.025
 20
-10.406
 30
0.0
 11
8.615
 21
-9.406
 31
0.0
  0
LWPOLYLINE
  5
EC
330
17
100
AcDbEntity
  8
A-DUCTO
100
AcDbPolyline
 90
4
 70
1
 10
-0.736
 20
0.435
 10
0.734
 20
0.435
 10
0.734
 20
-0.735
 10
-0.736
 20
-0.735
  0
LINE
  5
ED
330
17
100
AcDbEntity
  8
A-DUCTO
370
9
100
AcDbLine
 10
-0.736
 20
0.435
 30
0.0
 11
-0.315
 21
0.09991836734693878
 31
0.0
  0
LINE
  5
EE
330
17
100
AcDbEntity
  8
A-DUCTO
370
9
100
AcDbLine
 10
0.20756410256410257
 20
-0.316
 30
0.0
 11
0.734
 21
-0.735
 31
0.0
  0
LINE
  5
EF
330
17
100
AcDbEntity
  8
A-DUCTO
370
9
100
AcDbLine
 10
-0.736
 20
-0.735
 30
0.0
 11
-0.20956410256410257
 21
-0.316
 31
0.0
  0
LINE
  5
F0
330
17
100
AcDbEntity
  8
A-DUCTO
370
9
100
AcDbLine
 10
0.315
 20
0.10151020408163267
 30
0.0
 11
0.734
 21
0.435
 31
0.0
  0
HATCH
  5
F2
330
17
100
AcDbEntity
  8
A-MURO-EXIST-TRAMA
100
AcDbHatch
 10
0.0
 20
0.0
 30
0.0
210
0.0
220
0.0
230
1.0
  2
ANSI31
 70
0
 71
0
 91
8
 92
3
 72
0
 73
1
 93
14
 10
-0.2
 20
-0.866
 10
-0.2
 20
-4.986
 10
-0.185
 20
-4.986
 10
-0.185
 20
-8.186
 10
-0.085
 20
-8.186
 10
-0.085
 20
-0.866
 10
0.865
 20
-0.866
 10
0.865
 20
-0.116
 10
7.5
 20
-0.116
 10
7.5
 20
-0.0
 10
0.865
 20
-0.0
 10
0.865
 20
0.564
 10
-0.865
 20
0.564
 10
-0.865
 20
-0.866
 97
0
 92
2
 72
0
 73
1
 93
4
 10
-0.736
 20
-0.735
 10
-0.736
 20
0.435
 10
0.734
 20
0.435
 10
0.734
 20
-0.735
 97
0
 92
3
 72
0
 73
1
 93
6
 10
1.46
 20
-4.986
 10
1.46
 20
-7.076
 10
1.56
 20
-7.076
 10
1.56
 20
-5.086
 10
2.249
 20
-5.086
 10
2.249
 20
-4.986
 97
0
 92
3
 72
0
 73
1
 93
36
 10
3.05
 20
-5.086
 10
4.11
 20
-5.086
 10
4.11
 20
-6.456
 10
4.51
 20
-6.456
 10
4.51
 20
-8.436
 10
1.56
 20
-8.436
 10
1.56
 20
-7.986
 10
1.46
 20
-7.986
 10
1.46
 20
-8.886
 10
1.56
 20
-8.886
 10
1.56
 20
-8.536
 10
4.51
 20
-8.536
 10
4.51
 20
-11.486
 10
3.365
 20
-11.486
 10
3.365
 20
-11.616
 10
4.51
 20
-11.616
 10
4.51
 20
-11.636
 10
4.74
 20
-11.636
 10
4.74
 20
-5.216
 10
7.81
 20
-5.216
 10
7.81
 20
-8.201
 10
8.025
 20
-8.201
 10
8.025
 20
-9.001
 10
7.81
 20
-9.001
 10
7.81
 20
-12.565
 10
8.04
 20
-12.565
 10
8.04
 20
-10.406
 10
8.025
 20
-10.406
 10
8.025
 20
-9.406
 10
8.04
 20
-9.406
 10
8.04
 20
-5.831
 10
9.355
 20
-5.831
 10
9.355
 20
-5.168
 10
16.339
 20
-5.168
 10
16.339
 20
-4.986
 10
3.05
 20
-4.986
 97
0
 92
2
 72
0
 73
1
 93
4
 10
8.04
 20
-5.701
 10
8.04
 20
-5.116
 10
9.225
 20
-5.116
 10
9.225
 20
-5.701
 97
0
 92
2
 72
0
 73
1
 93
4
 10
4.51
 20
-6.326
 10
4.24
 20
-6.326
 10
4.24
 20
-5.116
 10
4.51
 20
-5.116
 97
0
 92
3
 72
0
 73
1
 93
6
 10
1.365
 20
-11.486
 10
0.0
 20
-11.486
 10
0.0
 20
-8.816
 10
-0.3
 20
-8.816
 10
-0.3
 20
-11.616
 10
1.365
 20
-11.616
 97
0
 92
3
 72
0
 73
1
 93
12
 10
16.0
 20
-0.116
 10
16.0
 20
-0.0
 10
9.355
 20
-0.0
 10
9.355
 20
0.83
 10
7.883
 20
0.83
 10
7.883
 20
0.3
 10
8.013
 20
0.3
 10
8.013
 20
0.701
 10
9.225
 20
0.701
 10
9.225
 20
0.013
 10
8.1
 20
0.013
 10
8.1
 20
-0.116
 97
0
 75
1
 76
1
 52
0.0
 41
0.02
 77
0
 78
1
 53
45.0
 43
0.0
 44
0.0
 45
-0.0449012806
 46
0.0449012806
 79
0
 98
0
  0
LWPOLYLINE
  5
F4
330
17
100
AcDbEntity
  8
A-MURO-EXIST
100
AcDbPolyline
 90
18
 70
1
 10
-0.2
 20
-0.866
 10
-0.2
 20
-4.986
 10
-0.185
 20
-4.986
 10
-0.185
 20
-8.186
 10
-0.085
 20
-8.186
 10
-0.085
 20
-0.866
 10
0.865
 20
-0.866
 10
0.865
 20
-0.116
 10
6.298
 20
-0.116
 10
6.298
 20
-4.26
 10
6.398
 20
-4.26
 10
6.398
 20
-0.116
 10
7.5
 20
-0.116
 10
7.5
 20
-0.0
 10
0.865
 20
-0.0
 10
0.865
 20
0.564
 10
-0.865
 20
0.564
 10
-0.865
 20
-0.866
  0
LWPOLYLINE
  5
F5
330
17
100
AcDbEntity
  8
A-MURO-EXIST
100
AcDbPolyline
 90
4
 70
1
 10
-0.736
 20
-0.735
 10
-0.736
 20
0.435
 10
0.734
 20
0.435
 10
0.734
 20
-0.735
  0
LWPOLYLINE
  5
F6
330
17
100
AcDbEntity
  8
A-MURO-EXIST
100
AcDbPolyline
 90
6
 70
1
 10
1.46
 20
-4.986
 10
1.46
 20
-7.076
 10
1.56
 20
-7.076
 10
1.56
 20
-5.086
 10
2.249
 20
-5.086
 10
2.249
 20
-4.986
  0
LWPOLYLINE
  5
F7
330
17
100
AcDbEntity
  8
A-MURO-EXIST
100
AcDbPolyline
 90
36
 70
1
 10
3.05
 20
-5.086
 10
4.11
 20
-5.086
 10
4.11
 20
-6.456
 10
4.51
 20
-6.456
 10
4.51
 20
-8.436
 10
1.56
 20
-8.436
 10
1.56
 20
-7.986
 10
1.46
 20
-7.986
 10
1.46
 20
-8.886
 10
1.56
 20
-8.886
 10
1.56
 20
-8.536
 10
4.51
 20
-8.536
 10
4.51
 20
-11.486
 10
3.365
 20
-11.486
 10
3.365
 20
-11.616
 10
4.51
 20
-11.616
 10
4.51
 20
-11.636
 10
4.74
 20
-11.636
 10
4.74
 20
-5.216
 10
7.81
 20
-5.216
 10
7.81
 20
-8.201
 10
8.025
 20
-8.201
 10
8.025
 20
-9.001
 10
7.81
 20
-9.001
 10
7.81
 20
-12.565
 10
8.04
 20
-12.565
 10
8.04
 20
-10.406
 10
8.025
 20
-10.406
 10
8.025
 20
-9.406
 10
8.04
 20
-9.406
 10
8.04
 20
-5.831
 10
9.355
 20
-5.831
 10
9.355
 20
-5.168
 10
16.339
 20
-5.168
 10
16.339
 20
-4.986
 10
3.05
 20
-4.986
  0
LWPOLYLINE
  5
F8
330
17
100
AcDbEntity
  8
A-MURO-EXIST
100
AcDbPolyline
 90
4
 70
1
 10
8.04
 20
-5.701
 10
8.04
 20
-5.116
 10
9.225
 20
-5.116
 10
9.225
 20
-5.701
  0
LWPOLYLINE
  5
F9
330
17
100
AcDbEntity
  8
A-MURO-EXIST
100
AcDbPolyline
 90
4
 70
1
 10
4.51
 20
-6.326
 10
4.24
 20
-6.326
 10
4.24
 20
-5.116
 10
4.51
 20
-5.116
  0
LWPOLYLINE
  5
FA
330
17
100
AcDbEntity
  8
A-MURO-EXIST
100
AcDbPolyline
 90
6
 70
1
 10
1.365
 20
-11.486
 10
0.0
 20
-11.486
 10
0.0
 20
-8.816
 10
-0.3
 20
-8.816
 10
-0.3
 20
-11.616
 10
1.365
 20
-11.616
  0
LWPOLYLINE
  5
FB
330
17
100
AcDbEntity
  8
A-MURO-EXIST
100
AcDbPolyline
 90
12
 70
1
 10
16.0
 20
-0.116
 10
16.0
 20
-0.0
 10
9.355
 20
-0.0
 10
9.355
 20
0.83
 10
7.883
 20
0.83
 10
7.883
 20
0.3
 10
8.013
 20
0.3
 10
8.013
 20
0.701
 10
9.225
 20
0.701
 10
9.225
 20
0.013
 10
8.1
 20
0.013
 10
8.1
 20
-0.116
  0
HATCH
  5
FD
330
17
100
AcDbEntity
  8
A-COLUMNA-TRAMA
100
AcDbHatch
 10
0.0
 20
0.0
 30
0.0
210
0.0
220
0.0
230
1.0
  2
SOLID
 70
1
 71
0
 91
1
 92
3
 72
0
 73
1
 93
4
 10
0.315
 20
0.314
 10
0.315
 20
-0.316
 10
-0.315
 20
-0.316
 10
-0.315
 20
0.314
 97
0
 75
1
 76
1
 98
0
  0
LWPOLYLINE
  5
FF
330
17
100
AcDbEntity
  8
A-COLUMNA
100
AcDbPolyline
 90
4
 70
1
 10
-0.315
 20
0.314
 10
0.315
 20
0.314
 10
0.315
 20
-0.316
 10
-0.315
 20
-0.316
  0
HATCH
  5
100
330
17
100
AcDbEntity
  8
A-COLUMNA-TRAMA
100
AcDbHatch
 10
0.0
 20
0.0
 30
0.0
210
0.0
220
0.0
230
1.0
  2
SOLID
 70
1
 71
0
 91
1
 92
3
 72
0
 73
1
 93
4
 10
8.1
 20
0.3
 10
8.1
 20
-0.3
 10
7.5
 20
-0.3
 10
7.5
 20
0.3
 97
0
 75
1
 76
1
 98
0
  0
LWPOLYLINE
  5
101
330
17
100
AcDbEntity
  8
A-COLUMNA
100
AcDbPolyline
 90
4
 70
1
 10
7.5
 20
0.3
 10
8.1
 20
0.3
 10
8.1
 20
-0.3
 10
7.5
 20
-0.3
  0
HATCH
  5
102
330
17
100
AcDbEntity
  8
A-COLUMNA-TRAMA
100
AcDbHatch
 10
0.0
 20
0.0
 30
0.0
210
0.0
220
0.0
230
1.0
  2
SOLID
 70
1
 71
0
 91
1
 92
3
 72
0
 73
1
 93
4
 10
16.6
 20
0.3
 10
16.6
 20
-0.3
 10
16.0
 20
-0.3
 10
16.0
 20
0.3
 97
0
 75
1
 76
1
 98
0
  0
LWPOLYLINE
  5
103
330
17
100
AcDbEntity
  8
A-COLUMNA
100
AcDbPolyline
 90
4
 70
1
 10
16.0
 20
0.3
 10
16.6
 20
0.3
 10
16.6
 20
-0.3
 10
16.0
 20
-0.3
  0
HATCH
  5
104
330
17
100
AcDbEntity
  8
A-COLUMNA-TRAMA
100
AcDbHatch
 10
0.0
 20
0.0
 30
0.0
210
0.0
220
0.0
230
1.0
  2
SOLID
 70
1
 71
0
 91
1
 92
3
 72
0
 73
1
 93
4
 10
0.315
 20
-8.186
 10
0.315
 20
-8.816
 10
-0.315
 20
-8.816
 10
-0.315
 20
-8.186
 97
0
 75
1
 76
1
 98
0
  0
LWPOLYLINE
  5
105
330
17
100
AcDbEntity
  8
A-COLUMNA
100
AcDbPolyline
 90
4
 70
1
 10
-0.315
 20
-8.186
 10
0.315
 20
-8.186
 10
0.315
 20
-8.816
 10
-0.315
 20
-8.816
  0
HATCH
  5
106
330
17
100
AcDbEntity
  8
A-COLUMNA-TRAMA
100
AcDbHatch
 10
0.0
 20
0.0
 30
0.0
210
0.0
220
0.0
230
1.0
  2
SOLID
 70
1
 71
0
 91
1
 92
3
 72
0
 73
1
 93
4
 10
8.025
 20
-8.201
 10
8.025
 20
-9.001
 10
7.625
 20
-9.001
 10
7.625
 20
-8.201
 97
0
 75
1
 76
1
 98
0
  0
LWPOLYLINE
  5
107
330
17
100
AcDbEntity
  8
A-COLUMNA
100
AcDbPolyline
 90
4
 70
1
 10
7.625
 20
-8.201
 10
8.025
 20
-8.201
 10
8.025
 20
-9.001
 10
7.625
 20
-9.001
  0
HATCH
  5
108
330
17
100
AcDbEntity
  8
A-COLUMNA-TRAMA
100
AcDbHatch
 10
0.0
 20
0.0
 30
0.0
210
0.0
220
0.0
230
1.0
  2
SOLID
 70
1
 71
0
 91
1
 92
3
 72
0
 73
1
 93
4
 10
16.6
 20
-8.201
 10
16.6
 20
-8.801
 10
16.0
 20
-8.801
 10
16.0
 20
-8.201
 97
0
 75
1
 76
1
 98
0
  0
LWPOLYLINE
  5
109
330
17
100
AcDbEntity
  8
A-COLUMNA
100
AcDbPolyline
 90
4
 70
1
 10
16.0
 20
-8.201
 10
16.6
 20
-8.201
 10
16.6
 20
-8.801
 10
16.0
 20
-8.801
  0
LWPOLYLINE
  5
10B
330
17
100
AcDbEntity
  8
A-VIDRIO
100
AcDbPolyline
 90
4
 70
1
 10
16.285
 20
-0.3
 10
16.315
 20
-0.3
 10
16.315
 20
-1.643
 10
16.285
 20
-1.643
  0
LINE
  5
10C
330
17
100
AcDbEntity
  8
A-VIDRIO
100
AcDbLine
 10
16.3
 20
-0.3
 30
0.0
 11
16.3
 21
-1.643
 31
0.0
  0
LWPOLYLINE
  5
10D
330
17
100
AcDbEntity
  8
A-VIDRIO
100
AcDbPolyline
 90
4
 70
1
 10
16.285
 20
-3.643
 10
16.315
 20
-3.643
 10
16.315
 20
-4.986
 10
16.285
 20
-4.986
  0
LINE
  5
10E
330
17
100
AcDbEntity
  8
A-VIDRIO
100
AcDbLine
 10
16.3
 20
-3.643
 30
0.0
 11
16.3
 21
-4.986
 31
0.0
  0
LWPOLYLINE
  5
10F
330
17
100
AcDbEntity
  8
A-VIDRIO
100
AcDbPolyline
 90
4
 70
1
 10
1.365
 20
-11.486
 10
3.365
 20
-11.486
 10
3.365
 20
-11.616
 10
1.365
 20
-11.616
  0
LINE
  5
110
330
17
100
AcDbEntity
  8
A-VIDRIO
100
AcDbLine
 10
1.365
 20
-11.551
 30
0.0
 11
3.365
 21
-11.551
 31
0.0
  0
LINE
  5
112
330
17
100
AcDbEntity
  8
A-PUERTA
370
35
100
AcDbLine
 10
16.3
 20
-1.643
 30
0.0
 11
15.33
 21
-1.643
 31
0.0
  0
ARC
  5
113
330
17
100
AcDbEntity
  8
A-PUERTA
370
13
100
AcDbCircle
 10
16.3
 20
-1.643
 30
0.0
 40
0.97
100
AcDbArc
 50
180.0
 51
-90.0
  0
LINE
  5
114
330
17
100
AcDbEntity
  8
A-PUERTA
370
35
100
AcDbLine
 10
16.3
 20
-3.643
 30
0.0
 11
15.33
 21
-3.643
 31
0.0
  0
ARC
  5
115
330
17
100
AcDbEntity
  8
A-PUERTA
370
13
100
AcDbCircle
 10
16.3
 20
-3.643
 30
0.0
 40
0.9699999999999998
100
AcDbArc
 50
90.0
 51
180.0
  0
LINE
  5
116
330
17
100
AcDbEntity
  8
A-PUERTA
370
9
100
AcDbLine
 10
16.3
 20
-1.643
 30
0.0
 11
16.3
 21
-3.643
 31
0.0
  0
TEXT
  5
117
330
17
100
AcDbEntity
  8
A-PUERTA
100
AcDbText
 10
16.482000000000003
 20
-2.643
 30
0.0
 40
0.065
  1
D-ENT · 2.00 (2 × 0.97)
 50
90.0
  7
LAVA-B
 72
1
 11
16.482000000000003
 21
-2.643
 31
0.0
100
AcDbText
 73
2
  0
LINE
  5
118
330
17
100
AcDbEntity
  8
A-PUERTA
  6
LAVA_FINO
370
13
100
AcDbLine
 10
6.348
 20
-4.26
 30
0.0
 11
6.348
 21
-4.986
 31
0.0
  0
TEXT
  5
119
330
17
100
AcDbEntity
  8
A-PUERTA
100
AcDbText
 10
6.857
 20
-4.622999999999999
 30
0.0
 40
0.055
  1
D-KB-old · vano 0.73
  7
LAVA
 72
1
 11
6.857
 21
-4.622999999999999
 31
0.0
100
AcDbText
 73
2
  0
LINE
  5
11A
330
17
100
AcDbEntity
  8
A-PUERTA
  6
LAVA_FINO
370
13
100
AcDbLine
 10
1.51
 20
-7.076
 30
0.0
 11
1.51
 21
-7.986
 31
0.0
  0
TEXT
  5
11B
330
17
100
AcDbEntity
  8
A-PUERTA
100
AcDbText
 10
2.019
 20
-7.531
 30
0.0
 40
0.055
  1
D-P1-old · vano 0.91
  7
LAVA
 72
1
 11
2.019
 21
-7.531
 31
0.0
100
AcDbText
 73
2
  0
LINE
  5
11C
330
17
100
AcDbEntity
  8
A-PUERTA
  6
LAVA_FINO
370
13
100
AcDbLine
 10
2.249
 20
-5.036
 30
0.0
 11
3.05
 21
-5.036
 31
0.0
  0
TEXT
  5
11D
330
17
100
AcDbEntity
  8
A-PUERTA
100
AcDbText
 10
2.6494999999999997
 20
-5.159999999999999
 30
0.0
 40
0.055
  1
D-DISH-old · ventana de paso 0.80
  7
LAVA
 72
1
 11
2.6494999999999997
 21
-5.159999999999999
 31
0.0
100
AcDbText
 73
2
  0
CIRCLE
  5
11F
330
17
100
AcDbEntity
  8
A-CONTEXTO
100
AcDbCircle
 10
4.6
 20
-12.802
 30
0.0
 40
0.04
  0
TEXT
  5
120
330
17
100
AcDbEntity
  8
A-CONTEXTO
100
AcDbText
 10
5.473649999999999
 20
-12.802
 30
0.0
 40
0.055
  1
D-STAIR-S (contexto, fuera del local)
  7
LAVA
 72
1
 11
5.473649999999999
 21
-12.802
 31
0.0
100
AcDbText
 73
2
  0
CIRCLE
  5
121
330
17
100
AcDbEntity
  8
A-CONTEXTO
100
AcDbCircle
 10
-0.25
 20
-10.416
 30
0.0
 40
0.04
  0
CIRCLE
  5
122
330
17
100
AcDbEntity
  8
A-CONTEXTO
100
AcDbCircle
 10
-2.376
 20
-10.418
 30
0.0
 40
0.04
  0
TEXT
  5
123
330
17
100
AcDbEntity
  8
A-CONTEXTO
100
AcDbText
 10
-1.12365
 20
-10.416
 30
0.0
 40
0.055
  1
D-NEIGH-W (contexto, fuera del local)
  7
LAVA
 72
1
 11
-1.12365
 21
-10.416
 31
0.0
100
AcDbText
 73
2
  0
LWPOLYLINE
  5
125
330
17
100
AcDbEntity
  8
A-EQUIPO-ALTO
100
AcDbPolyline
 90
4
 70
1
 10
2.397
 20
-0.116
 10
6.197
 20
-0.116
 10
6.197
 20
-1.219
 10
2.397
 20
-1.219
  0
LINE
  5
126
330
17
100
AcDbEntity
  8
A-EQUIPO-ALTO
370
9
100
AcDbLine
 10
2.397
 20
-0.116
 30
0.0
 11
6.197
 21
-1.219
 31
0.0
  0
LINE
  5
127
330
17
100
AcDbEntity
  8
A-EQUIPO-ALTO
370
9
100
AcDbLine
 10
2.397
 20
-1.219
 30
0.0
 11
6.197
 21
-0.116
 31
0.0
  0
LWPOLYLINE
  5
129
330
17
100
AcDbEntity
  8
M-EXTRACCION
100
AcDbPolyline
 90
4
 70
1
 10
4.096
 20
-0.469
 10
4.496
 20
-0.469
 10
4.496
 20
-0.869
 10
4.096
 20
-0.869
  0
LINE
  5
12A
330
17
100
AcDbEntity
  8
M-EXTRACCION
370
9
100
AcDbLine
 10
4.096
 20
-0.469
 30
0.0
 11
4.496
 21
-0.869
 31
0.0
  0
LINE
  5
12B
330
17
100
AcDbEntity
  8
M-EXTRACCION
370
9
100
AcDbLine
 10
4.096
 20
-0.869
 30
0.0
 11
4.496
 21
-0.469
 31
0.0
  0
TEXT
  5
12C
330
17
100
AcDbEntity
  8
A-EQUIPO-ALTO
100
AcDbText
 10
4.297
 20
-1.331
 30
0.0
 40
0.065
  1
Campana existente Marna’s
  7
LAVA-B
 72
1
 11
4.297
 21
-1.331
 31
0.0
100
AcDbText
 73
2
  0
TEXT
  5
12D
330
17
100
AcDbEntity
  8
A-EQUIPO-ALTO
100
AcDbText
 10
4.297
 20
-1.435
 30
0.0
 40
0.065
  1
3.80 × 1.10 · collarín al centro
  7
LAVA
 72
1
 11
4.297
 21
-1.435
 31
0.0
100
AcDbText
 73
2
  0
LWPOLYLINE
  5
12F
330
17
100
AcDbEntity
  8
P-SANITARIO
100
AcDbPolyline
 90
4
 70
1
 10
3.47
 20
-5.13
 10
4.09
 20
-5.13
 10
4.09
 20
-6.42
 10
3.47
 20
-6.42
  0
LWPOLYLINE
  5
130
330
17
100
AcDbEntity
  8
P-SANITARIO
100
AcDbPolyline
 90
4
 70
1
 10
3.88
 20
-6.45
 10
4.49
 20
-6.45
 10
4.49
 20
-7.55
 10
3.88
 20
-7.55
  0
LWPOLYLINE
  5
131
330
17
100
AcDbEntity
  8
P-SANITARIO
100
AcDbPolyline
 90
4
 70
1
 10
3.91
 20
-7.94
 10
4.51
 20
-7.94
 10
4.51
 20
-8.44
 10
3.91
 20
-8.44
  0
LWPOLYLINE
  5
132
330
17
100
AcDbEntity
  8
P-SANITARIO
100
AcDbPolyline
 90
4
 70
1
 10
1.72
 20
-6.47
 10
2.17
 20
-6.47
 10
2.17
 20
-6.92
 10
1.72
 20
-6.92
  0
LWPOLYLINE
  5
133
330
17
100
AcDbEntity
  8
P-SANITARIO
100
AcDbPolyline
 90
4
 70
1
 10
5.7
 20
-1.78
 10
6.27
 20
-1.78
 10
6.27
 20
-2.28
 10
5.7
 20
-2.28
  0
LWPOLYLINE
  5
134
330
17
100
AcDbEntity
  8
P-SANITARIO
100
AcDbPolyline
 90
4
 70
1
 10
6.51
 20
-2.2
 10
6.97
 20
-2.2
 10
6.97
 20
-2.64
 10
6.51
 20
-2.64
  0
TEXT
  5
135
330
17
100
AcDbEntity
  8
P-SANITARIO
100
AcDbText
 10
2.72185
 20
-5.731000000000001
 30
0.0
 40
0.055
  1
WP1
  7
LAVA-B
 72
1
 11
2.72185
 21
-5.731000000000001
 31
0.0
100
AcDbText
 73
2
  0
TEXT
  5
136
330
17
100
AcDbEntity
  8
P-SANITARIO
100
AcDbText
 10
2.72185
 20
-5.819
 30
0.0
 40
0.055
  1
Pila 3 tanques (pilas) contra muro este del ala
  7
LAVA
 72
1
 11
2.72185
 21
-5.819
 31
0.0
100
AcDbText
 73
2
  0
TEXT
  5
137
330
17
100
AcDbEntity
  8
P-SANITARIO
100
AcDbText
 10
3.6631000000000005
 20
-6.956
 30
0.0
 40
0.055
  1
WP2
  7
LAVA-B
 72
1
 11
3.6631000000000005
 21
-6.956
 31
0.0
100
AcDbText
 73
2
  0
TEXT
  5
138
330
17
100
AcDbEntity
  8
P-SANITARIO
100
AcDbText
 10
3.6631000000000005
 20
-7.044
 30
0.0
 40
0.055
  1
Pila 2 tanques (pilas)
  7
LAVA
 72
1
 11
3.6631000000000005
 21
-7.044
 31
0.0
100
AcDbText
 73
2
  0
TEXT
  5
139
330
17
100
AcDbEntity
  8
P-SANITARIO
100
AcDbText
 10
3.79535
 20
-8.145999999999999
 30
0.0
 40
0.055
  1
WP3
  7
LAVA-B
 72
1
 11
3.79535
 21
-8.145999999999999
 31
0.0
100
AcDbText
 73
2
  0
TEXT
  5
13A
330
17
100
AcDbEntity
  8
P-SANITARIO
100
AcDbText
 10
3.79535
 20
-8.234
 30
0.0
 40
0.055
  1
Pila palo de piso
  7
LAVA
 72
1
 11
3.79535
 21
-8.234
 31
0.0
100
AcDbText
 73
2
  0
TEXT
  5
13B
330
17
100
AcDbEntity
  8
P-SANITARIO
100
AcDbText
 10
2.8959
 20
-6.651000000000001
 30
0.0
 40
0.055
  1
WP4
  7
LAVA-B
 72
1
 11
2.8959
 21
-6.651000000000001
 31
0.0
100
AcDbText
 73
2
  0
TEXT
  5
13C
330
17
100
AcDbEntity
  8
P-SANITARIO
100
AcDbText
 10
2.8959
 20
-6.739
 30
0.0
 40
0.055
  1
Lavamanos/pila en mesa 0.70 x 2.00 (pilas)
  7
LAVA
 72
1
 11
2.8959
 21
-6.739
 31
0.0
100
AcDbText
 73
2
  0
TEXT
  5
13D
330
17
100
AcDbEntity
  8
P-SANITARIO
100
AcDbText
 10
4.755249999999999
 20
-1.9859999999999998
 30
0.0
 40
0.055
  1
WP5
  7
LAVA-B
 72
1
 11
4.755249999999999
 21
-1.9859999999999998
 31
0.0
100
AcDbText
 73
2
  0
TEXT
  5
13E
330
17
100
AcDbEntity
  8
P-SANITARIO
100
AcDbText
 10
4.755249999999999
 20
-2.074
 30
0.0
 40
0.055
  1
Pila 0.60 en cocina junto a división actual (queda del…
  7
LAVA
 72
1
 11
4.755249999999999
 21
-2.074
 31
0.0
100
AcDbText
 73
2
  0
TEXT
  5
13F
330
17
100
AcDbEntity
  8
P-SANITARIO
100
AcDbText
 10
7.45495
 20
-2.514
 30
0.0
 40
0.055
  1
WP6
  7
LAVA-B
 72
1
 11
7.45495
 21
-2.514
 31
0.0
100
AcDbText
 73
2
  0
TEXT
  5
140
330
17
100
AcDbEntity
  8
P-SANITARIO
100
AcDbText
 10
7.45495
 20
-2.602
 30
0.0
 40
0.055
  1
Pila barra/postres (lado barra)
  7
LAVA
 72
1
 11
7.45495
 21
-2.602
 31
0.0
100
AcDbText
 73
2
  0
LWPOLYLINE
  5
141
330
17
100
AcDbEntity
  8
A-CONTEXTO
100
AcDbPolyline
 90
4
 70
1
 10
19.04
 20
-0.03
 10
24.04
 20
-0.03
 10
24.04
 20
-5.03
 10
19.04
 20
-5.03
  0
TEXT
  5
142
330
17
100
AcDbEntity
  8
A-CONTEXTO
100
AcDbText
 10
21.54
 20
-2.466
 30
0.0
 40
0.08
  1
Terraza existente (Marna’s) en pasillo común
  7
LAVA-B
 72
1
 11
21.54
 21
-2.466
 31
0.0
100
AcDbText
 73
2
  0
TEXT
  5
143
330
17
100
AcDbEntity
  8
A-CONTEXTO
100
AcDbText
 10
21.54
 20
-2.5940000000000003
 30
0.0
 40
0.08
  1
Área común: permiso de la administración — VERIFY
  7
LAVA
 72
1
 11
21.54
 21
-2.5940000000000003
 31
0.0
100
AcDbText
 73
2
  0
LWPOLYLINE
  5
145
330
17
100
AcDbEntity
  8
S-SEGURIDAD
  6
LAVA_FINO
370
9
100
AcDbPolyline
 90
4
 70
1
 10
15.33
 20
-1.62
 10
16.285
 20
-1.62
 10
16.285
 20
-3.67
 10
15.33
 20
-3.67
  0
DIMENSION
  5
146
330
17
100
AcDbEntity
  8
A-COTA
100
AcDbDimension
280
0
  2
*D3
  3
LAVA-50
 10
-0.085
 20
1.72
 30
0.0
 11
8.1
 21
1.7825
 31
0.0
 70
32
 71
5
  1
<> interior
100
AcDbAlignedDimension
 13
-0.085
 23
-0.116
 33
0.0
 14
16.285
 24
-0.116
 34
0.0
 50
0.0
100
AcDbRotatedDimension
  0
DIMENSION
  5
155
330
17
100
AcDbEntity
  8
A-COTA
100
AcDbDimension
280
0
  2
*D4
  3
LAVA-50
 10
-0.085
 20
1.45
 30
0.0
 11
3.1065
 21
1.5125
 31
0.0
 70
32
 71
5
  1
<> cocina Marna’s
100
AcDbAlignedDimension
 13
-0.085
 23
0.564
 33
0.0
 14
6.298
 24
-0.0
 34
0.0
 50
0.0
100
AcDbRotatedDimension
  0
DIMENSION
  5
164
330
17
100
AcDbEntity
  8
A-COTA
100
AcDbDimension
280
0
  2
*D5
  3
LAVA-50
 10
6.398
 20
1.45
 30
0.0
 11
11.3415
 21
1.5125
 31
0.0
 70
32
 71
5
  1
<> salón Marna’s
100
AcDbAlignedDimension
 13
6.398
 23
-0.0
 33
0.0
 14
16.285
 24
-0.3
 34
0.0
 50
0.0
100
AcDbRotatedDimension
  0
DIMENSION
  5
173
330
17
100
AcDbEntity
  8
A-COTA
100
AcDbDimension
280
0
  2
*D6
  3
LAVA-50
 10
16.95
 20
-0.3
 30
0.0
 11
17.0125
 21
-0.9715
 31
0.0
 70
32
 71
5
  1
<>
100
AcDbAlignedDimension
 13
16.285
 23
-0.3
 33
0.0
 14
16.285
 24
-1.643
 34
0.0
 50
90.0
100
AcDbRotatedDimension
  0
DIMENSION
  5
182
330
17
100
AcDbEntity
  8
A-COTA
100
AcDbDimension
280
0
  2
*D7
  3
LAVA-50
 10
16.95
 20
-1.643
 30
0.0
 11
17.0125
 21
-2.643
 31
0.0
 70
32
 71
5
  1
<>
100
AcDbAlignedDimension
 13
16.285
 23
-1.643
 33
0.0
 14
16.285
 24
-3.643
 34
0.0
 50
90.0
100
AcDbRotatedDimension
  0
DIMENSION
  5
191
330
17
100
AcDbEntity
  8
A-COTA
100
AcDbDimension
280
0
  2
*D8
  3
LAVA-50
 10
16.95
 20
-3.643
 30
0.0
 11
17.0125
 21
-4.3145
 31
0.0
 70
32
 71
5
  1
<>
100
AcDbAlignedDimension
 13
16.285
 23
-3.643
 33
0.0
 14
16.285
 24
-4.986
 34
0.0
 50
90.0
100
AcDbRotatedDimension
  0
DIMENSION
  5
1A0
330
17
100
AcDbEntity
  8
A-COTA
100
AcDbDimension
280
0
  2
*D9
  3
LAVA-50
 10
17.32
 20
-0.116
 30
0.0
 11
17.3825
 21
-2.551
 31
0.0
 70
32
 71
5
  1
<> interior
100
AcDbAlignedDimension
 13
16.285
 23
-0.116
 33
0.0
 14
16.285
 24
-4.986
 34
0.0
 50
90.0
100
AcDbRotatedDimension
  0
DIMENSION
  5
1AF
330
17
100
AcDbEntity
  8
A-COTA
100
AcDbDimension
280
0
  2
*D10
  3
LAVA-50
 10
0.0
 20
-12.08
 30
0.0
 11
0.6825
 21
-12.0175
 31
0.0
 70
32
 71
5
  1
<>
100
AcDbAlignedDimension
 13
0.0
 23
-11.616
 33
0.0
 14
1.365
 24
-11.616
 34
0.0
 50
0.0
100
AcDbRotatedDimension
  0
DIMENSION
  5
1BE
330
17
100
AcDbEntity
  8
A-COTA
100
AcDbDimension
280
0
  2
*D11
  3
LAVA-50
 10
1.365
 20
-12.08
 30
0.0
 11
2.365
 21
-12.0175
 31
0.0
 70
32
 71
5
  1
<>
100
AcDbAlignedDimension
 13
1.365
 23
-11.616
 33
0.0
 14
3.365
 24
-11.616
 34
0.0
 50
0.0
100
AcDbRotatedDimension
  0
DIMENSION
  5
1CD
330
17
100
AcDbEntity
  8
A-COTA
100
AcDbDimension
280
0
  2
*D12
  3
LAVA-50
 10
3.365
 20
-12.08
 30
0.0
 11
3.9375
 21
-12.0175
 31
0.0
 70
32
 71
5
  1
<>
100
AcDbAlignedDimension
 13
3.365
 23
-11.616
 33
0.0
 14
4.51
 24
-11.616
 34
0.0
 50
0.0
100
AcDbRotatedDimension
  0
DIMENSION
  5
1DC
330
17
100
AcDbEntity
  8
A-COTA
100
AcDbDimension
280
0
  2
*D13
  3
LAVA-50
 10
0.0
 20
-12.42
 30
0.0
 11
2.255
 21
-12.3575
 31
0.0
 70
32
 71
5
  1
<> ancho ala
100
AcDbAlignedDimension
 13
0.0
 23
-11.616
 33
0.0
 14
4.51
 24
-11.616
 34
0.0
 50
0.0
100
AcDbRotatedDimension
  0
DIMENSION
  5
1EB
330
17
100
AcDbEntity
  8
A-COTA
100
AcDbDimension
280
0
  2
*D14
  3
LAVA-50
 10
-1.2
 20
-4.986
 30
0.0
 11
-1.1375
 21
-8.236
 31
0.0
 70
32
 71
5
  1
<> ala servicio
100
AcDbAlignedDimension
 13
-0.085
 23
-4.986
 33
0.0
 14
-0.085
 24
-11.486
 34
0.0
 50
90.0
100
AcDbRotatedDimension
  0
TEXT
  5
1FA
330
17
100
AcDbEntity
  8
A-MURO-EXIST
100
AcDbText
 10
4.1825
 20
-0.258
 30
0.0
 40
0.05
  1
EW-N1
  7
LAVA-B
 72
1
 11
4.1825
 21
-0.258
 31
0.0
100
AcDbText
 73
2
  0
LINE
  5
1FB
330
17
100
AcDbEntity
  8
A-MURO-EXIST
370
9
100
AcDbLine
 10
4.1825
 20
-0.09
 30
0.0
 11
4.1825
 21
-0.203
 31
0.0
  0
TEXT
  5
1FC
330
17
100
AcDbEntity
  8
A-MURO-EXIST
100
AcDbText
 10
12.05
 20
-0.258
 30
0.0
 40
0.05
  1
EW-N2
  7
LAVA-B
 72
1
 11
12.05
 21
-0.258
 31
0.0
100
AcDbText
 73
2
  0
LINE
  5
1FD
330
17
100
AcDbEntity
  8
A-MURO-EXIST
370
9
100
AcDbLine
 10
12.05
 20
-0.09
 30
0.0
 11
12.05
 21
-0.203
 31
0.0
  0
TEXT
  5
1FE
330
17
100
AcDbEntity
  8
A-MURO-EXIST
100
AcDbText
 10
0.0
 20
-0.471
 30
0.0
 40
0.05
  1
EW-PIL
  7
LAVA-B
 72
1
 11
0.0
 21
-0.471
 31
0.0
100
AcDbText
 73
2
  0
LINE
  5
1FF
330
17
100
AcDbEntity
  8
A-MURO-EXIST
370
9
100
AcDbLine
 10
0.0
 20
-0.18300000000000002
 30
0.0
 11
0.0
 21
-0.4159999999999999
 31
0.0
  0
TEXT
  5
200
330
17
100
AcDbEntity
  8
A-MURO-EXIST
100
AcDbText
 10
0.057499999999999996
 20
-2.9259999999999997
 30
0.0
 40
0.05
  1
EW-W1
 50
90.0
  7
LAVA-B
 72
1
 11
0.057499999999999996
 21
-2.9259999999999997
 31
0.0
100
AcDbText
 73
2
  0
LINE
  5
201
330
17
100
AcDbEntity
  8
A-MURO-EXIST
370
9
100
AcDbLine
 10
-0.11050000000000001
 20
-2.9259999999999997
 30
0.0
 11
0.0024999999999999883
 21
-2.9259999999999997
 31
0.0
  0
TEXT
  5
202
330
17
100
AcDbEntity
  8
A-MURO-EXIST
100
AcDbText
 10
0.065
 20
-6.586
 30
0.0
 40
0.05
  1
EW-W2
 50
90.0
  7
LAVA-B
 72
1
 11
0.065
 21
-6.586
 31
0.0
100
AcDbText
 73
2
  0
LINE
  5
203
330
17
100
AcDbEntity
  8
A-MURO-EXIST
370
9
100
AcDbLine
 10
-0.10300000000000001
 20
-6.586
 30
0.0
 11
0.009999999999999995
 21
-6.586
 31
0.0
  0
TEXT
  5
204
330
17
100
AcDbEntity
  8
A-MURO-EXIST
100
AcDbText
 10
0.16999999999999996
 20
-10.216000000000001
 30
0.0
 40
0.05
  1
EW-W3
 50
90.0
  7
LAVA-B
 72
1
 11
0.16999999999999996
 21
-10.216000000000001
 31
0.0
100
AcDbText
 73
2
  0
LINE
  5
205
330
17
100
AcDbEntity
  8
A-MURO-EXIST
370
9
100
AcDbLine
 10
-0.118
 20
-10.216000000000001
 30
0.0
 11
0.11499999999999995
 21
-10.216000000000001
 31
0.0
  0
TEXT
  5
206
330
17
100
AcDbEntity
  8
A-MURO-EXIST
100
AcDbText
 10
0.6825
 20
-11.751
 30
0.0
 40
0.05
  1
EW-S1
  7
LAVA-B
 72
1
 11
0.6825
 21
-11.751
 31
0.0
100
AcDbText
 73
2
  0
LINE
  5
207
330
17
100
AcDbEntity
  8
A-MURO-EXIST
370
9
100
AcDbLine
 10
0.6825
 20
-11.583
 30
0.0
 11
0.6825
 21
-11.696
 31
0.0
  0
TEXT
  5
208
330
17
100
AcDbEntity
  8
A-MURO-EXIST
100
AcDbText
 10
3.9375
 20
-11.751
 30
0.0
 40
0.05
  1
EW-S2
  7
LAVA-B
 72
1
 11
3.9375
 21
-11.751
 31
0.0
100
AcDbText
 73
2
  0
LINE
  5
209
330
17
100
AcDbEntity
  8
A-MURO-EXIST
370
9
100
AcDbLine
 10
3.9375
 20
-11.583
 30
0.0
 11
3.9375
 21
-11.696
 31
0.0
  0
TEXT
  5
20A
330
17
100
AcDbEntity
  8
A-MURO-EXIST
100
AcDbText
 10
4.390000000000001
 20
-5.721
 30
0.0
 40
0.05
  1
EW-E1
 50
90.0
  7
LAVA-B
 72
1
 11
4.390000000000001
 21
-5.721
 31
0.0
100
AcDbText
 73
2
  0
TEXT
  5
20B
330
17
100
AcDbEntity
  8
A-MURO-EXIST
100
AcDbText
 10
4.825
 20
-8.311
 30
0.0
 40
0.05
  1
EW-E2
 50
90.0
  7
LAVA-B
 72
1
 11
4.825
 21
-8.311
 31
0.0
100
AcDbText
 73
2
  0
LINE
  5
20C
330
17
100
AcDbEntity
  8
A-MURO-EXIST
370
9
100
AcDbLine
 10
4.657
 20
-8.311
 30
0.0
 11
4.7700000000000005
 21
-8.311
 31
0.0
  0
TEXT
  5
20D
330
17
100
AcDbEntity
  8
A-MURO-EXIST
100
AcDbText
 10
6.275
 20
-5.301
 30
0.0
 40
0.05
  1
EW-STN
  7
LAVA-B
 72
1
 11
6.275
 21
-5.301
 31
0.0
100
AcDbText
 73
2
  0
LINE
  5
20E
330
17
100
AcDbEntity
  8
A-MURO-EXIST
370
9
100
AcDbLine
 10
6.275
 20
-5.133
 30
0.0
 11
6.275
 21
-5.246
 31
0.0
  0
TEXT
  5
20F
330
17
100
AcDbEntity
  8
A-MURO-EXIST
100
AcDbText
 10
8.124999999999998
 20
-8.7755
 30
0.0
 40
0.05
  1
EW-STE
 50
90.0
  7
LAVA-B
 72
1
 11
8.124999999999998
 21
-8.7755
 31
0.0
100
AcDbText
 73
2
  0
LINE
  5
210
330
17
100
AcDbEntity
  8
A-MURO-EXIST
370
9
100
AcDbLine
 10
7.956999999999999
 20
-8.7755
 30
0.0
 11
8.069999999999999
 21
-8.7755
 31
0.0
  0
TEXT
  5
211
330
17
100
AcDbEntity
  8
A-MURO-EXIST
100
AcDbText
 10
8.6975
 20
-5.4885
 30
0.0
 40
0.05
  1
EW-S3blk
  7
LAVA-B
 72
1
 11
8.6975
 21
-5.4885
 31
0.0
100
AcDbText
 73
2
  0
TEXT
  5
212
330
17
100
AcDbEntity
  8
A-MURO-EXIST
100
AcDbText
 10
12.847
 20
-5.277
 30
0.0
 40
0.05
  1
EW-SD
  7
LAVA-B
 72
1
 11
12.847
 21
-5.277
 31
0.0
100
AcDbText
 73
2
  0
LINE
  5
213
330
17
100
AcDbEntity
  8
A-MURO-EXIST
370
9
100
AcDbLine
 10
12.847
 20
-5.109
 30
0.0
 11
12.847
 21
-5.222
 31
0.0
  0
TEXT
  5
214
330
17
100
AcDbEntity
  8
A-MURO-EXIST
100
AcDbText
 10
8.619
 20
0.33499999999999996
 30
0.0
 40
0.05
  1
EW-S1shaft
  7
LAVA-B
 72
1
 11
8.619
 21
0.33499999999999996
 31
0.0
100
AcDbText
 73
2
  0
TEXT
  5
215
330
17
100
AcDbEntity
  8
A-MURO-EXIST
100
AcDbText
 10
6.548
 20
-2.1879999999999997
 30
0.0
 40
0.05
  1
IP-KB
 50
90.0
  7
LAVA-B
 72
1
 11
6.548
 21
-2.1879999999999997
 31
0.0
100
AcDbText
 73
2
  0
LINE
  5
216
330
17
100
AcDbEntity
  8
A-MURO-EXIST
370
9
100
AcDbLine
 10
6.38
 20
-2.1879999999999997
 30
0.0
 11
6.493
 21
-2.1879999999999997
 31
0.0
  0
TEXT
  5
217
330
17
100
AcDbEntity
  8
A-MURO-EXIST
100
AcDbText
 10
1.8545
 20
-4.835999999999999
 30
0.0
 40
0.05
  1
IP-P0a
  7
LAVA-B
 72
1
 11
1.8545
 21
-4.835999999999999
 31
0.0
100
AcDbText
 73
2
  0
LINE
  5
218
330
17
100
AcDbEntity
  8
A-MURO-EXIST
370
9
100
AcDbLine
 10
1.8545
 20
-5.004
 30
0.0
 11
1.8545
 21
-4.890999999999999
 31
0.0
  0
TEXT
  5
219
330
17
100
AcDbEntity
  8
A-MURO-EXIST
100
AcDbText
 10
3.58
 20
-4.835999999999999
 30
0.0
 40
0.05
  1
IP-P0b
  7
LAVA-B
 72
1
 11
3.58
 21
-4.835999999999999
 31
0.0
100
AcDbText
 73
2
  0
LINE
  5
21A
330
17
100
AcDbEntity
  8
A-MURO-EXIST
370
9
100
AcDbLine
 10
3.58
 20
-5.004
 30
0.0
 11
3.58
 21
-4.890999999999999
 31
0.0
  0
TEXT
  5
21B
330
17
100
AcDbEntity
  8
A-MURO-EXIST
100
AcDbText
 10
1.71
 20
-6.031
 30
0.0
 40
0.05
  1
IP-P1
 50
90.0
  7
LAVA-B
 72
1
 11
1.71
 21
-6.031
 31
0.0
100
AcDbText
 73
2
  0
LINE
  5
21C
330
17
100
AcDbEntity
  8
A-MURO-EXIST
370
9
100
AcDbLine
 10
1.542
 20
-6.031
 30
0.0
 11
1.655
 21
-6.031
 31
0.0
  0
TEXT
  5
21D
330
17
100
AcDbEntity
  8
A-MURO-EXIST
100
AcDbText
 10
1.31
 20
-8.436
 30
0.0
 40
0.05
  1
IP-P2
 50
90.0
  7
LAVA-B
 72
1
 11
1.31
 21
-8.436
 31
0.0
100
AcDbText
 73
2
  0
LINE
  5
21E
330
17
100
AcDbEntity
  8
A-MURO-EXIST
370
9
100
AcDbLine
 10
1.478
 20
-8.436
 30
0.0
 11
1.365
 21
-8.436
 31
0.0
  0
TEXT
  5
21F
330
17
100
AcDbEntity
  8
A-MURO-EXIST
100
AcDbText
 10
3.035
 20
-8.686
 30
0.0
 40
0.05
  1
IP-P3
  7
LAVA-B
 72
1
 11
3.035
 21
-8.686
 31
0.0
100
AcDbText
 73
2
  0
LINE
  5
220
330
17
100
AcDbEntity
  8
A-MURO-EXIST
370
9
100
AcDbLine
 10
3.035
 20
-8.518
 30
0.0
 11
3.035
 21
-8.631
 31
0.0
  0
INSERT
  5
222
330
17
100
AcDbEntity
  8
A-TEXTO
100
AcDbBlockReference
 66
1
  2
LAVA-ROTULO
 10
25.939999999999998
 20
2.33
 30
0.0
  0
ATTRIB
  5
224
330
17
100
AcDbEntity
  8
A-TEXTO
100
AcDbText
 10
26.189999999999998
 20
1.35
 30
0.0
 40
0.1
  1
LAVA - Contemporary Fire & BBQ · restaurante (adecuación de local)
  7
LAVA-B
 11
26.189999999999998
 21
1.35
 31
0.0
100
AcDbAttribute
  2
PROYECTO
 70
0
 71
1
 72
0
 11
26.189999999999998
 21
1.35
 31
0.0
  0
ATTRIB
  5
225
330
17
100
AcDbEntity
  8
A-TEXTO
100
AcDbText
 10
26.189999999999998
 20
1.09
 30
0.0
 40
0.08
  1
Local ex-Marna's · Terrazas Lindora (C.C. abierto, condominio) · Santa Ana, San José, CR
  7
LAVA
 11
26.189999999999998
 21
1.09
 31
0.0
100
AcDbAttribute
  2
UBICACION
 70
0
 71
1
 72
0
 11
26.189999999999998
 21
1.09
 31
0.0
  0
ATTRIB
  5
226
330
17
100
AcDbEntity
  8
A-TEXTO
100
AcDbText
 10
26.189999999999998
 20
0.71
 30
0.0
 40
0.15
  1
Condiciones existentes (levantamiento Marna’s)
  7
LAVA-B
 11
26.189999999999998
 21
0.71
 31
0.0
100
AcDbAttribute
  2
DOCUMENTO
 70
0
 71
1
 72
0
 11
26.189999999999998
 21
0.71
 31
0.0
  0
ATTRIB
  5
227
330
17
100
AcDbEntity
  8
A-TEXTO
100
AcDbText
 10
26.189999999999998
 20
0.3800000000000001
 30
0.0
 40
0.085
  1
ANTEPROYECTO / PRELIMINAR — a validar por el profesional responsable (CFIA)
  7
LAVA-B
 11
26.189999999999998
 21
0.3800000000000001
 31
0.0
100
AcDbAttribute
  2
ESTADO
 70
0
 71
1
 72
0
 11
26.189999999999998
 21
0.3800000000000001
 31
0.0
  0
ATTRIB
  5
228
330
17
100
AcDbEntity
  8
A-TEXTO
100
AcDbText
 10
26.189999999999998
 20
0.1299999999999999
 30
0.0
 40
0.075
  1
Archivo base editable: verificar en sitio, ajustar y firmar. No es plano constructivo.
  7
LAVA
 11
26.189999999999998
 21
0.1299999999999999
 31
0.0
100
AcDbAttribute
  2
NOTA
 70
0
 71
1
 72
0
 11
26.189999999999998
 21
0.1299999999999999
 31
0.0
  0
ATTRIB
  5
229
330
17
100
AcDbEntity
  8
A-TEXTO
100
AcDbText
 10
26.189999999999998
 20
-0.52
 30
0.0
 40
0.075
  1
Unidades: metros (1 unidad = 1 m) · imprimir a 1:50 en A2 · cotas ±2 cm (base: PDF de Marna’s)
  7
LAVA
 11
26.189999999999998
 21
-0.52
 31
0.0
100
AcDbAttribute
  2
ESCALA
 70
0
 71
1
 72
0
 11
26.189999999999998
 21
-0.52
 31
0.0
  0
ATTRIB
  5
22A
330
17
100
AcDbEntity
  8
A-TEXTO
100
AcDbText
 10
26.189999999999998
 20
-0.77
 30
0.0
 40
0.075
  1
Layout v3.0 · 2026-09-25 · AutoCAD 2018 DXF
  7
LAVA
 11
26.189999999999998
 21
-0.77
 31
0.0
100
AcDbAttribute
  2
VERSION
 70
0
 71
1
 72
0
 11
26.189999999999998
 21
-0.77
 31
0.0
  0
ATTRIB
  5
22B
330
17
100
AcDbEntity
  8
A-TEXTO
100
AcDbText
 10
26.189999999999998
 20
-1.02
 30
0.0
 40
0.075
  1
LAVA_base_v3_existente.dxf
  7
LAVA
 11
26.189999999999998
 21
-1.02
 31
0.0
100
AcDbAttribute
  2
ARCHIVO
 70
0
 71
1
 72
0
 11
26.189999999999998
 21
-1.02
 31
0.0
  0
ATTRIB
  5
22C
330
17
100
AcDbEntity
  8
A-TEXTO
100
AcDbText
 10
33.14
 20
1.58
 30
0.0
 40
0.075
  1
Nombre: ________________
  7
LAVA
 11
33.14
 21
1.58
 31
0.0
100
AcDbAttribute
  2
PROFESIONAL
 70
0
 71
1
 72
0
 11
33.14
 21
1.58
 31
0.0
  0
ATTRIB
  5
22D
330
17
100
AcDbEntity
  8
A-TEXTO
100
AcDbText
 10
33.14
 20
1.28
 30
0.0
 40
0.075
  1
Carné CFIA: __________
  7
LAVA
 11
33.14
 21
1.28
 31
0.0
100
AcDbAttribute
  2
CARNE_CFIA
 70
0
 71
1
 72
0
 11
33.14
 21
1.28
 31
0.0
  0
ATTRIB
  5
22E
330
17
100
AcDbEntity
  8
A-TEXTO
100
AcDbText
 10
33.14
 20
0.98
 30
0.0
 40
0.075
  1
Disciplina: arquitectura
  7
LAVA
 11
33.14
 21
0.98
 31
0.0
100
AcDbAttribute
  2
DISCIPLINA
 70
0
 71
1
 72
0
 11
33.14
 21
0.98
 31
0.0
  0
SEQEND
  5
223
330
222
100
AcDbEntity
  8
A-TEXTO
  0
TEXT
  5
22F
330
17
100
AcDbEntity
  8
A-TEXTO
100
AcDbText
 10
25.939999999999998
 20
-1.7200000000000002
 30
0.0
 40
0.1
  1
NOTAS GENERALES
  7
LAVA-B
 11
25.939999999999998
 21
-1.7200000000000002
 31
0.0
100
AcDbText
 73
2
  0
TEXT
  5
230
330
17
100
AcDbEntity
  8
A-TEXTO
100
AcDbText
 10
25.99
 20
-1.9900000000000002
 30
0.0
 40
0.075
  1
•
  7
LAVA
 11
25.99
 21
-1.9900000000000002
 31
0.0
100
AcDbText
 73
2
  0
MTEXT
  5
231
330
17
100
AcDbEntity
  8
A-TEXTO
 62
1
100
AcDbMText
 10
26.189999999999998
 20
-1.9400000000000002
 30
0.0
 40
0.075
 41
9.7
 71
1
  1
ANTEPROYECTO / PRELIMINAR — a validar por el profesional responsable (CFIA). Nada en este archivo declara cumplimiento normativo final.
  7
LAVA-B
  0
TEXT
  5
232
330
17
100
AcDbEntity
  8
A-TEXTO
100
AcDbText
 10
25.99
 20
-2.18525
 30
0.0
 40
0.075
  1
•
  7
LAVA
 11
25.99
 21
-2.18525
 31
0.0
100
AcDbText
 73
2
  0
MTEXT
  5
233
330
17
100
AcDbEntity
  8
A-TEXTO
100
AcDbMText
 10
26.189999999999998
 20
-2.13525
 30
0.0
 40
0.075
 41
9.7
 71
1
  3
Coordenadas: 1 unidad = 1 m. Origen = eje A (X = 0) / eje 1 (Y = 0). X crece hacia la fachada (este). Y del DXF = −Y de data/*.json (en los JSON Y crece hacia el sur); el UCS guardado «LAVA-DATOS» reproduce las coordenadas de los JSON. «Norte» = part
  1
e superior del PDF de Marna’s (no es norte geográfico).
  7
LAVA
  0
TEXT
  5
234
330
17
100
AcDbEntity
  8
A-TEXTO
100
AcDbText
 10
25.99
 20
-2.50575
 30
0.0
 40
0.075
  1
•
  7
LAVA
 11
25.99
 21
-2.50575
 31
0.0
100
AcDbText
 73
2
  0
MTEXT
  5
235
330
17
100
AcDbEntity
  8
A-TEXTO
100
AcDbMText
 10
26.189999999999998
 20
-2.45575
 30
0.0
 40
0.075
 41
9.7
 71
1
  1
Base: Marnas_Terrazas_Rev8_Opcion1.pdf (AutoCAD, A2, escala 1:50). Geometría extraída de los vectores del PDF. Tolerancia: Coordenadas +-2 cm respecto al PDF; todo debe verificarse en sitio.
  7
LAVA
  0
TEXT
  5
236
330
17
100
AcDbEntity
  8
A-TEXTO
100
AcDbText
 10
25.99
 20
-2.82625
 30
0.0
 40
0.075
  1
•
  7
LAVA
 11
25.99
 21
-2.82625
 31
0.0
100
AcDbText
 73
2
  0
MTEXT
  5
237
330
17
100
AcDbEntity
  8
A-TEXTO
100
AcDbMText
 10
26.189999999999998
 20
-2.77625
 30
0.0
 40
0.075
 41
9.7
 71
1
  1
Cielo: altura supuesta 3.00 m — VERIFY ON SITE. Altura libre y altura a losa NO legibles en el PDF: VERIFY ON SITE (clave para campana, ductos, smoker y cielo expuesto).
  7
LAVA
  0
TEXT
  5
238
330
17
100
AcDbEntity
  8
A-TEXTO
100
AcDbText
 10
25.99
 20
-3.14675
 30
0.0
 40
0.075
  1
•
  7
LAVA
 11
25.99
 21
-3.14675
 31
0.0
100
AcDbText
 73
2
  0
MTEXT
  5
239
330
17
100
AcDbEntity
  8
A-TEXTO
100
AcDbMText
 10
26.189999999999998
 20
-3.09675
 30
0.0
 40
0.075
 41
9.7
 71
1
  1
Contenido: solo condiciones existentes (muros, columnas, ductos, escalera, vitrinas, puertas, campana de Marna’s, puntos húmedos). La propuesta LAVA está en LAVA_base_v3.dxf.
  7
LAVA
  0
TEXT
  5
23A
330
17
100
AcDbEntity
  8
A-TEXTO
100
AcDbText
 10
25.99
 20
-3.46725
 30
0.0
 40
0.075
  1
•
  7
LAVA
 11
25.99
 21
-3.46725
 31
0.0
100
AcDbText
 73
2
  0
MTEXT
  5
23B
330
17
100
AcDbEntity
  8
A-TEXTO
100
AcDbMText
 10
26.189999999999998
 20
-3.41725
 30
0.0
 40
0.075
 41
9.7
 71
1
  1
Uso de ductos, espesores y altura libre: VERIFY ON SITE. Lectura estructural = criterio visual del PDF, no evaluación estructural.
  7
LAVA
  0
TEXT
  5
23C
330
17
100
AcDbEntity
  8
A-TEXTO
100
AcDbText
 10
25.939999999999998
 20
-4.0625
 30
0.0
 40
0.1
  1
CAPAS (nombre · contenido)
  7
LAVA-B
 11
25.939999999999998
 21
-4.0625
 31
0.0
100
AcDbText
 73
2
  0
LINE
  5
23D
330
17
100
AcDbEntity
  8
A-EJE
100
AcDbLine
 10
25.939999999999998
 20
-4.322500000000001
 30
0.0
 11
26.74
 21
-4.322500000000001
 31
0.0
  0
TEXT
  5
23E
330
17
100
AcDbEntity
  8
A-TEXTO
100
AcDbText
 10
26.939999999999998
 20
-4.322500000000001
 30
0.0
 40
0.07
  1
A-EJE — Ejes de columnas A-B-C / 1-2
  7
LAVA
 11
26.939999999999998
 21
-4.322500000000001
 31
0.0
100
AcDbText
 73
2
  0
LINE
  5
23F
330
17
100
AcDbEntity
  8
A-MURO-EXIST
100
AcDbLine
 10
25.939999999999998
 20
-4.522500000000001
 30
0.0
 11
26.74
 21
-4.522500000000001
 31
0.0
  0
TEXT
  5
240
330
17
100
AcDbEntity
  8
A-TEXTO
100
AcDbText
 10
26.939999999999998
 20
-4.522500000000001
 30
0.0
 40
0.07
  1
A-MURO-EXIST — EXISTING WALL: muros existentes (IP-KB sin trama = división liviana)
  7
LAVA
 11
26.939999999999998
 21
-4.522500000000001
 31
0.0
100
AcDbText
 73
2
  0
HATCH
  5
241
330
17
100
AcDbEntity
  8
A-MURO-EXIST-TRAMA
100
AcDbHatch
 10
0.0
 20
0.0
 30
0.0
210
0.0
220
0.0
230
1.0
  2
ANSI31
 70
0
 71
0
 91
1
 92
3
 72
0
 73
1
 93
4
 10
26.74
 20
-4.662500000000001
 10
26.74
 20
-4.782500000000001
 10
25.939999999999998
 20
-4.782500000000001
 10
25.939999999999998
 20
-4.662500000000001
 97
0
 75
1
 76
1
 52
0.0
 41
0.02
 77
0
 78
1
 53
45.0
 43
0.0
 44
0.0
 45
-0.0449012806
 46
0.0449012806
 79
0
 98
0
  0
TEXT
  5
242
330
17
100
AcDbEntity
  8
A-TEXTO
100
AcDbText
 10
26.939999999999998
 20
-4.722500000000001
 30
0.0
 40
0.07
  1
A-MURO-EXIST-TRAMA — Trama de muro existente
  7
LAVA
 11
26.939999999999998
 21
-4.722500000000001
 31
0.0
100
AcDbText
 73
2
  0
LINE
  5
243
330
17
100
AcDbEntity
  8
A-VIDRIO
100
AcDbLine
 10
25.939999999999998
 20
-4.922500000000001
 30
0.0
 11
26.74
 21
-4.922500000000001
 31
0.0
  0
TEXT
  5
244
330
17
100
AcDbEntity
  8
A-TEXTO
100
AcDbText
 10
26.939999999999998
 20
-4.922500000000001
 30
0.0
 40
0.07
  1
A-VIDRIO — Vidrio existente: vitrinas de fachada y ventana sur del ala
  7
LAVA
 11
26.939999999999998
 21
-4.922500000000001
 31
0.0
100
AcDbText
 73
2
  0
LINE
  5
245
330
17
100
AcDbEntity
  8
A-PUERTA
100
AcDbLine
 10
25.939999999999998
 20
-5.122500000000001
 30
0.0
 11
26.74
 21
-5.122500000000001
 31
0.0
  0
TEXT
  5
246
330
17
100
AcDbEntity
  8
A-TEXTO
100
AcDbText
 10
26.939999999999998
 20
-5.122500000000001
 30
0.0
 40
0.07
  1
A-PUERTA — Puerta principal existente (giro de hojas) y vanos existentes
  7
LAVA
 11
26.939999999999998
 21
-5.122500000000001
 31
0.0
100
AcDbText
 73
2
  0
LINE
  5
247
330
17
100
AcDbEntity
  8
A-COLUMNA
100
AcDbLine
 10
25.939999999999998
 20
-5.322500000000002
 30
0.0
 11
26.74
 21
-5.322500000000002
 31
0.0
  0
TEXT
  5
248
330
17
100
AcDbEntity
  8
A-TEXTO
100
AcDbText
 10
26.939999999999998
 20
-5.322500000000002
 30
0.0
 40
0.07
  1
A-COLUMNA — Columnas (contorno)
  7
LAVA
 11
26.939999999999998
 21
-5.322500000000002
 31
0.0
100
AcDbText
 73
2
  0
HATCH
  5
249
330
17
100
AcDbEntity
  8
A-COLUMNA-TRAMA
100
AcDbHatch
 10
0.0
 20
0.0
 30
0.0
210
0.0
220
0.0
230
1.0
  2
SOLID
 70
1
 71
0
 91
1
 92
3
 72
0
 73
1
 93
4
 10
26.74
 20
-5.462500000000002
 10
26.74
 20
-5.582500000000001
 10
25.939999999999998
 20
-5.582500000000001
 10
25.939999999999998
 20
-5.462500000000002
 97
0
 75
1
 76
1
 98
0
  0
TEXT
  5
24A
330
17
100
AcDbEntity
  8
A-TEXTO
100
AcDbText
 10
26.939999999999998
 20
-5.522500000000002
 30
0.0
 40
0.07
  1
A-COLUMNA-TRAMA — Relleno de columnas
  7
LAVA
 11
26.939999999999998
 21
-5.522500000000002
 31
0.0
100
AcDbText
 73
2
  0
LINE
  5
24B
330
17
100
AcDbEntity
  8
A-ESCALERA
100
AcDbLine
 10
25.939999999999998
 20
-5.722500000000002
 30
0.0
 11
26.74
 21
-5.722500000000002
 31
0.0
  0
TEXT
  5
24C
330
17
100
AcDbEntity
  8
A-TEXTO
100
AcDbText
 10
26.939999999999998
 20
-5.722500000000002
 30
0.0
 40
0.07
  1
A-ESCALERA — Escalera del edificio (fuera del local)
  7
LAVA
 11
26.939999999999998
 21
-5.722500000000002
 31
0.0
100
AcDbText
 73
2
  0
LINE
  5
24D
330
17
100
AcDbEntity
  8
A-DUCTO
100
AcDbLine
 10
25.939999999999998
 20
-5.922500000000002
 30
0.0
 11
26.74
 21
-5.922500000000002
 31
0.0
  0
TEXT
  5
24E
330
17
100
AcDbEntity
  8
A-TEXTO
100
AcDbText
 10
26.939999999999998
 20
-5.922500000000002
 30
0.0
 40
0.07
  1
A-DUCTO — Ductos existentes (shafts)
  7
LAVA
 11
26.939999999999998
 21
-5.922500000000002
 31
0.0
100
AcDbText
 73
2
  0
LINE
  5
24F
330
17
100
AcDbEntity
  8
A-CONTEXTO
100
AcDbLine
 10
25.939999999999998
 20
-6.122500000000002
 30
0.0
 11
26.74
 21
-6.122500000000002
 31
0.0
  0
TEXT
  5
250
330
17
100
AcDbEntity
  8
A-TEXTO
100
AcDbText
 10
26.939999999999998
 20
-6.122500000000002
 30
0.0
 40
0.07
  1
A-CONTEXTO — Contexto fuera del local (puertas vecinas, terraza)
  7
LAVA
 11
26.939999999999998
 21
-6.122500000000002
 31
0.0
100
AcDbText
 73
2
  0
LINE
  5
251
330
17
100
AcDbEntity
  8
A-EQUIPO-ALTO
100
AcDbLine
 10
25.939999999999998
 20
-6.3225000000000025
 30
0.0
 11
26.74
 21
-6.3225000000000025
 31
0.0
  0
TEXT
  5
252
330
17
100
AcDbEntity
  8
A-TEXTO
100
AcDbText
 10
26.939999999999998
 20
-6.3225000000000025
 30
0.0
 40
0.07
  1
A-EQUIPO-ALTO — Equipo existente en altura: campana de Marna’s (a retirar según propuesta)
  7
LAVA
 11
26.939999999999998
 21
-6.3225000000000025
 31
0.0
100
AcDbText
 73
2
  0
LINE
  5
253
330
17
100
AcDbEntity
  8
A-COTA
100
AcDbLine
 10
25.939999999999998
 20
-6.522500000000003
 30
0.0
 11
26.74
 21
-6.522500000000003
 31
0.0
  0
TEXT
  5
254
330
17
100
AcDbEntity
  8
A-TEXTO
100
AcDbText
 10
26.939999999999998
 20
-6.522500000000003
 30
0.0
 40
0.07
  1
A-COTA — Cotas (entidades DIMENSION, estilo LAVA-50)
  7
LAVA
 11
26.939999999999998
 21
-6.522500000000003
 31
0.0
100
AcDbText
 73
2
  0
TEXT
  5
255
330
17
100
AcDbEntity
  8
A-TEXTO
100
AcDbText
 10
26.339999999999996
 20
-6.722500000000003
 30
0.0
 40
0.07
  1
Abc 123
  7
LAVA
 72
1
 11
26.339999999999996
 21
-6.722500000000003
 31
0.0
100
AcDbText
 73
2
  0
TEXT
  5
256
330
17
100
AcDbEntity
  8
A-TEXTO
100
AcDbText
 10
26.939999999999998
 20
-6.722500000000003
 30
0.0
 40
0.07
  1
A-TEXTO — Textos, rótulo, notas y cuadros
  7
LAVA
 11
26.939999999999998
 21
-6.722500000000003
 31
0.0
100
AcDbText
 73
2
  0
LINE
  5
257
330
17
100
AcDbEntity
  8
S-SEGURIDAD
100
AcDbLine
 10
25.939999999999998
 20
-6.922500000000003
 30
0.0
 11
26.74
 21
-6.922500000000003
 31
0.0
  0
TEXT
  5
258
330
17
100
AcDbEntity
  8
A-TEXTO
100
AcDbText
 10
26.939999999999998
 20
-6.922500000000003
 30
0.0
 40
0.07
  1
S-SEGURIDAD — Barrido de la puerta principal: área libre de egreso
  7
LAVA
 11
26.939999999999998
 21
-6.922500000000003
 31
0.0
100
AcDbText
 73
2
  0
LINE
  5
259
330
17
100
AcDbEntity
  8
M-EXTRACCION
100
AcDbLine
 10
25.939999999999998
 20
-7.122500000000003
 30
0.0
 11
26.74
 21
-7.122500000000003
 31
0.0
  0
TEXT
  5
25A
330
17
100
AcDbEntity
  8
A-TEXTO
100
AcDbText
 10
26.939999999999998
 20
-7.122500000000003
 30
0.0
 40
0.07
  1
M-EXTRACCION — Collarín / ducto existente de la campana de Marna’s (VERIFY ON SITE)
  7
LAVA
 11
26.939999999999998
 21
-7.122500000000003
 31
0.0
100
AcDbText
 73
2
  0
LINE
  5
25B
330
17
100
AcDbEntity
  8
P-SANITARIO
100
AcDbLine
 10
25.939999999999998
 20
-7.322500000000003
 30
0.0
 11
26.74
 21
-7.322500000000003
 31
0.0
  0
TEXT
  5
25C
330
17
100
AcDbEntity
  8
A-TEXTO
100
AcDbText
 10
26.939999999999998
 20
-7.322500000000003
 30
0.0
 40
0.07
  1
P-SANITARIO — Puntos húmedos existentes WP1–WP6 (drenajes: VERIFY ON SITE)
  7
LAVA
 11
26.939999999999998
 21
-7.322500000000003
 31
0.0
100
AcDbText
 73
2
  0
TEXT
  5
25D
330
17
100
AcDbEntity
  8
A-TEXTO
100
AcDbText
 10
-2.215
 20
-14.228
 30
0.0
 40
0.09450000000000001
  1
MUROS EXISTENTES (lectura del PDF)
  7
LAVA-B
 11
-2.215
 21
-14.228
 31
0.0
100
AcDbText
 73
2
  0
TEXT
  5
25E
330
17
100
AcDbEntity
  8
A-TEXTO
100
AcDbText
 10
-2.165
 20
-14.420499999999999
 30
0.0
 40
0.07
  1
ID
  7
LAVA-B
 11
-2.165
 21
-14.420499999999999
 31
0.0
100
AcDbText
 73
2
  0
TEXT
  5
25F
330
17
100
AcDbEntity
  8
A-TEXTO
100
AcDbText
 10
-1.0649999999999997
 20
-14.420499999999999
 30
0.0
 40
0.07
  1
Descripción
  7
LAVA-B
 11
-1.0649999999999997
 21
-14.420499999999999
 31
0.0
100
AcDbText
 73
2
  0
TEXT
  5
260
330
17
100
AcDbEntity
  8
A-TEXTO
100
AcDbText
 10
6.135000000000001
 20
-14.420499999999999
 30
0.0
 40
0.07
  1
Espesor
  7
LAVA-B
 11
6.135000000000001
 21
-14.420499999999999
 31
0.0
100
AcDbText
 73
2
  0
TEXT
  5
261
330
17
100
AcDbEntity
  8
A-TEXTO
100
AcDbText
 10
7.135000000000001
 20
-14.420499999999999
 30
0.0
 40
0.07
  1
Trama
  7
LAVA-B
 11
7.135000000000001
 21
-14.420499999999999
 31
0.0
100
AcDbText
 73
2
  0
TEXT
  5
262
330
17
100
AcDbEntity
  8
A-TEXTO
100
AcDbText
 10
7.9350000000000005
 20
-14.420499999999999
 30
0.0
 40
0.07
  1
Lectura estructural (criterio visual del PDF — VERIFY ON SITE)
  7
LAVA-B
 11
7.9350000000000005
 21
-14.420499999999999
 31
0.0
100
AcDbText
 73
2
  0
LINE
  5
263
330
17
100
AcDbEntity
  8
A-TEXTO
370
25
100
AcDbLine
 10
-2.215
 20
-14.494
 30
0.0
 11
13.385000000000002
 21
-14.494
 31
0.0
  0
TEXT
  5
264
330
17
100
AcDbEntity
  8
A-TEXTO
100
AcDbText
 10
-2.165
 20
-14.567499999999999
 30
0.0
 40
0.07
  1
EW-N1
  7
LAVA-B
 11
-2.165
 21
-14.567499999999999
 31
0.0
100
AcDbText
 73
2
  0
TEXT
  5
265
330
17
100
AcDbEntity
  8
A-TEXTO
100
AcDbText
 10
-1.0649999999999997
 20
-14.567499999999999
 30
0.0
 40
0.07
  1
Muro norte (11.6 cm) cocina/barra
  7
LAVA
 11
-1.0649999999999997
 21
-14.567499999999999
 31
0.0
100
AcDbText
 73
2
  0
TEXT
  5
266
330
17
100
AcDbEntity
  8
A-TEXTO
100
AcDbText
 10
6.135000000000001
 20
-14.567499999999999
 30
0.0
 40
0.07
  1
12 cm
  7
LAVA
 11
6.135000000000001
 21
-14.567499999999999
 31
0.0
100
AcDbText
 73
2
  0
TEXT
  5
267
330
17
100
AcDbEntity
  8
A-TEXTO
100
AcDbText
 10
7.135000000000001
 20
-14.567499999999999
 30
0.0
 40
0.07
  1
sí
  7
LAVA
 11
7.135000000000001
 21
-14.567499999999999
 31
0.0
100
AcDbText
 73
2
  0
TEXT
  5
268
330
17
100
AcDbEntity
  8
A-TEXTO
100
AcDbText
 10
7.9350000000000005
 20
-14.567499999999999
 30
0.0
 40
0.07
  1
perimetral - mantener
  7
LAVA
 11
7.9350000000000005
 21
-14.567499999999999
 31
0.0
100
AcDbText
 73
2
  0
LINE
  5
269
330
17
100
AcDbEntity
  8
A-TEXTO
370
5
100
AcDbLine
 10
-2.215
 20
-14.641
 30
0.0
 11
13.385000000000002
 21
-14.641
 31
0.0
  0
TEXT
  5
26A
330
17
100
AcDbEntity
  8
A-TEXTO
100
AcDbText
 10
-2.165
 20
-14.7145
 30
0.0
 40
0.07
  1
EW-N2
  7
LAVA-B
 11
-2.165
 21
-14.7145
 31
0.0
100
AcDbText
 73
2
  0
TEXT
  5
26B
330
17
100
AcDbEntity
  8
A-TEXTO
100
AcDbText
 10
-1.0649999999999997
 20
-14.7145
 30
0.0
 40
0.07
  1
Muro norte salón
  7
LAVA
 11
-1.0649999999999997
 21
-14.7145
 31
0.0
100
AcDbText
 73
2
  0
TEXT
  5
26C
330
17
100
AcDbEntity
  8
A-TEXTO
100
AcDbText
 10
6.135000000000001
 20
-14.7145
 30
0.0
 40
0.07
  1
12 cm
  7
LAVA
 11
6.135000000000001
 21
-14.7145
 31
0.0
100
AcDbText
 73
2
  0
TEXT
  5
26D
330
17
100
AcDbEntity
  8
A-TEXTO
100
AcDbText
 10
7.135000000000001
 20
-14.7145
 30
0.0
 40
0.07
  1
sí
  7
LAVA
 11
7.135000000000001
 21
-14.7145
 31
0.0
100
AcDbText
 73
2
  0
TEXT
  5
26E
330
17
100
AcDbEntity
  8
A-TEXTO
100
AcDbText
 10
7.9350000000000005
 20
-14.7145
 30
0.0
 40
0.07
  1
perimetral - mantener
  7
LAVA
 11
7.9350000000000005
 21
-14.7145
 31
0.0
100
AcDbText
 73
2
  0
LINE
  5
26F
330
17
100
AcDbEntity
  8
A-TEXTO
370
5
100
AcDbLine
 10
-2.215
 20
-14.788
 30
0.0
 11
13.385000000000002
 21
-14.788
 31
0.0
  0
TEXT
  5
270
330
17
100
AcDbEntity
  8
A-TEXTO
100
AcDbText
 10
-2.165
 20
-14.8615
 30
0.0
 40
0.07
  1
EW-PIL
  7
LAVA-B
 11
-2.165
 21
-14.8615
 31
0.0
100
AcDbText
 73
2
  0
TEXT
  5
271
330
17
100
AcDbEntity
  8
A-TEXTO
100
AcDbText
 10
-1.0649999999999997
 20
-14.8615
 30
0.0
 40
0.07
  1
Envolvente de columna A1 con 4-5 celdas de ducto (X). Uso de ductos: VERIFY ON SITE
  7
LAVA
 11
-1.0649999999999997
 21
-14.8615
 31
0.0
100
AcDbText
 73
2
  0
TEXT
  5
272
330
17
100
AcDbEntity
  8
A-TEXTO
100
AcDbText
 10
6.135000000000001
 20
-14.8615
 30
0.0
 40
0.07
  1
143 cm
  7
LAVA
 11
6.135000000000001
 21
-14.8615
 31
0.0
100
AcDbText
 73
2
  0
TEXT
  5
273
330
17
100
AcDbEntity
  8
A-TEXTO
100
AcDbText
 10
7.135000000000001
 20
-14.8615
 30
0.0
 40
0.07
  1
sí
  7
LAVA
 11
7.135000000000001
 21
-14.8615
 31
0.0
100
AcDbText
 73
2
  0
TEXT
  5
274
330
17
100
AcDbEntity
  8
A-TEXTO
100
AcDbText
 10
7.9350000000000005
 20
-14.8615
 30
0.0
 40
0.07
  1
estructural + ductos - mantener
  7
LAVA
 11
7.9350000000000005
 21
-14.8615
 31
0.0
100
AcDbText
 73
2
  0
LINE
  5
275
330
17
100
AcDbEntity
  8
A-TEXTO
370
5
100
AcDbLine
 10
-2.215
 20
-14.935
 30
0.0
 11
13.385000000000002
 21
-14.935
 31
0.0
  0
TEXT
  5
276
330
17
100
AcDbEntity
  8
A-TEXTO
100
AcDbText
 10
-2.165
 20
-15.0085
 30
0.0
 40
0.07
  1
EW-W1
  7
LAVA-B
 11
-2.165
 21
-15.0085
 31
0.0
100
AcDbText
 73
2
  0
TEXT
  5
277
330
17
100
AcDbEntity
  8
A-TEXTO
100
AcDbText
 10
-1.0649999999999997
 20
-15.0085
 30
0.0
 40
0.07
  1
Muro oeste cocina
  7
LAVA
 11
-1.0649999999999997
 21
-15.0085
 31
0.0
100
AcDbText
 73
2
  0
TEXT
  5
278
330
17
100
AcDbEntity
  8
A-TEXTO
100
AcDbText
 10
6.135000000000001
 20
-15.0085
 30
0.0
 40
0.07
  1
12 cm
  7
LAVA
 11
6.135000000000001
 21
-15.0085
 31
0.0
100
AcDbText
 73
2
  0
TEXT
  5
279
330
17
100
AcDbEntity
  8
A-TEXTO
100
AcDbText
 10
7.135000000000001
 20
-15.0085
 30
0.0
 40
0.07
  1
sí
  7
LAVA
 11
7.135000000000001
 21
-15.0085
 31
0.0
100
AcDbText
 73
2
  0
TEXT
  5
27A
330
17
100
AcDbEntity
  8
A-TEXTO
100
AcDbText
 10
7.9350000000000005
 20
-15.0085
 30
0.0
 40
0.07
  1
perimetral - mantener
  7
LAVA
 11
7.9350000000000005
 21
-15.0085
 31
0.0
100
AcDbText
 73
2
  0
LINE
  5
27B
330
17
100
AcDbEntity
  8
A-TEXTO
370
5
100
AcDbLine
 10
-2.215
 20
-15.082
 30
0.0
 11
13.385000000000002
 21
-15.082
 31
0.0
  0
TEXT
  5
27C
330
17
100
AcDbEntity
  8
A-TEXTO
100
AcDbText
 10
-2.165
 20
-15.1555
 30
0.0
 40
0.07
  1
EW-W2
  7
LAVA-B
 11
-2.165
 21
-15.1555
 31
0.0
100
AcDbText
 73
2
  0
TEXT
  5
27D
330
17
100
AcDbEntity
  8
A-TEXTO
100
AcDbText
 10
-1.0649999999999997
 20
-15.1555
 30
0.0
 40
0.07
  1
Muro oeste ala (tramo norte)
  7
LAVA
 11
-1.0649999999999997
 21
-15.1555
 31
0.0
100
AcDbText
 73
2
  0
TEXT
  5
27E
330
17
100
AcDbEntity
  8
A-TEXTO
100
AcDbText
 10
6.135000000000001
 20
-15.1555
 30
0.0
 40
0.07
  1
10 cm
  7
LAVA
 11
6.135000000000001
 21
-15.1555
 31
0.0
100
AcDbText
 73
2
  0
TEXT
  5
27F
330
17
100
AcDbEntity
  8
A-TEXTO
100
AcDbText
 10
7.135000000000001
 20
-15.1555
 30
0.0
 40
0.07
  1
sí
  7
LAVA
 11
7.135000000000001
 21
-15.1555
 31
0.0
100
AcDbText
 73
2
  0
TEXT
  5
280
330
17
100
AcDbEntity
  8
A-TEXTO
100
AcDbText
 10
7.9350000000000005
 20
-15.1555
 30
0.0
 40
0.07
  1
perimetral - mantener
  7
LAVA
 11
7.9350000000000005
 21
-15.1555
 31
0.0
100
AcDbText
 73
2
  0
LINE
  5
281
330
17
100
AcDbEntity
  8
A-TEXTO
370
5
100
AcDbLine
 10
-2.215
 20
-15.229000000000001
 30
0.0
 11
13.385000000000002
 21
-15.229000000000001
 31
0.0
  0
TEXT
  5
282
330
17
100
AcDbEntity
  8
A-TEXTO
100
AcDbText
 10
-2.165
 20
-15.3025
 30
0.0
 40
0.07
  1
EW-W3
  7
LAVA-B
 11
-2.165
 21
-15.3025
 31
0.0
100
AcDbText
 73
2
  0
TEXT
  5
283
330
17
100
AcDbEntity
  8
A-TEXTO
100
AcDbText
 10
-1.0649999999999997
 20
-15.3025
 30
0.0
 40
0.07
  1
Muro oeste ala (tramo sur). Hoja de puerta dibujada por el exterior (Y 10.42-11.48):…
  7
LAVA
 11
-1.0649999999999997
 21
-15.3025
 31
0.0
100
AcDbText
 73
2
  0
TEXT
  5
284
330
17
100
AcDbEntity
  8
A-TEXTO
100
AcDbText
 10
6.135000000000001
 20
-15.3025
 30
0.0
 40
0.07
  1
30 cm
  7
LAVA
 11
6.135000000000001
 21
-15.3025
 31
0.0
100
AcDbText
 73
2
  0
TEXT
  5
285
330
17
100
AcDbEntity
  8
A-TEXTO
100
AcDbText
 10
7.135000000000001
 20
-15.3025
 30
0.0
 40
0.07
  1
sí
  7
LAVA
 11
7.135000000000001
 21
-15.3025
 31
0.0
100
AcDbText
 73
2
  0
TEXT
  5
286
330
17
100
AcDbEntity
  8
A-TEXTO
100
AcDbText
 10
7.9350000000000005
 20
-15.3025
 30
0.0
 40
0.07
  1
perimetral - mantener
  7
LAVA
 11
7.9350000000000005
 21
-15.3025
 31
0.0
100
AcDbText
 73
2
  0
LINE
  5
287
330
17
100
AcDbEntity
  8
A-TEXTO
370
5
100
AcDbLine
 10
-2.215
 20
-15.376000000000001
 30
0.0
 11
13.385000000000002
 21
-15.376000000000001
 31
0.0
  0
TEXT
  5
288
330
17
100
AcDbEntity
  8
A-TEXTO
100
AcDbText
 10
-2.165
 20
-15.4495
 30
0.0
 40
0.07
  1
EW-S1
  7
LAVA-B
 11
-2.165
 21
-15.4495
 31
0.0
100
AcDbText
 73
2
  0
TEXT
  5
289
330
17
100
AcDbEntity
  8
A-TEXTO
100
AcDbText
 10
-1.0649999999999997
 20
-15.4495
 30
0.0
 40
0.07
  1
Muro sur ala
  7
LAVA
 11
-1.0649999999999997
 21
-15.4495
 31
0.0
100
AcDbText
 73
2
  0
TEXT
  5
28A
330
17
100
AcDbEntity
  8
A-TEXTO
100
AcDbText
 10
6.135000000000001
 20
-15.4495
 30
0.0
 40
0.07
  1
13 cm
  7
LAVA
 11
6.135000000000001
 21
-15.4495
 31
0.0
100
AcDbText
 73
2
  0
TEXT
  5
28B
330
17
100
AcDbEntity
  8
A-TEXTO
100
AcDbText
 10
7.135000000000001
 20
-15.4495
 30
0.0
 40
0.07
  1
sí
  7
LAVA
 11
7.135000000000001
 21
-15.4495
 31
0.0
100
AcDbText
 73
2
  0
TEXT
  5
28C
330
17
100
AcDbEntity
  8
A-TEXTO
100
AcDbText
 10
7.9350000000000005
 20
-15.4495
 30
0.0
 40
0.07
  1
perimetral - mantener
  7
LAVA
 11
7.9350000000000005
 21
-15.4495
 31
0.0
100
AcDbText
 73
2
  0
LINE
  5
28D
330
17
100
AcDbEntity
  8
A-TEXTO
370
5
100
AcDbLine
 10
-2.215
 20
-15.523000000000001
 30
0.0
 11
13.385000000000002
 21
-15.523000000000001
 31
0.0
  0
TEXT
  5
28E
330
17
100
AcDbEntity
  8
A-TEXTO
100
AcDbText
 10
-2.165
 20
-15.5965
 30
0.0
 40
0.07
  1
EW-S2
  7
LAVA-B
 11
-2.165
 21
-15.5965
 31
0.0
100
AcDbText
 73
2
  0
TEXT
  5
28F
330
17
100
AcDbEntity
  8
A-TEXTO
100
AcDbText
 10
-1.0649999999999997
 20
-15.5965
 30
0.0
 40
0.07
  1
Muro sur ala
  7
LAVA
 11
-1.0649999999999997
 21
-15.5965
 31
0.0
100
AcDbText
 73
2
  0
TEXT
  5
290
330
17
100
AcDbEntity
  8
A-TEXTO
100
AcDbText
 10
6.135000000000001
 20
-15.5965
 30
0.0
 40
0.07
  1
13 cm
  7
LAVA
 11
6.135000000000001
 21
-15.5965
 31
0.0
100
AcDbText
 73
2
  0
TEXT
  5
291
330
17
100
AcDbEntity
  8
A-TEXTO
100
AcDbText
 10
7.135000000000001
 20
-15.5965
 30
0.0
 40
0.07
  1
sí
  7
LAVA
 11
7.135000000000001
 21
-15.5965
 31
0.0
100
AcDbText
 73
2
  0
TEXT
  5
292
330
17
100
AcDbEntity
  8
A-TEXTO
100
AcDbText
 10
7.9350000000000005
 20
-15.5965
 30
0.0
 40
0.07
  1
perimetral - mantener
  7
LAVA
 11
7.9350000000000005
 21
-15.5965
 31
0.0
100
AcDbText
 73
2
  0
LINE
  5
293
330
17
100
AcDbEntity
  8
A-TEXTO
370
5
100
AcDbLine
 10
-2.215
 20
-15.670000000000002
 30
0.0
 11
13.385000000000002
 21
-15.670000000000002
 31
0.0
  0
TEXT
  5
294
330
17
100
AcDbEntity
  8
A-TEXTO
100
AcDbText
 10
-2.165
 20
-15.743500000000001
 30
0.0
 40
0.07
  1
EW-E1
  7
LAVA-B
 11
-2.165
 21
-15.743500000000001
 31
0.0
100
AcDbText
 73
2
  0
TEXT
  5
295
330
17
100
AcDbEntity
  8
A-TEXTO
100
AcDbText
 10
-1.0649999999999997
 20
-15.743500000000001
 30
0.0
 40
0.07
  1
Muro este ala tramo norte (40 cm, incluye ducto S3)
  7
LAVA
 11
-1.0649999999999997
 21
-15.743500000000001
 31
0.0
100
AcDbText
 73
2
  0
TEXT
  5
296
330
17
100
AcDbEntity
  8
A-TEXTO
100
AcDbText
 10
6.135000000000001
 20
-15.743500000000001
 30
0.0
 40
0.07
  1
40 cm
  7
LAVA
 11
6.135000000000001
 21
-15.743500000000001
 31
0.0
100
AcDbText
 73
2
  0
TEXT
  5
297
330
17
100
AcDbEntity
  8
A-TEXTO
100
AcDbText
 10
7.135000000000001
 20
-15.743500000000001
 30
0.0
 40
0.07
  1
sí
  7
LAVA
 11
7.135000000000001
 21
-15.743500000000001
 31
0.0
100
AcDbText
 73
2
  0
TEXT
  5
298
330
17
100
AcDbEntity
  8
A-TEXTO
100
AcDbText
 10
7.9350000000000005
 20
-15.743500000000001
 30
0.0
 40
0.07
  1
perimetral grueso con ducto S3 - mantener
  7
LAVA
 11
7.9350000000000005
 21
-15.743500000000001
 31
0.0
100
AcDbText
 73
2
  0
LINE
  5
299
330
17
100
AcDbEntity
  8
A-TEXTO
370
5
100
AcDbLine
 10
-2.215
 20
-15.817000000000002
 30
0.0
 11
13.385000000000002
 21
-15.817000000000002
 31
0.0
  0
TEXT
  5
29A
330
17
100
AcDbEntity
  8
A-TEXTO
100
AcDbText
 10
-2.165
 20
-15.890500000000001
 30
0.0
 40
0.07
  1
EW-E2
  7
LAVA-B
 11
-2.165
 21
-15.890500000000001
 31
0.0
100
AcDbText
 73
2
  0
TEXT
  5
29B
330
17
100
AcDbEntity
  8
A-TEXTO
100
AcDbText
 10
-1.0649999999999997
 20
-15.890500000000001
 30
0.0
 40
0.07
  1
Muro oeste de la escalera = muro este del ala
  7
LAVA
 11
-1.0649999999999997
 21
-15.890500000000001
 31
0.0
100
AcDbText
 73
2
  0
TEXT
  5
29C
330
17
100
AcDbEntity
  8
A-TEXTO
100
AcDbText
 10
6.135000000000001
 20
-15.890500000000001
 30
0.0
 40
0.07
  1
23 cm
  7
LAVA
 11
6.135000000000001
 21
-15.890500000000001
 31
0.0
100
AcDbText
 73
2
  0
TEXT
  5
29D
330
17
100
AcDbEntity
  8
A-TEXTO
100
AcDbText
 10
7.135000000000001
 20
-15.890500000000001
 30
0.0
 40
0.07
  1
sí
  7
LAVA
 11
7.135000000000001
 21
-15.890500000000001
 31
0.0
100
AcDbText
 73
2
  0
TEXT
  5
29E
330
17
100
AcDbEntity
  8
A-TEXTO
100
AcDbText
 10
7.9350000000000005
 20
-15.890500000000001
 30
0.0
 40
0.07
  1
muro de escalera - mantener
  7
LAVA
 11
7.9350000000000005
 21
-15.890500000000001
 31
0.0
100
AcDbText
 73
2
  0
LINE
  5
29F
330
17
100
AcDbEntity
  8
A-TEXTO
370
5
100
AcDbLine
 10
-2.215
 20
-15.964000000000002
 30
0.0
 11
13.385000000000002
 21
-15.964000000000002
 31
0.0
  0
TEXT
  5
2A0
330
17
100
AcDbEntity
  8
A-TEXTO
100
AcDbText
 10
-2.165
 20
-16.0375
 30
0.0
 40
0.07
  1
EW-STN
  7
LAVA-B
 11
-2.165
 21
-16.0375
 31
0.0
100
AcDbText
 73
2
  0
TEXT
  5
2A1
330
17
100
AcDbEntity
  8
A-TEXTO
100
AcDbText
 10
-1.0649999999999997
 20
-16.0375
 30
0.0
 40
0.07
  1
Muro norte de escalera (colinda con barra/salón)
  7
LAVA
 11
-1.0649999999999997
 21
-16.0375
 31
0.0
100
AcDbText
 73
2
  0
TEXT
  5
2A2
330
17
100
AcDbEntity
  8
A-TEXTO
100
AcDbText
 10
6.135000000000001
 20
-16.0375
 30
0.0
 40
0.07
  1
23 cm
  7
LAVA
 11
6.135000000000001
 21
-16.0375
 31
0.0
100
AcDbText
 73
2
  0
TEXT
  5
2A3
330
17
100
AcDbEntity
  8
A-TEXTO
100
AcDbText
 10
7.135000000000001
 20
-16.0375
 30
0.0
 40
0.07
  1
sí
  7
LAVA
 11
7.135000000000001
 21
-16.0375
 31
0.0
100
AcDbText
 73
2
  0
TEXT
  5
2A4
330
17
100
AcDbEntity
  8
A-TEXTO
100
AcDbText
 10
7.9350000000000005
 20
-16.0375
 30
0.0
 40
0.07
  1
muro de escalera - mantener
  7
LAVA
 11
7.9350000000000005
 21
-16.0375
 31
0.0
100
AcDbText
 73
2
  0
LINE
  5
2A5
330
17
100
AcDbEntity
  8
A-TEXTO
370
5
100
AcDbLine
 10
-2.215
 20
-16.111
 30
0.0
 11
13.385000000000002
 21
-16.111
 31
0.0
  0
TEXT
  5
2A6
330
17
100
AcDbEntity
  8
A-TEXTO
100
AcDbText
 10
-2.165
 20
-16.1845
 30
0.0
 40
0.07
  1
EW-STE
  7
LAVA-B
 11
-2.165
 21
-16.1845
 31
0.0
100
AcDbText
 73
2
  0
TEXT
  5
2A7
330
17
100
AcDbEntity
  8
A-TEXTO
100
AcDbText
 10
-1.0649999999999997
 20
-16.1845
 30
0.0
 40
0.07
  1
Muro este de escalera
  7
LAVA
 11
-1.0649999999999997
 21
-16.1845
 31
0.0
100
AcDbText
 73
2
  0
TEXT
  5
2A8
330
17
100
AcDbEntity
  8
A-TEXTO
100
AcDbText
 10
6.135000000000001
 20
-16.1845
 30
0.0
 40
0.07
  1
23 cm
  7
LAVA
 11
6.135000000000001
 21
-16.1845
 31
0.0
100
AcDbText
 73
2
  0
TEXT
  5
2A9
330
17
100
AcDbEntity
  8
A-TEXTO
100
AcDbText
 10
7.135000000000001
 20
-16.1845
 30
0.0
 40
0.07
  1
sí
  7
LAVA
 11
7.135000000000001
 21
-16.1845
 31
0.0
100
AcDbText
 73
2
  0
TEXT
  5
2AA
330
17
100
AcDbEntity
  8
A-TEXTO
100
AcDbText
 10
7.9350000000000005
 20
-16.1845
 30
0.0
 40
0.07
  1
muro de escalera - mantener
  7
LAVA
 11
7.9350000000000005
 21
-16.1845
 31
0.0
100
AcDbText
 73
2
  0
LINE
  5
2AB
330
17
100
AcDbEntity
  8
A-TEXTO
370
5
100
AcDbLine
 10
-2.215
 20
-16.258
 30
0.0
 11
13.385000000000002
 21
-16.258
 31
0.0
  0
TEXT
  5
2AC
330
17
100
AcDbEntity
  8
A-TEXTO
100
AcDbText
 10
-2.165
 20
-16.3315
 30
0.0
 40
0.07
  1
EW-S3blk
  7
LAVA-B
 11
-2.165
 21
-16.3315
 31
0.0
100
AcDbText
 73
2
  0
TEXT
  5
2AD
330
17
100
AcDbEntity
  8
A-TEXTO
100
AcDbText
 10
-1.0649999999999997
 20
-16.3315
 30
0.0
 40
0.07
  1
Bloque de ducto S2 al sur del salón
  7
LAVA
 11
-1.0649999999999997
 21
-16.3315
 31
0.0
100
AcDbText
 73
2
  0
TEXT
  5
2AE
330
17
100
AcDbEntity
  8
A-TEXTO
100
AcDbText
 10
6.135000000000001
 20
-16.3315
 30
0.0
 40
0.07
  1
85 cm
  7
LAVA
 11
6.135000000000001
 21
-16.3315
 31
0.0
100
AcDbText
 73
2
  0
TEXT
  5
2AF
330
17
100
AcDbEntity
  8
A-TEXTO
100
AcDbText
 10
7.135000000000001
 20
-16.3315
 30
0.0
 40
0.07
  1
sí
  7
LAVA
 11
7.135000000000001
 21
-16.3315
 31
0.0
100
AcDbText
 73
2
  0
TEXT
  5
2B0
330
17
100
AcDbEntity
  8
A-TEXTO
100
AcDbText
 10
7.9350000000000005
 20
-16.3315
 30
0.0
 40
0.07
  1
ducto S2 - mantener
  7
LAVA
 11
7.9350000000000005
 21
-16.3315
 31
0.0
100
AcDbText
 73
2
  0
LINE
  5
2B1
330
17
100
AcDbEntity
  8
A-TEXTO
370
5
100
AcDbLine
 10
-2.215
 20
-16.404999999999998
 30
0.0
 11
13.385000000000002
 21
-16.404999999999998
 31
0.0
  0
TEXT
  5
2B2
330
17
100
AcDbEntity
  8
A-TEXTO
100
AcDbText
 10
-2.165
 20
-16.478499999999997
 30
0.0
 40
0.07
  1
EW-SD
  7
LAVA-B
 11
-2.165
 21
-16.478499999999997
 31
0.0
100
AcDbText
 73
2
  0
TEXT
  5
2B3
330
17
100
AcDbEntity
  8
A-TEXTO
100
AcDbText
 10
-1.0649999999999997
 20
-16.478499999999997
 30
0.0
 40
0.07
  1
Muro sur salón (18 cm)
  7
LAVA
 11
-1.0649999999999997
 21
-16.478499999999997
 31
0.0
100
AcDbText
 73
2
  0
TEXT
  5
2B4
330
17
100
AcDbEntity
  8
A-TEXTO
100
AcDbText
 10
6.135000000000001
 20
-16.478499999999997
 30
0.0
 40
0.07
  1
18 cm
  7
LAVA
 11
6.135000000000001
 21
-16.478499999999997
 31
0.0
100
AcDbText
 73
2
  0
TEXT
  5
2B5
330
17
100
AcDbEntity
  8
A-TEXTO
100
AcDbText
 10
7.135000000000001
 20
-16.478499999999997
 30
0.0
 40
0.07
  1
sí
  7
LAVA
 11
7.135000000000001
 21
-16.478499999999997
 31
0.0
100
AcDbText
 73
2
  0
TEXT
  5
2B6
330
17
100
AcDbEntity
  8
A-TEXTO
100
AcDbText
 10
7.9350000000000005
 20
-16.478499999999997
 30
0.0
 40
0.07
  1
perimetral - mantener
  7
LAVA
 11
7.9350000000000005
 21
-16.478499999999997
 31
0.0
100
AcDbText
 73
2
  0
LINE
  5
2B7
330
17
100
AcDbEntity
  8
A-TEXTO
370
5
100
AcDbLine
 10
-2.215
 20
-16.551999999999996
 30
0.0
 11
13.385000000000002
 21
-16.551999999999996
 31
0.0
  0
TEXT
  5
2B8
330
17
100
AcDbEntity
  8
A-TEXTO
100
AcDbText
 10
-2.165
 20
-16.625499999999995
 30
0.0
 40
0.07
  1
EW-S1shaft
  7
LAVA-B
 11
-2.165
 21
-16.625499999999995
 31
0.0
100
AcDbText
 73
2
  0
TEXT
  5
2B9
330
17
100
AcDbEntity
  8
A-TEXTO
100
AcDbText
 10
-1.0649999999999997
 20
-16.625499999999995
 30
0.0
 40
0.07
  1
Envolvente ducto S1 al norte (exterior del muro)
  7
LAVA
 11
-1.0649999999999997
 21
-16.625499999999995
 31
0.0
100
AcDbText
 73
2
  0
TEXT
  5
2BA
330
17
100
AcDbEntity
  8
A-TEXTO
100
AcDbText
 10
6.135000000000001
 20
-16.625499999999995
 30
0.0
 40
0.07
  1
83 cm
  7
LAVA
 11
6.135000000000001
 21
-16.625499999999995
 31
0.0
100
AcDbText
 73
2
  0
TEXT
  5
2BB
330
17
100
AcDbEntity
  8
A-TEXTO
100
AcDbText
 10
7.135000000000001
 20
-16.625499999999995
 30
0.0
 40
0.07
  1
sí
  7
LAVA
 11
7.135000000000001
 21
-16.625499999999995
 31
0.0
100
AcDbText
 73
2
  0
TEXT
  5
2BC
330
17
100
AcDbEntity
  8
A-TEXTO
100
AcDbText
 10
7.9350000000000005
 20
-16.625499999999995
 30
0.0
 40
0.07
  1
ducto S1 - mantener
  7
LAVA
 11
7.9350000000000005
 21
-16.625499999999995
 31
0.0
100
AcDbText
 73
2
  0
LINE
  5
2BD
330
17
100
AcDbEntity
  8
A-TEXTO
370
5
100
AcDbLine
 10
-2.215
 20
-16.698999999999995
 30
0.0
 11
13.385000000000002
 21
-16.698999999999995
 31
0.0
  0
TEXT
  5
2BE
330
17
100
AcDbEntity
  8
A-TEXTO
100
AcDbText
 10
-2.165
 20
-16.772499999999994
 30
0.0
 40
0.07
  1
IP-KB
  7
LAVA-B
 11
-2.165
 21
-16.772499999999994
 31
0.0
100
AcDbText
 73
2
  0
TEXT
  5
2BF
330
17
100
AcDbEntity
  8
A-TEXTO
100
AcDbText
 10
-1.0649999999999997
 20
-16.772499999999994
 30
0.0
 40
0.07
  1
Division actual cocina / barra-postres (verde en PDF). Paso libre al sur Y 4.26-4.986
  7
LAVA
 11
-1.0649999999999997
 21
-16.772499999999994
 31
0.0
100
AcDbText
 73
2
  0
TEXT
  5
2C0
330
17
100
AcDbEntity
  8
A-TEXTO
100
AcDbText
 10
6.135000000000001
 20
-16.772499999999994
 30
0.0
 40
0.07
  1
10 cm
  7
LAVA
 11
6.135000000000001
 21
-16.772499999999994
 31
0.0
100
AcDbText
 73
2
  0
TEXT
  5
2C1
330
17
100
AcDbEntity
  8
A-TEXTO
100
AcDbText
 10
7.135000000000001
 20
-16.772499999999994
 30
0.0
 40
0.07
  1
no
  7
LAVA
 11
7.135000000000001
 21
-16.772499999999994
 31
0.0
100
AcDbText
 73
2
  0
TEXT
  5
2C2
330
17
100
AcDbEntity
  8
A-TEXTO
100
AcDbText
 10
7.9350000000000005
 20
-16.772499999999994
 30
0.0
 40
0.07
  1
LIVIANA (10 cm, sin trama de mamposteria, sin columnas) - demolible
  7
LAVA
 11
7.9350000000000005
 21
-16.772499999999994
 31
0.0
100
AcDbText
 73
2
  0
LINE
  5
2C3
330
17
100
AcDbEntity
  8
A-TEXTO
370
5
100
AcDbLine
 10
-2.215
 20
-16.845999999999993
 30
0.0
 11
13.385000000000002
 21
-16.845999999999993
 31
0.0
  0
TEXT
  5
2C4
330
17
100
AcDbEntity
  8
A-TEXTO
100
AcDbText
 10
-2.165
 20
-16.919499999999992
 30
0.0
 40
0.07
  1
IP-P0a
  7
LAVA-B
 11
-2.165
 21
-16.919499999999992
 31
0.0
100
AcDbText
 73
2
  0
TEXT
  5
2C5
330
17
100
AcDbEntity
  8
A-TEXTO
100
AcDbText
 10
-1.0649999999999997
 20
-16.919499999999992
 30
0.0
 40
0.07
  1
Division cocina/pilas (oeste de ventana platos sucios)
  7
LAVA
 11
-1.0649999999999997
 21
-16.919499999999992
 31
0.0
100
AcDbText
 73
2
  0
TEXT
  5
2C6
330
17
100
AcDbEntity
  8
A-TEXTO
100
AcDbText
 10
6.135000000000001
 20
-16.919499999999992
 30
0.0
 40
0.07
  1
10 cm
  7
LAVA
 11
6.135000000000001
 21
-16.919499999999992
 31
0.0
100
AcDbText
 73
2
  0
TEXT
  5
2C7
330
17
100
AcDbEntity
  8
A-TEXTO
100
AcDbText
 10
7.135000000000001
 20
-16.919499999999992
 30
0.0
 40
0.07
  1
sí
  7
LAVA
 11
7.135000000000001
 21
-16.919499999999992
 31
0.0
100
AcDbText
 73
2
  0
TEXT
  5
2C8
330
17
100
AcDbEntity
  8
A-TEXTO
100
AcDbText
 10
7.9350000000000005
 20
-16.919499999999992
 30
0.0
 40
0.07
  1
liviana 10 cm
  7
LAVA
 11
7.9350000000000005
 21
-16.919499999999992
 31
0.0
100
AcDbText
 73
2
  0
LINE
  5
2C9
330
17
100
AcDbEntity
  8
A-TEXTO
370
5
100
AcDbLine
 10
-2.215
 20
-16.99299999999999
 30
0.0
 11
13.385000000000002
 21
-16.99299999999999
 31
0.0
  0
TEXT
  5
2CA
330
17
100
AcDbEntity
  8
A-TEXTO
100
AcDbText
 10
-2.165
 20
-17.06649999999999
 30
0.0
 40
0.07
  1
IP-P0b
  7
LAVA-B
 11
-2.165
 21
-17.06649999999999
 31
0.0
100
AcDbText
 73
2
  0
TEXT
  5
2CB
330
17
100
AcDbEntity
  8
A-TEXTO
100
AcDbText
 10
-1.0649999999999997
 20
-17.06649999999999
 30
0.0
 40
0.07
  1
Division cocina/pilas (este de ventana platos sucios)
  7
LAVA
 11
-1.0649999999999997
 21
-17.06649999999999
 31
0.0
100
AcDbText
 73
2
  0
TEXT
  5
2CC
330
17
100
AcDbEntity
  8
A-TEXTO
100
AcDbText
 10
6.135000000000001
 20
-17.06649999999999
 30
0.0
 40
0.07
  1
10 cm
  7
LAVA
 11
6.135000000000001
 21
-17.06649999999999
 31
0.0
100
AcDbText
 73
2
  0
TEXT
  5
2CD
330
17
100
AcDbEntity
  8
A-TEXTO
100
AcDbText
 10
7.135000000000001
 20
-17.06649999999999
 30
0.0
 40
0.07
  1
sí
  7
LAVA
 11
7.135000000000001
 21
-17.06649999999999
 31
0.0
100
AcDbText
 73
2
  0
TEXT
  5
2CE
330
17
100
AcDbEntity
  8
A-TEXTO
100
AcDbText
 10
7.9350000000000005
 20
-17.06649999999999
 30
0.0
 40
0.07
  1
liviana 10 cm
  7
LAVA
 11
7.9350000000000005
 21
-17.06649999999999
 31
0.0
100
AcDbText
 73
2
  0
LINE
  5
2CF
330
17
100
AcDbEntity
  8
A-TEXTO
370
5
100
AcDbLine
 10
-2.215
 20
-17.13999999999999
 30
0.0
 11
13.385000000000002
 21
-17.13999999999999
 31
0.0
  0
TEXT
  5
2D0
330
17
100
AcDbEntity
  8
A-TEXTO
100
AcDbText
 10
-2.165
 20
-17.21349999999999
 30
0.0
 40
0.07
  1
IP-P1
  7
LAVA-B
 11
-2.165
 21
-17.21349999999999
 31
0.0
100
AcDbText
 73
2
  0
TEXT
  5
2D1
330
17
100
AcDbEntity
  8
A-TEXTO
100
AcDbText
 10
-1.0649999999999997
 20
-17.21349999999999
 30
0.0
 40
0.07
  1
Division pasillo/pilas tramo norte
  7
LAVA
 11
-1.0649999999999997
 21
-17.21349999999999
 31
0.0
100
AcDbText
 73
2
  0
TEXT
  5
2D2
330
17
100
AcDbEntity
  8
A-TEXTO
100
AcDbText
 10
6.135000000000001
 20
-17.21349999999999
 30
0.0
 40
0.07
  1
10 cm
  7
LAVA
 11
6.135000000000001
 21
-17.21349999999999
 31
0.0
100
AcDbText
 73
2
  0
TEXT
  5
2D3
330
17
100
AcDbEntity
  8
A-TEXTO
100
AcDbText
 10
7.135000000000001
 20
-17.21349999999999
 30
0.0
 40
0.07
  1
sí
  7
LAVA
 11
7.135000000000001
 21
-17.21349999999999
 31
0.0
100
AcDbText
 73
2
  0
TEXT
  5
2D4
330
17
100
AcDbEntity
  8
A-TEXTO
100
AcDbText
 10
7.9350000000000005
 20
-17.21349999999999
 30
0.0
 40
0.07
  1
liviana 10 cm
  7
LAVA
 11
7.9350000000000005
 21
-17.21349999999999
 31
0.0
100
AcDbText
 73
2
  0
LINE
  5
2D5
330
17
100
AcDbEntity
  8
A-TEXTO
370
5
100
AcDbLine
 10
-2.215
 20
-17.28699999999999
 30
0.0
 11
13.385000000000002
 21
-17.28699999999999
 31
0.0
  0
TEXT
  5
2D6
330
17
100
AcDbEntity
  8
A-TEXTO
100
AcDbText
 10
-2.165
 20
-17.360499999999988
 30
0.0
 40
0.07
  1
IP-P2
  7
LAVA-B
 11
-2.165
 21
-17.360499999999988
 31
0.0
100
AcDbText
 73
2
  0
TEXT
  5
2D7
330
17
100
AcDbEntity
  8
A-TEXTO
100
AcDbText
 10
-1.0649999999999997
 20
-17.360499999999988
 30
0.0
 40
0.07
  1
Division pasillo/pilas tramo sur
  7
LAVA
 11
-1.0649999999999997
 21
-17.360499999999988
 31
0.0
100
AcDbText
 73
2
  0
TEXT
  5
2D8
330
17
100
AcDbEntity
  8
A-TEXTO
100
AcDbText
 10
6.135000000000001
 20
-17.360499999999988
 30
0.0
 40
0.07
  1
10 cm
  7
LAVA
 11
6.135000000000001
 21
-17.360499999999988
 31
0.0
100
AcDbText
 73
2
  0
TEXT
  5
2D9
330
17
100
AcDbEntity
  8
A-TEXTO
100
AcDbText
 10
7.135000000000001
 20
-17.360499999999988
 30
0.0
 40
0.07
  1
sí
  7
LAVA
 11
7.135000000000001
 21
-17.360499999999988
 31
0.0
100
AcDbText
 73
2
  0
TEXT
  5
2DA
330
17
100
AcDbEntity
  8
A-TEXTO
100
AcDbText
 10
7.9350000000000005
 20
-17.360499999999988
 30
0.0
 40
0.07
  1
liviana 10 cm
  7
LAVA
 11
7.9350000000000005
 21
-17.360499999999988
 31
0.0
100
AcDbText
 73
2
  0
LINE
  5
2DB
330
17
100
AcDbEntity
  8
A-TEXTO
370
5
100
AcDbLine
 10
-2.215
 20
-17.433999999999987
 30
0.0
 11
13.385000000000002
 21
-17.433999999999987
 31
0.0
  0
TEXT
  5
2DC
330
17
100
AcDbEntity
  8
A-TEXTO
100
AcDbText
 10
-2.165
 20
-17.507499999999986
 30
0.0
 40
0.07
  1
IP-P3
  7
LAVA-B
 11
-2.165
 21
-17.507499999999986
 31
0.0
100
AcDbText
 73
2
  0
TEXT
  5
2DD
330
17
100
AcDbEntity
  8
A-TEXTO
100
AcDbText
 10
-1.0649999999999997
 20
-17.507499999999986
 30
0.0
 40
0.07
  1
Division pilas / pasteleria
  7
LAVA
 11
-1.0649999999999997
 21
-17.507499999999986
 31
0.0
100
AcDbText
 73
2
  0
TEXT
  5
2DE
330
17
100
AcDbEntity
  8
A-TEXTO
100
AcDbText
 10
6.135000000000001
 20
-17.507499999999986
 30
0.0
 40
0.07
  1
10 cm
  7
LAVA
 11
6.135000000000001
 21
-17.507499999999986
 31
0.0
100
AcDbText
 73
2
  0
TEXT
  5
2DF
330
17
100
AcDbEntity
  8
A-TEXTO
100
AcDbText
 10
7.135000000000001
 20
-17.507499999999986
 30
0.0
 40
0.07
  1
sí
  7
LAVA
 11
7.135000000000001
 21
-17.507499999999986
 31
0.0
100
AcDbText
 73
2
  0
TEXT
  5
2E0
330
17
100
AcDbEntity
  8
A-TEXTO
100
AcDbText
 10
7.9350000000000005
 20
-17.507499999999986
 30
0.0
 40
0.07
  1
liviana 10 cm
  7
LAVA
 11
7.9350000000000005
 21
-17.507499999999986
 31
0.0
100
AcDbText
 73
2
  0
LINE
  5
2E1
330
17
100
AcDbEntity
  8
A-TEXTO
370
5
100
AcDbLine
 10
-2.215
 20
-17.580999999999985
 30
0.0
 11
13.385000000000002
 21
-17.580999999999985
 31
0.0
  0
ENDSEC
  0
SECTION
  2
OBJECTS
  0
DICTIONARY
  5
A
330
0
100
AcDbDictionary
281
1
  3
ACAD_COLOR
350
B
  3
ACAD_GROUP
350
C
  3
ACAD_LAYOUT
350
D
  3
ACAD_MATERIAL
350
E
  3
ACAD_MLEADERSTYLE
350
F
  3
ACAD_MLINESTYLE
350
10
  3
ACAD_PLOTSETTINGS
350
11
  3
ACAD_PLOTSTYLENAME
350
12
  3
ACAD_SCALELIST
350
14
  3
ACAD_TABLESTYLE
350
15
  3
ACAD_VISUALSTYLE
350
16
  3
EZDXF_META
350
2D
  0
DICTIONARY
  5
B
330
A
100
AcDbDictionary
281
1
  0
DICTIONARY
  5
C
330
A
100
AcDbDictionary
281
1
  0
DICTIONARY
  5
D
330
A
100
AcDbDictionary
281
1
  3
Model
350
1A
  3
Layout1
350
1E
  0
DICTIONARY
  5
E
330
A
100
AcDbDictionary
281
1
  3
ByBlock
350
1F
  3
ByLayer
350
20
  3
Global
350
21
  0
DICTIONARY
  5
F
330
A
100
AcDbDictionary
281
1
  3
Standard
350
2C
  0
DICTIONARY
  5
10
330
A
100
AcDbDictionary
281
1
  3
Standard
350
22
  0
DICTIONARY
  5
11
330
A
100
AcDbDictionary
281
1
  0
ACDBDICTIONARYWDFLT
  5
12
330
A
100
AcDbDictionary
281
1
  3
Normal
350
13
100
AcDbDictionaryWithDefault
340
13
  0
ACDBPLACEHOLDER
  5
13
330
12
  0
DICTIONARY
  5
14
330
A
100
AcDbDictionary
281
1
  0
DICTIONARY
  5
15
330
A
100
AcDbDictionary
281
1
  0
DICTIONARY
  5
16
330
A
100
AcDbDictionary
281
1
  0
LAYOUT
  5
1A
330
D
100
AcDbPlotSettings
  1

  4
A3
  6

 40
7.5
 41
20.0
 42
7.5
 43
20.0
 44
420.0
 45
297.0
 46
0.0
 47
0.0
 48
0.0
 49
0.0
140
0.0
141
0.0
142
1.0
143
1.0
 70
1024
 72
1
 73
0
 74
5
  7

 75
16
 76
0
 77
2
 78
300
147
1.0
148
0.0
149
0.0
100
AcDbLayout
  1
Model
 70
1
 71
0
 10
0.0
 20
0.0
 11
420.0
 21
297.0
 12
0.0
 22
0.0
 32
0.0
 14
1e+20
 24
1e+20
 34
1e+20
 15
-1e+20
 25
-1e+20
 35
-1e+20
146
0.0
 13
0.0
 23
0.0
 33
0.0
 16
1.0
 26
0.0
 36
0.0
 17
0.0
 27
1.0
 37
0.0
 76
1
330
17
  0
LAYOUT
  5
1E
330
D
100
AcDbPlotSettings
  1

  4
A3
  6

 40
7.5
 41
20.0
 42
7.5
 43
20.0
 44
420.0
 45
297.0
 46
0.0
 47
0.0
 48
0.0
 49
0.0
140
0.0
141
0.0
142
1.0
143
1.0
 70
0
 72
1
 73
0
 74
5
  7

 75
16
 76
0
 77
2
 78
300
147
1.0
148
0.0
149
0.0
100
AcDbLayout
  1
Layout1
 70
1
 71
1
 10
0.0
 20
0.0
 11
420.0
 21
297.0
 12
0.0
 22
0.0
 32
0.0
 14
1e+20
 24
1e+20
 34
1e+20
 15
-1e+20
 25
-1e+20
 35
-1e+20
146
0.0
 13
0.0
 23
0.0
 33
0.0
 16
1.0
 26
0.0
 36
0.0
 17
0.0
 27
1.0
 37
0.0
 76
1
330
1B
  0
MATERIAL
  5
1F
102
{ACAD_REACTORS
330
E
102
}
330
E
100
AcDbMaterial
  1
ByBlock
  2

 70
0
 40
1.0
 71
1
 41
1.0
 91
-1023410177
 42
1.0
 72
1
  3

 73
1
 74
1
 75
1
 44
0.5
 73
0
 45
1.0
 46
1.0
 77
1
  4

 78
1
 79
1
170
1
 48
1.0
171
1
  6

172
1
173
1
174
1
140
1.0
141
1.0
175
1
  7

176
1
177
1
178
1
143
1.0
179
1
  8

270
1
271
1
272
1
145
1.0
146
1.0
273
1
  9

274
1
275
1
276
1
 42
1.0
 72
1
  3

 73
1
 74
1
 75
1
 94
63
  0
MATERIAL
  5
20
102
{ACAD_REACTORS
330
E
102
}
330
E
100
AcDbMaterial
  1
ByLayer
  2

 70
0
 40
1.0
 71
1
 41
1.0
 91
-1023410177
 42
1.0
 72
1
  3

 73
1
 74
1
 75
1
 44
0.5
 73
0
 45
1.0
 46
1.0
 77
1
  4

 78
1
 79
1
170
1
 48
1.0
171
1
  6

172
1
173
1
174
1
140
1.0
141
1.0
175
1
  7

176
1
177
1
178
1
143
1.0
179
1
  8

270
1
271
1
272
1
145
1.0
146
1.0
273
1
  9

274
1
275
1
276
1
 42
1.0
 72
1
  3

 73
1
 74
1
 75
1
 94
63
  0
MATERIAL
  5
21
102
{ACAD_REACTORS
330
E
102
}
330
E
100
AcDbMaterial
  1
Global
  2

 70
0
 40
1.0
 71
1
 41
1.0
 91
-1023410177
 42
1.0
 72
1
  3

 73
1
 74
1
 75
1
 44
0.5
 73
0
 45
1.0
 46
1.0
 77
1
  4

 78
1
 79
1
170
1
 48
1.0
171
1
  6

172
1
173
1
174
1
140
1.0
141
1.0
175
1
  7

176
1
177
1
178
1
143
1.0
179
1
  8

270
1
271
1
272
1
145
1.0
146
1.0
273
1
  9

274
1
275
1
276
1
 42
1.0
 72
1
  3

 73
1
 74
1
 75
1
 94
63
  0
MLINESTYLE
  5
22
102
{ACAD_REACTORS
330
10
102
}
330
10
100
AcDbMlineStyle
  2
Standard
 70
0
  3

 62
256
 51
90.0
 52
90.0
 71
2
 49
0.5
 62
256
  6
BYLAYER
 49
-0.5
 62
256
  6
BYLAYER
  0
MLEADERSTYLE
  5
2C
102
{ACAD_REACTORS
330
F
102
}
330
F
100
AcDbMLeaderStyle
179
2
170
2
171
1
172
0
 90
2
 40
0.0
 41
0.0
173
1
 91
-1056964608
 92
-2
290
1
 42
2.0
291
1
 43
8.0
  3
Standard
 44
4.0
300

342
29
174
1
175
1
176
0
178
1
 93
-1056964608
 45
4.0
292
0
297
0
 46
4.0
 94
-1056964608
 47
1.0
 49
1.0
140
1.0
294
1
141
0.0
177
0
142
1.0
295
0
296
0
143
3.75
271
0
272
9
273
9
  0
DICTIONARY
  5
2D
330
A
100
AcDbDictionary
280
1
281
1
  3
CREATED_BY_EZDXF
350
2E
  3
WRITTEN_BY_EZDXF
350
2E5
  0
DICTIONARYVAR
  5
2E
330
2D
100
DictionaryVariables
280
0
  1
1.4.4 @ 2026-09-25T23:30:53.957497+00:00
  0
DICTIONARYVAR
  5
2E5
330
2D
100
DictionaryVariables
280
0
  1
1.4.4 @ 2026-09-25T23:30:54.446111+00:00
  0
ENDSEC
  0
EOF
